<svg width="12" height="14" viewBox="0 0 12 14" fill="none" xmlns="http://www.w3.org/2000/svg">
<path d="M11.9891 6.74654C11.9891 7.68981 11.9833 8.63406 11.9891 9.5783C11.999 9.7583 11.9592 9.93754 11.8741 10.0965C11.7891 10.2554 11.662 10.3879 11.5068 10.4796C11.0849 10.7432 10.6553 10.9942 10.2217 11.2363C9.92878 11.4014 9.65342 11.334 9.45715 11.0547C8.99626 10.3897 8.54318 9.71598 8.08521 9.04613L6.44474 6.64011C6.40764 6.5864 6.36955 6.53269 6.3344 6.47704C6.00143 5.94095 6.04146 5.72613 6.45353 5.25352C6.98473 4.65104 7.48956 4.02512 8.01588 3.41385C8.36253 3.00764 8.7121 2.60534 9.07144 2.21182C9.30677 1.95305 9.58116 1.91888 9.88289 2.09464C10.4151 2.3993 10.957 2.69419 11.4755 3.01838C11.7977 3.21856 12.0067 3.49978 11.9999 3.91869C11.9803 4.85903 11.9891 5.80229 11.9891 6.74654Z" fill="#F8C33C"/>
<path d="M2.59057 6.78172V11.0391C2.59057 11.1836 2.61596 11.3418 2.44801 11.4229C2.28006 11.5039 2.15507 11.4473 2.01348 11.3653C1.56235 11.1055 1.11806 10.8389 0.65814 10.6046C0.161117 10.3507 0.00878822 9.90837 0.00585881 9.40158C-0.00292941 7.64394 0.00585881 5.8863 0 4.13451C0 3.51543 0.267552 3.10336 0.82414 2.8319C1.2208 2.62953 1.607 2.40726 1.98126 2.16595C2.04586 2.11771 2.12141 2.08622 2.20115 2.07429C2.28089 2.06236 2.36235 2.07037 2.43824 2.0976C2.60522 2.16595 2.59057 2.32902 2.59057 2.47549L2.59057 6.78172Z" fill="#23C7B4"/>
<path d="M3.77117 10.1945C3.77117 9.73365 3.78874 9.27178 3.77117 8.81186C3.75473 8.57493 3.7887 8.3372 3.87083 8.11435C3.95297 7.89151 4.08141 7.6886 4.24769 7.51901C4.37853 7.38133 4.49766 7.23291 4.62167 7.08937C4.9029 6.76323 5.20755 6.77592 5.44972 7.13428C5.89597 7.7934 6.3344 8.45838 6.77772 9.11945C7.31477 9.92015 7.85183 10.7189 8.3928 11.5206C8.65058 11.9112 8.58809 12.2041 8.19067 12.4385C7.64319 12.764 7.09181 13.0807 6.53653 13.3886C6.37425 13.4839 6.1891 13.5332 6.00091 13.5313C5.81272 13.5295 5.6286 13.4764 5.46827 13.3778C5.06727 13.1519 4.66919 12.9205 4.27405 12.6836C4.11537 12.5981 3.9839 12.4697 3.89464 12.3131C3.80539 12.1565 3.76192 11.978 3.76922 11.7979C3.77703 11.2628 3.77117 10.7287 3.77117 10.1945Z" fill="#FA6B67"/>
<path d="M3.77306 3.83274V1.77141C3.76338 1.58758 3.80524 1.40471 3.89392 1.24339C3.9826 1.08208 4.11457 0.948743 4.27497 0.858412C4.70754 0.600624 5.14207 0.344789 5.58832 0.10946C5.7178 0.0386457 5.86282 0.00104389 6.01039 2.14248e-05C6.15797 -0.00100104 6.30349 0.0345877 6.43394 0.103602C6.93292 0.370178 7.42604 0.660189 7.91427 0.955083C8.23065 1.15038 8.27263 1.42086 8.03047 1.70696C7.39869 2.45396 6.76106 3.1951 6.12147 3.93722C5.48188 4.67934 4.84523 5.42145 4.20759 6.16454C4.12655 6.26219 4.03476 6.33445 3.90684 6.29637C3.76232 6.2534 3.77404 6.12158 3.77306 6.00343L3.77306 3.83274Z" fill="#5F77A8"/>
</svg>
