<svg width="18" height="9" viewBox="0 0 18 9" fill="none" xmlns="http://www.w3.org/2000/svg">
<path d="M16.4955 7.29848L15.6778 6.6664L9.00001 1.50441L2.32222 6.6664L1.50453 7.29848" stroke="#414141" stroke-width="3" stroke-linecap="round" stroke-linejoin="round"/>
<path fill-rule="evenodd" clip-rule="evenodd" d="M13.4292 4.92816H15.2796L15.2796 1.76775L9.34072 1.76775L13.4292 4.92816Z" fill="#414141"/>
<path d="M15.2796 4.92816V5.93109C15.8335 5.93109 16.2825 5.48206 16.2825 4.92816H15.2796ZM13.4292 4.92816L12.8158 5.72166C12.9914 5.85743 13.2072 5.93109 13.4292 5.93109V4.92816ZM15.2796 1.76775L16.2825 1.76775C16.2825 1.21384 15.8335 0.764814 15.2796 0.764814V1.76775ZM9.34072 1.76775V0.764814C8.91171 0.764814 8.53021 1.03768 8.39158 1.44368C8.25296 1.84967 8.38791 2.29888 8.72734 2.56125L9.34072 1.76775ZM15.2796 3.92522L13.4292 3.92522V5.93109H15.2796L15.2796 3.92522ZM14.2766 1.76775V4.92816H16.2825L16.2825 1.76775L14.2766 1.76775ZM9.34072 2.77069L15.2796 2.77069V0.764814L9.34072 0.764814V2.77069ZM8.72734 2.56125L12.8158 5.72166L14.0425 4.13466L9.9541 0.974251L8.72734 2.56125Z" fill="#414141"/>
</svg>
