<svg width="18" height="9" viewBox="0 0 18 9" fill="none" xmlns="http://www.w3.org/2000/svg">
<path d="M16.4956 7.29858L15.6779 6.66649L9.00001 1.50443L2.32213 6.66649L1.50443 7.29858" stroke="#21C6EA" stroke-width="3" stroke-linecap="round" stroke-linejoin="round"/>
<path fill-rule="evenodd" clip-rule="evenodd" d="M13.4292 4.92822L15.2797 4.92822L15.2797 1.76778L9.34072 1.76778L13.4292 4.92822Z" fill="#21C6EA"/>
<path d="M15.2797 4.92822V5.93118C15.8336 5.93118 16.2826 5.48214 16.2826 4.92822H15.2797ZM13.4292 4.92822L12.8158 5.72174C12.9915 5.85751 13.2072 5.93118 13.4292 5.93118V4.92822ZM15.2797 1.76778L16.2826 1.76778C16.2826 1.21386 15.8336 0.764824 15.2797 0.764824V1.76778ZM9.34072 1.76778V0.764824C8.91171 0.764824 8.5302 1.03769 8.39158 1.44369C8.25295 1.84969 8.38791 2.29891 8.72733 2.56129L9.34072 1.76778ZM15.2797 3.92527L13.4292 3.92527V5.93118H15.2797L15.2797 3.92527ZM14.2767 1.76778V4.92822H16.2826V1.76778L14.2767 1.76778ZM9.34072 2.77073L15.2797 2.77073V0.764824L9.34072 0.764824V2.77073ZM8.72733 2.56129L12.8158 5.72174L14.0426 4.13471L9.95412 0.974264L8.72733 2.56129Z" fill="#21C6EA"/>
</svg>
