<svg width="23" height="23" viewBox="0 0 23 23" fill="none" xmlns="http://www.w3.org/2000/svg">
<path fill-rule="evenodd" clip-rule="evenodd" d="M11.5 3.35763C14.6756 3.35763 17.25 5.932 17.25 9.10766V9.39902C17.25 10.6656 16.8519 11.9001 16.1121 12.9281L11.5113 19.3206C11.5057 19.3284 11.4942 19.3284 11.4886 19.3206L6.88785 12.9281C6.148 11.9001 5.74994 10.6656 5.74994 9.39902V9.10765C5.74994 5.932 8.32431 3.35763 11.5 3.35763ZM14.0246 8.52319C13.8497 7.76254 13.3302 7.11973 12.6259 6.78316C11.9185 6.44502 11.0815 6.44502 10.374 6.78316C9.66978 7.11973 9.15026 7.76254 8.97532 8.52319C8.79958 9.28737 8.98588 10.0928 9.47704 10.704C9.96592 11.3124 10.7066 11.6691 11.4871 11.6691H11.5129C12.2934 11.6691 13.034 11.3124 13.5229 10.704C14.0141 10.0928 14.2003 9.28737 14.0246 8.52319Z" fill="#5A5A5A"/>
<path d="M16.1121 12.9281L17.3729 13.8355V13.8355L16.1121 12.9281ZM11.5113 19.3206L10.2505 18.4132L10.2505 18.4132L11.5113 19.3206ZM11.4886 19.3206L12.7494 18.4132L12.7494 18.4132L11.4886 19.3206ZM6.88785 12.9281L5.62704 13.8355H5.62704L6.88785 12.9281ZM12.6259 6.78316L11.9561 8.18471V8.18471L12.6259 6.78316ZM14.0246 8.52319L12.5107 8.87135H12.5107L14.0246 8.52319ZM10.374 6.78316L11.0439 8.18471H11.0439L10.374 6.78316ZM8.97532 8.52319L10.4892 8.87135V8.87135L8.97532 8.52319ZM9.47704 10.704L10.688 9.73099V9.73099L9.47704 10.704ZM13.5229 10.704L14.7338 11.677V11.677L13.5229 10.704ZM18.8034 9.10766C18.8034 5.07408 15.5335 1.80422 11.5 1.80422V4.91104C13.8177 4.91104 15.6966 6.78993 15.6966 9.10766H18.8034ZM18.8034 9.39902V9.10766H15.6966V9.39902H18.8034ZM17.3729 13.8355C18.303 12.5432 18.8034 10.9912 18.8034 9.39902H15.6966C15.6966 10.3399 15.4009 11.257 14.8513 12.0207L17.3729 13.8355ZM12.7721 20.228L17.3729 13.8355L14.8513 12.0207L10.2505 18.4132L12.7721 20.228ZM10.2278 20.228C10.8532 21.0971 12.1467 21.0971 12.7722 20.228L10.2505 18.4132C10.8648 17.5596 12.1351 17.5596 12.7494 18.4132L10.2278 20.228ZM5.62704 13.8355L10.2278 20.228L12.7494 18.4132L8.14867 12.0207L5.62704 13.8355ZM4.19653 9.39902C4.19653 10.9912 4.69694 12.5432 5.62704 13.8355L8.14867 12.0207C7.59905 11.257 7.30335 10.3399 7.30335 9.39902H4.19653ZM4.19653 9.10765V9.39902H7.30335V9.10765H4.19653ZM11.5 1.80422C7.46639 1.80422 4.19653 5.07408 4.19653 9.10765H7.30335C7.30335 6.78992 9.18223 4.91104 11.5 4.91104V1.80422ZM11.9561 8.18471C12.2379 8.31939 12.4431 8.57721 12.5107 8.87135L15.5385 8.17503C15.2563 6.94788 14.4224 5.92007 13.2958 5.3816L11.9561 8.18471ZM11.0439 8.18471C11.3277 8.04905 11.6722 8.04905 11.9561 8.18471L13.2958 5.3816C12.1647 4.841 10.8352 4.841 9.70412 5.3816L11.0439 8.18471ZM10.4892 8.87135C10.5569 8.57721 10.7621 8.31939 11.0439 8.18471L9.70412 5.3816C8.57749 5.92007 7.74365 6.94788 7.46143 8.17504L10.4892 8.87135ZM10.688 9.73099C10.4933 9.48869 10.4206 9.16969 10.4892 8.87135L7.46143 8.17503C7.17856 9.40506 7.4785 10.6968 8.26611 11.677L10.688 9.73099ZM11.4871 10.1157C11.1796 10.1157 10.8834 9.97428 10.688 9.73099L8.26611 11.677C9.04839 12.6506 10.2335 13.2225 11.4871 13.2225V10.1157ZM11.5129 10.1157H11.4871V13.2225H11.5129L11.5129 10.1157ZM12.312 9.73099C12.1165 9.97428 11.8203 10.1157 11.5129 10.1157L11.5129 13.2225C12.7664 13.2225 13.9515 12.6506 14.7338 11.677L12.312 9.73099ZM12.5107 8.87135C12.5793 9.16969 12.5067 9.48869 12.312 9.73099L14.7338 11.677C15.5214 10.6968 15.8214 9.40506 15.5385 8.17503L12.5107 8.87135Z" fill="#5A5A5A"/>
</svg>
