<svg width="22" height="22" viewBox="0 0 22 22" fill="none" xmlns="http://www.w3.org/2000/svg">
<path d="M16.4999 18.6004H5.4999C4.89239 18.6004 4.3999 18.1246 4.3999 17.5375C4.3999 15.7794 5.52872 14.2058 7.23248 13.5888L7.57075 13.4663C9.78174 12.6656 12.218 12.6656 14.429 13.4663L14.7673 13.5888C16.471 14.2058 17.5999 15.7794 17.5999 17.5375C17.5999 18.1246 17.1074 18.6004 16.4999 18.6004Z" fill="#C2CCDE" fill-opacity="0.25"/>
<path d="M9.32278 10.3278C10.3755 10.8503 11.6243 10.8503 12.677 10.3278C13.6567 9.84155 14.3586 8.95587 14.5891 7.9152L14.6506 7.63745C14.8862 6.57324 14.6345 5.46255 13.9601 4.59092L13.8613 4.46328C13.1868 3.59153 12.1263 3.0782 10.9999 3.0782C9.87342 3.0782 8.81294 3.59153 8.13843 4.46328L8.03967 4.59092C7.36526 5.46255 7.11353 6.57324 7.3492 7.63745L7.41071 7.9152C7.64116 8.95587 8.34309 9.84155 9.32278 10.3278Z" fill="#C2CCDE" fill-opacity="0.25"/>
<path d="M16.4999 18.6004H5.4999C4.89239 18.6004 4.3999 18.1246 4.3999 17.5375C4.3999 15.7794 5.52872 14.2058 7.23248 13.5888L7.57075 13.4663C9.78174 12.6656 12.218 12.6656 14.429 13.4663L14.7673 13.5888C16.471 14.2058 17.5999 15.7794 17.5999 17.5375C17.5999 18.1246 17.1074 18.6004 16.4999 18.6004Z" stroke="#414141" stroke-linecap="round" stroke-linejoin="round"/>
<path d="M9.32278 10.3278C10.3755 10.8503 11.6243 10.8503 12.677 10.3278C13.6567 9.84155 14.3586 8.95587 14.5891 7.9152L14.6506 7.63745C14.8862 6.57324 14.6345 5.46255 13.9601 4.59092L13.8613 4.46328C13.1868 3.59153 12.1263 3.0782 10.9999 3.0782C9.87342 3.0782 8.81294 3.59153 8.13843 4.46328L8.03967 4.59092C7.36526 5.46255 7.11353 6.57324 7.3492 7.63745L7.41071 7.9152C7.64116 8.95587 8.34309 9.84155 9.32278 10.3278Z" stroke="#414141" stroke-linecap="round" stroke-linejoin="round"/>
</svg>
