<svg width="61" height="16" viewBox="0 0 61 16" fill="none" xmlns="http://www.w3.org/2000/svg">
<path d="M7.85204 15.7053C7.65751 15.7053 7.46294 15.6314 7.31502 15.4824L0.22265 8.39005C-0.0742166 8.09319 -0.0742166 7.61188 0.22265 7.31502L7.31502 0.22265C7.61188 -0.0742166 8.09319 -0.0742166 8.39005 0.22265C8.68692 0.519516 8.68692 1.00082 8.39005 1.29769L1.83471 7.85303L8.39005 14.4084C8.68692 14.7052 8.68692 15.1865 8.39005 15.4834C8.24111 15.6313 8.04657 15.7053 7.85204 15.7053Z" fill="#414141"/>
<path d="M28.9427 7.60579C29.3534 7.67063 29.7262 7.83815 30.0613 8.10833C30.4071 8.37852 30.6773 8.71355 30.8718 9.11342C31.0772 9.51329 31.1798 9.94019 31.1798 10.3941C31.1798 10.9669 31.0339 11.4856 30.7421 11.9504C30.4503 12.4043 30.0234 12.7663 29.4614 13.0365C28.9103 13.2959 28.2564 13.4256 27.4999 13.4256H23.285V2.12643H27.3378C28.1051 2.12643 28.759 2.25611 29.2993 2.51549C29.8397 2.76406 30.245 3.1045 30.5152 3.53679C30.7854 3.96909 30.9204 4.45542 30.9204 4.99579C30.9204 5.66585 30.7367 6.22244 30.3693 6.66554C30.0126 7.09784 29.5371 7.41125 28.9427 7.60579ZM24.7602 7.00597H27.2405C27.9322 7.00597 28.4672 6.84386 28.8454 6.51964C29.2237 6.19542 29.4128 5.74691 29.4128 5.17412C29.4128 4.60132 29.2237 4.15282 28.8454 3.82859C28.4672 3.50437 27.9214 3.34226 27.2081 3.34226H24.7602V7.00597ZM27.3702 12.2097C28.1051 12.2097 28.6779 12.0368 29.0886 11.691C29.4993 11.3452 29.7046 10.8642 29.7046 10.2482C29.7046 9.62137 29.4885 9.12963 29.0562 8.77299C28.6239 8.40553 28.0457 8.22181 27.3216 8.22181H24.7602V12.2097H27.3702Z" fill="#414141"/>
<path d="M32.6758 8.95131C32.6758 8.04349 32.8595 7.24914 33.227 6.56827C33.5944 5.8766 34.097 5.34163 34.7346 4.96337C35.3831 4.58511 36.1018 4.39598 36.8907 4.39598C37.6688 4.39598 38.3443 4.5635 38.9171 4.89853C39.4899 5.23356 39.9168 5.65505 40.1978 6.163V4.54188H41.6892V13.4256H40.1978V11.772C39.906 12.2908 39.4683 12.7231 38.8847 13.0689C38.3119 13.404 37.6418 13.5715 36.8745 13.5715C36.0855 13.5715 35.3723 13.3769 34.7346 12.9879C34.097 12.5988 33.5944 12.053 33.227 11.3506C32.8595 10.6481 32.6758 9.84833 32.6758 8.95131ZM40.1978 8.96752C40.1978 8.29746 40.0627 7.71386 39.7925 7.21672C39.5223 6.71958 39.1549 6.34132 38.6901 6.08194C38.2362 5.81175 37.7337 5.67666 37.1825 5.67666C36.6313 5.67666 36.1288 5.80635 35.6749 6.06573C35.221 6.32511 34.8589 6.70337 34.5887 7.20051C34.3185 7.69765 34.1834 8.28125 34.1834 8.95131C34.1834 9.63218 34.3185 10.2266 34.5887 10.7345C34.8589 11.2317 35.221 11.6153 35.6749 11.8855C36.1288 12.1449 36.6313 12.2746 37.1825 12.2746C37.7337 12.2746 38.2362 12.1449 38.6901 11.8855C39.1549 11.6153 39.5223 11.2317 39.7925 10.7345C40.0627 10.2266 40.1978 9.63758 40.1978 8.96752Z" fill="#414141"/>
<path d="M43.631 8.96752C43.631 8.04889 43.8147 7.24914 44.1822 6.56827C44.5496 5.8766 45.0576 5.34163 45.706 4.96337C46.3653 4.58511 47.1164 4.39598 47.9594 4.39598C49.0509 4.39598 49.9479 4.66076 50.6504 5.19033C51.3637 5.71989 51.8338 6.4548 52.0608 7.39504H50.4721C50.3208 6.85467 50.0236 6.42778 49.5805 6.11436C49.1482 5.80095 48.6078 5.64424 47.9594 5.64424C47.1164 5.64424 46.4355 5.93604 45.9168 6.51964C45.398 7.09243 45.1386 7.90839 45.1386 8.96752C45.1386 10.0375 45.398 10.8642 45.9168 11.4478C46.4355 12.0314 47.1164 12.3232 47.9594 12.3232C48.6078 12.3232 49.1482 12.1719 49.5805 11.8693C50.0128 11.5667 50.31 11.1344 50.4721 10.5724H52.0608C51.823 11.4802 51.3475 12.2097 50.6342 12.7609C49.9209 13.3013 49.0293 13.5715 47.9594 13.5715C47.1164 13.5715 46.3653 13.3824 45.706 13.0041C45.0576 12.6258 44.5496 12.0909 44.1822 11.3992C43.8147 10.7075 43.631 9.89696 43.631 8.96752Z" fill="#414141"/>
<path d="M58.9898 13.4256L55.5044 9.50249V13.4256H54.0292V1.42935H55.5044V8.48119L58.9249 4.54188H60.9837L56.8013 8.96752L60.9999 13.4256H58.9898Z" fill="#414141"/>
</svg>
