<svg width="23" height="21" viewBox="0 0 23 21" fill="none" xmlns="http://www.w3.org/2000/svg">
<path d="M17.9238 17.7841L14.3284 14.442C13.9977 14.1346 13.9978 13.6363 14.3285 13.3289C14.6593 13.0215 15.1956 13.0216 15.5264 13.329L19.1218 16.6711C19.4525 16.9785 19.4524 17.4768 19.1217 17.7842C18.7909 18.0916 18.2546 18.0915 17.9238 17.7841Z" fill="#C2CCDE" fill-opacity="0.25"/>
<path d="M4.4057 7.63061C4.90334 5.9047 6.35399 4.55661 8.2112 4.09416C10.0684 3.6317 12.05 4.12514 13.4096 5.38859C14.7692 6.65204 15.3002 8.49356 14.8025 10.2195C14.3049 11.9454 12.8542 13.2935 10.997 13.7559C9.13981 14.2184 7.15819 13.7249 5.79861 12.4615C4.43903 11.198 3.90806 9.35652 4.4057 7.63061Z" fill="#C2CCDE" fill-opacity="0.25"/>
<path d="M13.4019 12.4684L14.3283 13.3292M14.3284 14.442L17.9238 17.7841C18.2546 18.0915 18.7909 18.0916 19.1217 17.7842C19.4524 17.4768 19.4525 16.9785 19.1218 16.6711L15.5264 13.329C15.1956 13.0216 14.6593 13.0215 14.3285 13.3289C13.9978 13.6363 13.9977 14.1346 14.3284 14.442ZM5.79861 12.4615C4.43903 11.198 3.90806 9.35652 4.4057 7.63061C4.90334 5.9047 6.35399 4.55661 8.2112 4.09416C10.0684 3.6317 12.05 4.12514 13.4096 5.38859C14.7692 6.65204 15.3002 8.49356 14.8025 10.2195C14.3049 11.9454 12.8542 13.2935 10.997 13.7559C9.13981 14.2184 7.15819 13.7249 5.79861 12.4615Z" stroke="#E0DBD5" stroke-linecap="round" stroke-linejoin="round"/>
</svg>
