<svg width="17" height="13" viewBox="0 0 17 13" fill="none" xmlns="http://www.w3.org/2000/svg">
<path d="M13.0392 1.16461L8.46078 4.73764L3.77773 1.16461V1.16557L3.78338 1.1704V6.17361L8.40797 9.82389L13.0392 6.3146V1.16461Z" fill="#F44336"/>
<path d="M14.2414 0.295471L13.0391 1.16459V6.31457L16.8225 3.4098V1.65998C16.8225 1.65998 16.3632 -0.839207 14.2414 0.295471Z" fill="#FDD835"/>
<path d="M13.0391 6.31468V12.9943H15.9389C15.9389 12.9943 16.764 12.9093 16.8234 11.9688V3.4099L13.0391 6.31468Z" fill="#43A048"/>
<path d="M3.7836 12.9999V6.17354L3.77773 6.16871L3.7836 12.9999Z" fill="#F44336"/>
<path d="M3.77775 1.16563L2.582 0.301346C0.460195 -0.833332 0 1.66489 0 1.66489V3.41471L3.77775 6.16884V1.16563Z" fill="#B71B1C"/>
<path d="M3.77773 1.16554V6.16875L3.7836 6.17358V1.17037L3.77773 1.16554Z" fill="#F44336"/>
<path d="M0 3.4156V11.9744C0.0584674 12.916 0.884556 13 0.884556 13H3.78435L3.77775 6.16876L0 3.4156Z" fill="#304FFE"/>
</svg>
