<svg width="23" height="22" viewBox="0 0 23 22" fill="none" xmlns="http://www.w3.org/2000/svg">
<path d="M8.75858 5.13179C10.3493 4.48713 12.1366 4.48713 13.7273 5.13179C15.3181 5.77644 16.5819 7.01294 17.2408 8.56927C17.8997 10.1256 17.8997 11.8743 17.2408 13.4306C16.5819 14.9869 15.3181 16.2234 13.7273 16.8681C12.1366 17.5127 10.3493 17.5127 8.75858 16.8681C7.16785 16.2234 5.90403 14.9869 5.24513 13.4306C4.58623 11.8743 4.58623 10.1256 5.24513 8.56927C5.90403 7.01294 7.16785 5.77644 8.75858 5.13179Z" fill="#C2CCDE" fill-opacity="0.25"/>
<path d="M11.2452 6.42676L11.243 3.29998L11.2407 6.42676C11.2422 6.42676 11.2437 6.42676 11.2452 6.42676Z" fill="#C2CCDE" fill-opacity="0.25"/>
<path d="M15.9172 10.9977C15.9172 10.9992 15.9172 11.0007 15.9172 11.0022L19.1131 10.9999L15.9172 10.9977Z" fill="#C2CCDE" fill-opacity="0.25"/>
<path d="M11.2452 15.5731C11.2437 15.5731 11.2422 15.5731 11.2407 15.5731L11.243 18.6999L11.2452 15.5731Z" fill="#C2CCDE" fill-opacity="0.25"/>
<path d="M6.56871 11.0022C6.56871 11.0007 6.56871 10.9992 6.56871 10.9977L3.37283 10.9999L6.56871 11.0022Z" fill="#C2CCDE" fill-opacity="0.25"/>
<path d="M10.2492 8.65268C10.8855 8.39482 11.6004 8.39482 12.2367 8.65268C12.873 8.91054 13.3785 9.40514 13.6421 10.0277C13.9057 10.6502 13.9057 11.3497 13.6421 11.9722C13.3785 12.5947 12.873 13.0893 12.2367 13.3472C11.6004 13.6051 10.8855 13.6051 10.2492 13.3472C9.61292 13.0893 9.10739 12.5947 8.84383 11.9722C8.58027 11.3497 8.58027 10.6502 8.84383 10.0277C9.10739 9.40514 9.61292 8.91054 10.2492 8.65268Z" fill="#C2CCDE" fill-opacity="0.25"/>
<path d="M8.75858 5.13179C10.3493 4.48713 12.1366 4.48713 13.7273 5.13179C15.3181 5.77644 16.5819 7.01294 17.2408 8.56927C17.8997 10.1256 17.8997 11.8743 17.2408 13.4306C16.5819 14.9869 15.3181 16.2234 13.7273 16.8681C12.1366 17.5127 10.3493 17.5127 8.75858 16.8681C7.16785 16.2234 5.90403 14.9869 5.24513 13.4306C4.58623 11.8743 4.58623 10.1256 5.24513 8.56927C5.90403 7.01294 7.16785 5.77644 8.75858 5.13179Z" stroke="#5A5A5A" stroke-linecap="round" stroke-linejoin="round"/>
<path d="M11.2452 6.42676L11.243 3.29998L11.2407 6.42676C11.2422 6.42676 11.2437 6.42676 11.2452 6.42676Z" stroke="#5A5A5A" stroke-linecap="round" stroke-linejoin="round"/>
<path d="M15.9172 10.9977C15.9172 10.9992 15.9172 11.0007 15.9172 11.0022L19.1131 10.9999L15.9172 10.9977Z" stroke="#5A5A5A" stroke-linecap="round" stroke-linejoin="round"/>
<path d="M11.2452 15.5731C11.2437 15.5731 11.2422 15.5731 11.2407 15.5731L11.243 18.6999L11.2452 15.5731Z" stroke="#5A5A5A" stroke-linecap="round" stroke-linejoin="round"/>
<path d="M6.56871 11.0022C6.56871 11.0007 6.56871 10.9992 6.56871 10.9977L3.37283 10.9999L6.56871 11.0022Z" stroke="#5A5A5A" stroke-linecap="round" stroke-linejoin="round"/>
<path d="M10.2492 8.65268C10.8855 8.39482 11.6004 8.39482 12.2367 8.65268C12.873 8.91054 13.3785 9.40514 13.6421 10.0277C13.9057 10.6502 13.9057 11.3497 13.6421 11.9722C13.3785 12.5947 12.873 13.0893 12.2367 13.3472C11.6004 13.6051 10.8855 13.6051 10.2492 13.3472C9.61292 13.0893 9.10739 12.5947 8.84383 11.9722C8.58027 11.3497 8.58027 10.6502 8.84383 10.0277C9.10739 9.40514 9.61292 8.91054 10.2492 8.65268Z" stroke="#5A5A5A" stroke-linecap="round" stroke-linejoin="round"/>
</svg>
