<svg width="28" height="27" viewBox="0 0 28 27" fill="none" xmlns="http://www.w3.org/2000/svg">
<path d="M4.18848 7.42502V19.575C4.18848 20.6934 5.12607 21.6 6.28266 21.6H21.64C22.7966 21.6 23.7342 20.6934 23.7342 19.575V10.125C23.7342 9.00665 22.7966 8.10002 21.64 8.10002H20.9419V7.42502C20.9419 6.30665 20.0043 5.40002 18.8478 5.40002H6.28266C5.12607 5.40002 4.18848 6.30665 4.18848 7.42502Z" fill="#C2CCDE" fill-opacity="0.25"/>
<path d="M18.1497 14.5125C18.1497 13.7669 18.7748 13.1625 19.5458 13.1625C20.3169 13.1625 20.9419 13.7669 20.9419 14.5125C20.9419 15.2581 20.3169 15.8625 19.5458 15.8625C18.7748 15.8625 18.1497 15.2581 18.1497 14.5125Z" fill="#C2CCDE" fill-opacity="0.25"/>
<path d="M20.9419 8.10002V7.42502C20.9419 6.30665 20.0043 5.40002 18.8478 5.40002H6.28266C5.12607 5.40002 4.18848 6.30665 4.18848 7.42502V19.575C4.18848 20.6934 5.12607 21.6 6.28266 21.6H21.64C22.7966 21.6 23.7342 20.6934 23.7342 19.575V10.125C23.7342 9.00665 22.7966 8.10002 21.64 8.10002H20.9419ZM20.9419 8.10002H7.8533M19.5458 15.8625C18.7748 15.8625 18.1497 15.2581 18.1497 14.5125C18.1497 13.7669 18.7748 13.1625 19.5458 13.1625C20.3169 13.1625 20.9419 13.7669 20.9419 14.5125C20.9419 15.2581 20.3169 15.8625 19.5458 15.8625Z" stroke="black" stroke-linecap="round" stroke-linejoin="round"/>
</svg>
