<svg width="23" height="27" viewBox="0 0 23 27" fill="none" xmlns="http://www.w3.org/2000/svg">
<path d="M9.14396 3.58777H1.29026" stroke="#C4C4C4" stroke-width="1.5" stroke-linecap="round"/>
<path d="M14.3797 3.58777H22.2334" stroke="#C4C4C4" stroke-width="1.5" stroke-linecap="round"/>
<path d="M16.4741 13.4609H0.766669" stroke="#C4C4C4" stroke-width="1.5" stroke-linecap="round"/>
<path d="M6.52586 23.334H22.2333" stroke="#C4C4C4" stroke-width="1.5" stroke-linecap="round"/>
<path d="M6.52606 23.3341C6.52606 21.7761 5.35399 20.5131 3.90816 20.5131C2.46233 20.5131 1.29026 21.7761 1.29026 23.3341C1.29026 24.8921 2.46233 26.155 3.90816 26.155C5.35399 26.155 6.52606 24.8921 6.52606 23.3341Z" stroke="#C4C4C4" stroke-width="1.5" stroke-linecap="round"/>
<path d="M22.2333 13.4607C22.2333 11.9027 21.0613 10.6398 19.6154 10.6398C18.1696 10.6398 16.9975 11.9027 16.9975 13.4607C16.9975 15.0187 18.1696 16.2817 19.6154 16.2817C21.0613 16.2817 22.2333 15.0187 22.2333 13.4607Z" stroke="#C4C4C4" stroke-width="1.5" stroke-linecap="round"/>
<path d="M14.3796 3.58761C14.3796 2.02965 13.2076 0.766669 11.7617 0.766669C10.3158 0.766669 9.14381 2.02965 9.14381 3.58761C9.14381 5.14558 10.3158 6.40856 11.7617 6.40856C13.2076 6.40856 14.3796 5.14558 14.3796 3.58761Z" stroke="#C4C4C4" stroke-width="1.5" stroke-linecap="round"/>
</svg>
