<svg width="21" height="19" viewBox="0 0 21 19" fill="none" xmlns="http://www.w3.org/2000/svg">
<ellipse cx="14.4599" cy="13.5" rx="5.48476" ry="5.5" fill="#EFF2F6"/>
<path d="M0 0H18.9474V16H0V0Z" fill="#EFF2F6"/>
<path d="M0 0.148193V15.9837H9.67731C10.6233 17.7769 12.4995 19 14.6637 19C17.7792 19 20.3036 16.4686 20.3036 13.3445C20.3036 11.862 19.7298 10.5167 18.7996 9.50853V0.148193H0ZM14.2877 0.902267H18.0476V3.16449H14.2877V0.902267ZM14.2877 3.91856H18.0476V6.18079H14.2877V3.91856ZM18.0476 6.93486V8.82759C17.1047 8.1165 15.9353 7.68893 14.6637 7.68893C14.5366 7.68893 14.4125 7.70026 14.2877 7.7078V6.93486H18.0476ZM9.77581 0.902267H13.5357V3.16449H9.77581V0.902267ZM9.77581 3.91856H13.5357V6.18079H9.77581V3.91856ZM9.77581 6.93486H13.5357V7.80206C12.5055 8.0117 11.5806 8.50786 10.8384 9.19708H9.77581V6.93486ZM10.1593 9.95116C10.0202 10.1359 9.89237 10.3289 9.77581 10.531V9.95116H10.1593ZM5.2639 0.902267H9.02382V3.16449H5.2639V0.902267ZM5.2639 3.91856H9.02382V6.18079H5.2639V3.91856ZM5.2639 6.93486H9.02382V9.19708H5.2639V6.93486ZM5.2639 9.95116H9.02382V12.2134H5.2639V9.95116ZM4.51191 15.2297H0.751985V12.9675H4.51191V15.2297ZM4.51191 12.2134H0.751985V9.95116H4.51191V12.2134ZM4.51191 9.19708H0.751985V6.93486H4.51191V9.19708ZM4.51191 6.18079H0.751985V3.91856H4.51191V6.18079ZM4.51191 3.16449H0.751985V0.902267H4.51191V3.16449ZM9.02382 15.2297H5.2639V12.9675H9.02382V15.2297ZM19.5516 13.3445C19.5516 16.0516 17.3633 18.246 14.6637 18.246C11.9641 18.246 9.77581 16.0516 9.77581 13.3445C9.77581 10.6374 11.9641 8.44301 14.6637 8.44301C17.3633 8.44301 19.5516 10.6374 19.5516 13.3445Z" fill="black"/>
<path d="M8.27158 1.65649H6.01562V2.41057H8.27158V1.65649Z" fill="black"/>
<path d="M12.7838 1.65649H10.5278V2.41057H12.7838V1.65649Z" fill="black"/>
<path d="M17.2955 1.65649H15.0396V2.41057H17.2955V1.65649Z" fill="black"/>
<path d="M17.854 11.4781L17.3223 10.9449L13.6007 14.6776L12.0058 13.0775L11.4741 13.6114L13.6007 15.7439L17.854 11.4781Z" fill="black"/>
</svg>
