<svg width="28" height="12" viewBox="0 0 28 12" fill="none" xmlns="http://www.w3.org/2000/svg">
<path fill-rule="evenodd" clip-rule="evenodd" d="M5.11619 1.53757C4.78802 1.9404 4.26296 2.25813 3.7379 2.21274C3.67227 1.66807 3.92933 1.08935 4.23015 0.731907C4.55831 0.317727 5.1326 0.0226948 5.5975 0C5.65219 0.567369 5.43888 1.12339 5.11619 1.53757ZM5.59198 2.32054C5.12941 2.29292 4.70734 2.46485 4.36642 2.60372C4.14703 2.69308 3.96124 2.76876 3.8199 2.76876C3.66128 2.76876 3.46783 2.68904 3.25063 2.59952C2.96602 2.48224 2.64063 2.34814 2.29941 2.35458C1.51728 2.36593 0.789854 2.8255 0.390588 3.5574C-0.429821 5.02121 0.177282 7.18856 0.970344 8.38004C1.35867 8.9701 1.82357 9.6169 2.43614 9.59421C2.70564 9.58366 2.8995 9.49832 3.10012 9.41001C3.3311 9.30834 3.57104 9.20272 3.9457 9.20272C4.30736 9.20272 4.53681 9.30559 4.75707 9.40433C4.9665 9.49822 5.16762 9.58839 5.46619 9.58286C6.10064 9.57151 6.4999 8.99279 6.88823 8.40273C7.3073 7.76943 7.49146 7.15136 7.5194 7.05757L7.52268 7.04672C7.52201 7.04603 7.51683 7.04357 7.5077 7.03923C7.3676 6.9727 6.29687 6.4642 6.2866 5.10065C6.27629 3.95613 7.13588 3.37625 7.2712 3.28497C7.27943 3.27942 7.28499 3.27567 7.2875 3.27372C6.74056 2.43401 5.88733 2.34323 5.59198 2.32054ZM9.98395 9.52045V0.67517H13.1835C14.8353 0.67517 15.9894 1.8553 15.9894 3.5801C15.9894 5.3049 14.8134 6.49637 13.1398 6.49637H11.3075V9.52045H9.98395ZM11.3074 1.8326H12.8334C13.982 1.8326 14.6383 2.46805 14.6383 3.58577C14.6383 4.70348 13.982 5.34461 12.8279 5.34461H11.3074V1.8326ZM20.3595 8.45947C20.0094 9.15166 19.2382 9.58853 18.4069 9.58853C17.1763 9.58853 16.3176 8.82826 16.3176 7.68218C16.3176 6.54744 17.1489 5.89497 18.6858 5.79851L20.3376 5.69639V5.20845C20.3376 4.48789 19.8836 4.09641 19.0741 4.09641C18.4069 4.09641 17.9201 4.45385 17.8217 4.99852H16.6293C16.6676 3.85244 17.7068 3.01841 19.1124 3.01841C20.6275 3.01841 21.6119 3.84109 21.6119 5.11767V9.52045H20.3868V8.45947H20.3595ZM18.7623 8.5389C18.0567 8.5389 17.6083 8.18713 17.6083 7.64813C17.6083 7.09211 18.0403 6.76871 18.8662 6.71765L20.3375 6.62119V7.12048C20.3375 7.94884 19.6593 8.5389 18.7623 8.5389ZM25.6757 9.86656C25.1451 11.4155 24.538 11.9261 23.2472 11.9261C23.1488 11.9261 22.8206 11.9148 22.7441 11.8921V10.8311C22.8261 10.8424 23.0285 10.8538 23.1324 10.8538C23.7176 10.8538 24.0458 10.5985 24.2481 9.93464L24.3685 9.54316L22.126 3.10352H23.5098L25.0686 8.32899H25.0959L26.6547 3.10352H28.0002L25.6757 9.86656Z" fill="black" fill-opacity="0.55"/>
</svg>
