<svg width="44" height="44" viewBox="0 0 44 44" fill="none" xmlns="http://www.w3.org/2000/svg">
<path d="M30.4332 9.53325C32.0832 11.5499 31.5332 15.2166 31.5332 15.3999C30.2498 21.4499 26.2165 23.6499 20.8998 23.6499H18.1498C17.5998 23.6499 17.0498 24.1999 16.8665 24.7499L15.5832 33.3666H9.89984C9.53317 33.3666 9.1665 32.9999 9.1665 32.4499L13.0165 8.43325C13.1998 7.88325 13.5665 7.33325 14.2998 7.33325H23.4665C26.5832 7.33325 28.9665 8.06658 30.4332 9.53325ZM33.1832 16.1333C34.0998 17.4166 34.2832 19.2499 33.7332 21.2666C32.8165 26.7666 29.1498 28.5999 24.5665 28.5999C24.5665 28.5999 22.9165 28.4166 22.7332 29.5166V29.8833L21.8165 35.7499C21.8165 36.2999 21.2665 36.6666 20.7165 36.6666H17.0498L18.6998 25.4833H20.8998C27.6832 25.4833 31.7165 22.1833 33.1832 16.1333Z" fill="black" fill-opacity="0.5"/>
</svg>
