<svg width="23" height="23" viewBox="0 0 23 23" fill="none" xmlns="http://www.w3.org/2000/svg">
<path fill-rule="evenodd" clip-rule="evenodd" d="M11.5 3.36375C14.6756 3.36375 17.25 5.93813 17.25 9.11378V9.41822C17.25 10.6857 16.8522 11.9213 16.1126 12.9507L11.5113 19.3556C11.5057 19.3633 11.4942 19.3633 11.4886 19.3556L6.88729 12.9507C6.14775 11.9213 5.74994 10.6857 5.74994 9.41822V9.11378C5.74994 5.93813 8.32431 3.36375 11.5 3.36375ZM14.0248 8.53939C13.8497 7.77687 13.3311 7.1331 12.6254 6.79523C11.9173 6.45617 11.0826 6.45617 10.3745 6.79523C9.66884 7.1331 9.1502 7.77687 8.97515 8.53939C8.79949 9.30461 8.98526 10.1103 9.4765 10.7227C9.966 11.333 10.7176 11.6903 11.5 11.6903C12.2823 11.6903 13.0339 11.333 13.5234 10.7227C14.0147 10.1103 14.2004 9.30461 14.0248 8.53939Z" fill="#5A5A5A"/>
<path d="M16.1126 12.9507L17.3765 13.8587H17.3765L16.1126 12.9507ZM11.5113 19.3556L12.7752 20.2636L12.7752 20.2636L11.5113 19.3556ZM11.4886 19.3556L10.2247 20.2636L10.2248 20.2636L11.4886 19.3556ZM6.88729 12.9507L8.15117 12.0427H8.15117L6.88729 12.9507ZM12.6254 6.79523L11.9534 8.19885L12.6254 6.79523ZM14.0248 8.53939L15.5415 8.1912L14.0248 8.53939ZM10.3745 6.79523L11.0465 8.19885H11.0465L10.3745 6.79523ZM8.97515 8.53939L7.45839 8.1912L7.45839 8.1912L8.97515 8.53939ZM9.4765 10.7227L8.26253 11.6964V11.6964L9.4765 10.7227ZM13.5234 10.7227L12.3095 9.74903V9.74903L13.5234 10.7227ZM18.8062 9.11378C18.8062 5.07865 15.5351 1.80754 11.5 1.80754V4.91997C13.8161 4.91997 15.6938 6.7976 15.6938 9.11378H18.8062ZM18.8062 9.41822V9.11378H15.6938V9.41822H18.8062ZM17.3765 13.8587C18.3061 12.5647 18.8062 11.0115 18.8062 9.41822H15.6938C15.6938 10.3599 15.3982 11.2779 14.8488 12.0427L17.3765 13.8587ZM12.7752 20.2636L17.3765 13.8587L14.8488 12.0427L10.2475 18.4476L12.7752 20.2636ZM10.2248 20.2636C10.8513 21.1356 12.1487 21.1356 12.7752 20.2636L10.2475 18.4476C10.8628 17.5911 12.1371 17.5911 12.7525 18.4476L10.2248 20.2636ZM5.62342 13.8587L10.2247 20.2636L12.7525 18.4476L8.15117 12.0427L5.62342 13.8587ZM4.19372 9.41822C4.19372 11.0115 4.69379 12.5647 5.62342 13.8587L8.15117 12.0427C7.60171 11.2779 7.30615 10.3599 7.30615 9.41822H4.19372ZM4.19372 9.11378V9.41822H7.30615V9.11378H4.19372ZM11.5 1.80754C7.46484 1.80754 4.19372 5.07865 4.19372 9.11378H7.30615C7.30615 6.7976 9.18378 4.91997 11.5 4.91997V1.80754ZM11.9534 8.19885C12.235 8.33368 12.4399 8.59107 12.508 8.88759L15.5415 8.1912C15.2595 6.96267 14.4272 5.93251 13.2975 5.39162L11.9534 8.19885ZM11.0465 8.19885C11.3297 8.06325 11.6702 8.06325 11.9534 8.19885L13.2975 5.39162C12.1644 4.84909 10.8355 4.84909 9.70242 5.39162L11.0465 8.19885ZM10.4919 8.88758C10.56 8.59107 10.7649 8.33368 11.0465 8.19885L9.70242 5.39162C8.57275 5.93251 7.74042 6.96267 7.45839 8.1912L10.4919 8.88758ZM10.6905 9.74903C10.4958 9.50635 10.4231 9.1873 10.4919 8.88758L7.45839 8.1912C7.17587 9.42191 7.47471 10.7142 8.26253 11.6964L10.6905 9.74903ZM11.5 10.1341C11.1851 10.1341 10.8817 9.9875 10.6905 9.74903L8.26253 11.6964C9.05027 12.6786 10.2502 13.2465 11.5 13.2465V10.1341ZM12.3095 9.74903C12.1182 9.9875 11.8149 10.1341 11.5 10.1341V13.2465C12.7498 13.2465 13.9497 12.6786 14.7374 11.6964L12.3095 9.74903ZM12.508 8.88758C12.5768 9.1873 12.5041 9.50635 12.3095 9.74903L14.7374 11.6964C15.5252 10.7142 15.8241 9.42191 15.5415 8.1912L12.508 8.88758Z" fill="#5A5A5A"/>
</svg>
