<svg width="10" height="10" viewBox="0 0 10 10" fill="none" xmlns="http://www.w3.org/2000/svg">
<path d="M3.99199 0.747668C4.2943 -0.249209 5.7057 -0.249208 6.00801 0.74767L6.42871 2.1349C6.56336 2.57894 6.97272 2.88256 7.43672 2.88256H8.94459C9.94732 2.88256 10.3829 4.15116 9.59162 4.7671L8.24952 5.81185C7.90554 6.07961 7.76204 6.53158 7.88854 6.94873L8.37125 8.54047C8.66947 9.52386 7.52709 10.3086 6.7162 9.67735L5.64703 8.84507C5.26653 8.54887 4.73347 8.54887 4.35297 8.84507L3.2838 9.67735C2.47291 10.3086 1.33053 9.52386 1.62875 8.54046L2.11146 6.94873C2.23796 6.53158 2.09446 6.07961 1.75048 5.81185L0.408378 4.7671C-0.382877 4.15116 0.0526806 2.88256 1.05541 2.88256H2.56328C3.02728 2.88256 3.43664 2.57894 3.5713 2.1349L3.99199 0.747668Z" fill="#FBC02D"/>
</svg>
