<svg width="15" height="20" viewBox="0 0 15 20" fill="none" xmlns="http://www.w3.org/2000/svg">
<path fill-rule="evenodd" clip-rule="evenodd" d="M7.5 1.5C10.8137 1.5 13.5 4.18629 13.5 7.5V7.86139C13.5 9.18726 13.0857 10.48 12.3151 11.5589L7.51185 18.2834C7.50604 18.2915 7.49396 18.2915 7.48815 18.2834L2.68491 11.5589C1.91427 10.48 1.5 9.18726 1.5 7.8614L1.5 7.5C1.5 4.18629 4.18629 1.5 7.5 1.5ZM10.1351 6.93431C9.9521 6.13238 9.41385 5.45743 8.67275 5.10053C7.93164 4.74364 7.06835 4.74364 6.32725 5.10053C5.58615 5.45743 5.0479 6.13238 4.86486 6.93431C4.68182 7.73625 4.87392 8.5779 5.38678 9.221C5.89964 9.86411 6.67744 10.2387 7.5 10.2387C8.32256 10.2387 9.10036 9.86411 9.61322 9.221C10.1261 8.5779 10.3182 7.73625 10.1351 6.93431Z" fill="#21C6EA"/>
<path d="M12.3151 11.5589L11.0945 10.687V10.687L12.3151 11.5589ZM7.51185 18.2834L8.73245 19.1553L8.73245 19.1553L7.51185 18.2834ZM7.48815 18.2834L6.26755 19.1553L6.26755 19.1553L7.48815 18.2834ZM2.68491 11.5589L1.46431 12.4307L1.46431 12.4307L2.68491 11.5589ZM8.67275 5.10053L9.32357 3.74908L9.32357 3.74908L8.67275 5.10053ZM10.1351 6.93431L8.67274 7.2681L8.67275 7.2681L10.1351 6.93431ZM4.86486 6.93431L3.40247 6.60053H3.40247L4.86486 6.93431ZM5.38678 9.221L4.21403 10.1562H4.21403L5.38678 9.221ZM9.61322 9.221L10.786 10.1562H10.786L9.61322 9.221ZM15 7.5C15 3.35787 11.6421 0 7.5 0V3C9.98528 3 12 5.01472 12 7.5H15ZM15 7.86139V7.5H12V7.86139H15ZM13.5357 12.4307C14.488 11.0974 15 9.49989 15 7.86139H12C12 8.87462 11.6834 9.86253 11.0945 10.687L13.5357 12.4307ZM8.73245 19.1553L13.5357 12.4307L11.0945 10.687L6.29125 17.4115L8.73245 19.1553ZM6.26755 19.1553C6.87159 20.0009 8.12841 20.0009 8.73245 19.1553L6.29126 17.4115C6.88368 16.5822 8.11632 16.5822 8.70874 17.4115L6.26755 19.1553ZM1.46431 12.4307L6.26755 19.1553L8.70875 17.4115L3.90551 10.687L1.46431 12.4307ZM0 7.8614C0 9.49989 0.511958 11.0974 1.46431 12.4307L3.90551 10.687C3.31659 9.86253 3 8.87462 3 7.8614H0ZM0 7.5L0 7.8614H3V7.5H0ZM7.5 0C3.35786 0 0 3.35787 0 7.5H3C3 5.01472 5.01472 3 7.5 3V0ZM8.02192 6.45199C8.35174 6.61082 8.59129 6.9112 8.67274 7.2681L11.5975 6.60053C11.3129 5.35355 10.476 4.30404 9.32357 3.74908L8.02192 6.45199ZM6.97808 6.45199C7.3079 6.29315 7.6921 6.29315 8.02192 6.45199L9.32357 3.74908C8.17119 3.19412 6.82881 3.19412 5.67643 3.74908L6.97808 6.45199ZM6.32725 7.2681C6.40871 6.9112 6.64825 6.61082 6.97808 6.45199L5.67643 3.74908C4.52404 4.30404 3.68708 5.35355 3.40247 6.60053L6.32725 7.2681ZM6.55953 8.28577C6.33128 7.99956 6.24579 7.62499 6.32725 7.2681L3.40247 6.60053C3.11785 7.84751 3.41656 9.15624 4.21403 10.1562L6.55953 8.28577ZM7.5 8.73867C7.13392 8.73867 6.78777 8.57198 6.55953 8.28577L4.21403 10.1562C5.01151 11.1562 6.22095 11.7387 7.5 11.7387L7.5 8.73867ZM8.44047 8.28577C8.21222 8.57198 7.86607 8.73867 7.5 8.73867L7.5 11.7387C8.77905 11.7387 9.98849 11.1562 10.786 10.1562L8.44047 8.28577ZM8.67275 7.2681C8.7542 7.62499 8.66871 7.99956 8.44047 8.28577L10.786 10.1562C11.5834 9.15624 11.8821 7.84751 11.5975 6.60053L8.67275 7.2681Z" fill="#21C6EA"/>
</svg>
