<svg width="41" height="23" viewBox="0 0 41 23" fill="none" xmlns="http://www.w3.org/2000/svg">
<rect x="0.999833" y="10.185" width="38.9997" height="9.02494" fill="#49C7E6"/>
<rect x="6.99981" y="1.16007" width="19.9999" height="9.02494" rx="4.5" fill="#49C7E6"/>
<path d="M8.48249 16.4149C7.2529 16.4149 6.25263 17.4179 6.25263 18.6509C6.25263 19.8839 7.2529 20.887 8.48249 20.887C9.71208 20.887 10.7123 19.8838 10.7123 18.6509C10.7123 17.418 9.71208 16.4149 8.48249 16.4149ZM8.48249 19.5474C7.98948 19.5474 7.58846 19.1452 7.58846 18.6509C7.58846 18.1566 7.98948 17.7544 8.48249 17.7544C8.9755 17.7544 9.37652 18.1565 9.37652 18.6509C9.37652 19.1453 8.9755 19.5474 8.48249 19.5474Z" fill="white"/>
<path d="M31.7941 16.4149C30.5645 16.4149 29.5641 17.4179 29.5641 18.6509C29.5641 19.8839 30.5645 20.887 31.7941 20.887C33.0236 20.887 34.0238 19.8838 34.0238 18.6509C34.0238 17.418 33.0236 16.4149 31.7941 16.4149ZM31.7941 19.5474C31.301 19.5474 30.8999 19.1452 30.8999 18.6509C30.8999 18.1566 31.301 17.7544 31.7941 17.7544C32.287 17.7544 32.688 18.1565 32.688 18.6509C32.688 19.1453 32.287 19.5474 31.7941 19.5474Z" fill="white"/>
<path d="M36.4439 8.43394L30.4846 7.75122L27.304 2.56665C26.3329 0.983492 24.5781 0 22.7245 0H11.9046C8.79431 0 6.04544 2.10022 5.21981 5.1075L5.13538 5.41515C4.7251 6.90945 3.54619 8.09887 2.05861 8.51949C0.846561 8.86223 0 9.98352 0 11.2464V18.6596C0 19.0294 0.299048 19.3293 0.667916 19.3293H4.10163C4.52526 21.3653 6.32855 22.8995 8.48271 22.8995C10.6369 22.8995 12.4402 21.3653 12.8638 19.3293H27.4128C27.8364 21.3653 29.6397 22.8995 31.7939 22.8995C33.948 22.8995 35.7513 21.3653 36.1749 19.3293H39.7796C40.1192 19.3293 40.4048 19.0738 40.4433 18.7355L40.9664 14.1379C41.2874 11.3157 39.2587 8.75686 36.4439 8.43394ZM1.33583 17.176H4.18106C4.10599 17.4383 4.05372 17.7103 4.02753 17.9898H1.33583V17.176ZM8.48271 21.5599C6.75147 21.5599 5.34306 20.1476 5.34306 18.4116C5.34306 16.6755 6.75147 15.2631 8.48271 15.2631C10.2139 15.2631 11.6224 16.6755 11.6224 18.4116C11.6224 20.1476 10.2139 21.5599 8.48271 21.5599ZM31.7939 21.5599C30.0626 21.5599 28.6542 20.1476 28.6542 18.4116C28.6542 16.6755 30.0626 15.2631 31.7939 15.2631C33.5251 15.2631 34.9335 16.6755 34.9335 18.4116C34.9335 20.1476 33.5251 21.5599 31.7939 21.5599ZM31.7939 13.9236C30.2811 13.9236 28.9422 14.6808 28.1317 15.8364H16.2459C15.8771 15.8364 15.578 16.1363 15.578 16.5062C15.578 16.8761 15.8771 17.176 16.2459 17.176H27.4922C27.4171 17.4383 27.3649 17.7103 27.3387 17.9898H12.9379C12.7251 15.7122 10.8087 13.9236 8.48271 13.9236C6.96992 13.9236 5.63107 14.6808 4.82057 15.8364H1.33583V11.2464C1.33583 10.5806 1.78218 9.98941 2.42115 9.80875C4.35615 9.26169 5.88959 7.71443 6.4233 5.77066L6.50773 5.46301C7.17422 3.03522 9.39357 1.33954 11.9046 1.33954H22.7245C24.1176 1.33954 25.4364 2.0787 26.1662 3.26848L29.517 8.7306C29.6245 8.90581 29.8063 9.02173 30.0101 9.04513L36.2921 9.76482C37.7172 9.92833 38.8697 10.8664 39.3797 12.1113H37.2946C36.9258 12.1113 36.6267 12.4112 36.6267 12.7811C36.6267 13.151 36.9258 13.4509 37.2946 13.4509H39.6616C39.6662 13.6273 39.6595 13.8059 39.639 13.9861L39.4285 15.8364H35.4559C34.6455 14.6808 33.3066 13.9236 31.7939 13.9236ZM36.249 17.9898C36.2229 17.7103 36.1705 17.4383 36.0954 17.176H39.2761L39.1835 17.9898H36.249Z" fill="white"/>
<path d="M25.4713 3.69821C24.8897 2.7483 23.8373 2.15818 22.7247 2.15818H11.9045C9.7594 2.15818 7.86395 3.60641 7.29488 5.68056L7.2109 5.98758C6.99111 6.78737 6.6527 8.16121 6.63836 8.21935C6.58912 8.41921 6.63436 8.63067 6.7609 8.79285C6.88754 8.95493 7.08142 9.04968 7.28678 9.04968H27.5594C27.8013 9.04968 28.0244 8.9185 28.1424 8.70667C28.2605 8.49485 28.2551 8.2356 28.1282 8.02895L25.4713 3.69821ZM17.7536 3.49764V7.70996H11.6039V3.51112C11.7032 3.50237 11.8034 3.49764 11.9045 3.49764H17.7536ZM8.49891 6.34256L8.58298 6.03527C8.83768 5.10696 10.7973 3.94942 11.6039 3.51112V7.70996L8.14269 7.70987C8.25534 7.26407 8.39294 6.72843 8.49891 6.34256ZM19.0894 7.70996V3.49764H22.7247C23.3762 3.49764 23.9924 3.84306 24.3332 4.3996L26.3643 7.70996H19.0894Z" fill="white"/>
</svg>
