<svg width="16" height="22" viewBox="0 0 16 22" fill="none" xmlns="http://www.w3.org/2000/svg">
<path fill-rule="evenodd" clip-rule="evenodd" d="M8 1.5C11.5898 1.5 14.5 4.41015 14.5 8V8.39151C14.5 9.82786 14.0512 11.2283 13.2163 12.3971L8.01284 19.682C8.00655 19.6908 7.99345 19.6908 7.98716 19.682L2.78366 12.3971C1.9488 11.2283 1.5 9.82786 1.5 8.39151V8C1.5 4.41015 4.41015 1.5 8 1.5ZM10.8547 7.38718C10.6564 6.51841 10.0733 5.78722 9.27048 5.40058C8.46762 5.01394 7.53238 5.01394 6.72952 5.40058C5.92666 5.78722 5.34355 6.51841 5.14526 7.38718C4.94697 8.25594 5.15508 9.16773 5.71068 9.86442C6.26628 10.5611 7.10889 10.9669 8 10.9669C8.89111 10.9669 9.73372 10.5611 10.2893 9.86442C10.8449 9.16773 11.053 8.25594 10.8547 7.38718Z" fill="#2BA9D1"/>
<path d="M13.2163 12.3971L11.9957 11.5253V11.5253L13.2163 12.3971ZM8.01284 19.682L9.23341 20.5539L9.23344 20.5539L8.01284 19.682ZM7.98716 19.682L6.76656 20.5539L6.76659 20.5539L7.98716 19.682ZM2.78366 12.3971L1.56306 13.269H1.56306L2.78366 12.3971ZM9.27048 5.40058L9.9213 4.04913L9.9213 4.04913L9.27048 5.40058ZM10.8547 7.38718L12.3171 7.05339V7.05339L10.8547 7.38718ZM6.72952 5.40058L6.0787 4.04913V4.04913L6.72952 5.40058ZM5.71068 9.86442L4.53793 10.7997H4.53793L5.71068 9.86442ZM10.2893 9.86442L11.4621 10.7997L11.4621 10.7997L10.2893 9.86442ZM16 8C16 3.58172 12.4183 0 8 0V3C10.7614 3 13 5.23858 13 8L16 8ZM16 8.39151V8L13 8V8.39151L16 8.39151ZM14.4369 13.269C15.4535 11.8458 16 10.1405 16 8.39151L13 8.39151C13 9.51523 12.6489 10.6109 11.9957 11.5253L14.4369 13.269ZM9.23344 20.5539L14.4369 13.269L11.9957 11.5253L6.79224 18.8102L9.23344 20.5539ZM6.76659 20.5539C7.37111 21.4002 8.62889 21.4002 9.23341 20.5539L6.79227 18.8101C7.38421 17.9815 8.61579 17.9815 9.20773 18.8101L6.76659 20.5539ZM1.56306 13.269L6.76656 20.5539L9.20776 18.8102L4.00426 11.5253L1.56306 13.269ZM0 8.39151C0 10.1405 0.546484 11.8458 1.56306 13.269L4.00426 11.5253C3.35111 10.6109 3 9.51523 3 8.39151H0ZM0 8V8.39151H3V8H0ZM8 0C3.58172 0 0 3.58172 0 8H3C3 5.23857 5.23858 3 8 3V0ZM8.61965 6.75203C9.01123 6.94061 9.29563 7.29723 9.39234 7.72096L12.3171 7.05339C12.0173 5.73959 11.1354 4.63383 9.9213 4.04913L8.61965 6.75203ZM7.38035 6.75203C7.77193 6.56346 8.22807 6.56346 8.61965 6.75203L9.9213 4.04913C8.70716 3.46443 7.29284 3.46443 6.0787 4.04913L7.38035 6.75203ZM6.60766 7.72096C6.70437 7.29723 6.98877 6.94061 7.38035 6.75203L6.0787 4.04913C4.86456 4.63383 3.98274 5.73959 3.68287 7.05339L6.60766 7.72096ZM6.88343 8.92919C6.61245 8.58939 6.51094 8.14468 6.60766 7.72096L3.68287 7.05339C3.383 8.3672 3.69772 9.74606 4.53793 10.7997L6.88343 8.92919ZM8 9.4669C7.56538 9.4669 7.15441 9.26899 6.88343 8.92919L4.53793 10.7997C5.37814 11.8532 6.6524 12.4669 8 12.4669L8 9.4669ZM9.11657 8.92919C8.84559 9.26899 8.43462 9.4669 8 9.4669L8 12.4669C9.3476 12.4669 10.6219 11.8532 11.4621 10.7997L9.11657 8.92919ZM9.39234 7.72096C9.48905 8.14468 9.38755 8.58939 9.11657 8.92919L11.4621 10.7997C12.3023 9.74606 12.617 8.3672 12.3171 7.05339L9.39234 7.72096Z" fill="#2BA9D1"/>
</svg>
