<svg width="16" height="16" viewBox="0 0 16 16" fill="none" xmlns="http://www.w3.org/2000/svg">
<path d="M14.5414 6.53947H9.45452V1.45682C9.45452 0.652291 8.8054 0 8.00087 0C7.19635 0 6.54758 0.652291 6.54758 1.45717V6.543H1.45823C0.653701 6.543 -0.000351827 7.19529 5.72155e-07 8.00017C-0.000351827 8.40226 0.162104 8.77087 0.425347 9.03411C0.688941 9.29806 1.05262 9.46474 1.45435 9.46474H6.54758V14.5435C6.54758 14.946 6.70722 15.3103 6.97081 15.5732C7.23441 15.8368 7.59702 16 7.99946 16C8.80364 16 9.45452 15.3477 9.45452 14.5435V9.46439H14.5414C15.3459 9.46439 15.9982 8.80646 15.9979 8.00193C15.9975 7.19776 15.3452 6.53947 14.5414 6.53947Z" fill="white"/>
</svg>
