<svg width="44" height="44" viewBox="0 0 44 44" fill="none" xmlns="http://www.w3.org/2000/svg">
<path d="M44 12.1956H0V30.3695H44V12.1956Z" fill="#E6E6E6"/>
<path fill-rule="evenodd" clip-rule="evenodd" d="M2.86957 38.0218H41.1304C42.7154 38.0218 44 36.7372 44 35.1522V30.3696H0V35.1522C0 36.7372 1.28461 38.0218 2.86957 38.0218Z" fill="#E79800"/>
<path fill-rule="evenodd" clip-rule="evenodd" d="M41.1304 5.5H2.86957C1.28461 5.5 0 6.78461 0 8.36957V13.1522H44V8.36957C44 6.78461 42.7154 5.5 41.1304 5.5Z" fill="#1A1876"/>
<path fill-rule="evenodd" clip-rule="evenodd" d="M17.4448 26.3523H19.9404L21.5024 17.1926H19.0059L17.4448 26.3523Z" fill="#1A1876"/>
<path fill-rule="evenodd" clip-rule="evenodd" d="M26.5367 20.8703C25.6643 20.4465 25.1297 20.1634 25.1354 19.7349C25.1354 19.3542 25.5878 18.9467 26.5654 18.9467C27.365 18.9343 28.0097 19.0969 28.6583 19.403L28.9969 17.4172C28.5023 17.2317 27.7276 17.0327 26.7596 17.0327C24.2927 17.0327 22.5547 18.2752 22.5403 20.0553C22.526 21.3715 23.781 22.1061 24.7279 22.5442C25.6997 22.9928 26.0269 23.2798 26.0221 23.6805C26.0163 24.2946 25.2463 24.5749 24.528 24.5749C23.4203 24.5749 22.8617 24.4037 21.8564 23.9484L21.5063 25.9992C22.0898 26.2545 23.1678 26.4765 24.2879 26.4879C26.9126 26.4879 28.6162 25.2598 28.6353 23.3582C28.642 22.3165 27.9772 21.5236 26.5367 20.8703Z" fill="#1A1876"/>
<path d="M35.398 17.2012H33.4687C32.8708 17.2012 32.4241 17.3647 32.1611 17.9607L28.4536 26.3551H31.0754C31.0754 26.3551 31.504 25.2264 31.6015 24.9787C31.8885 24.9787 34.4347 24.9825 34.7992 24.9825C34.8738 25.3029 35.1034 26.3551 35.1034 26.3551H37.42L35.398 17.2012ZM32.3199 23.1058C32.4232 22.8418 33.4419 20.2257 33.6456 19.6709C33.9833 21.2501 33.6542 19.7178 34.3927 23.1058H32.3199Z" fill="#1A1876"/>
<path fill-rule="evenodd" clip-rule="evenodd" d="M15.3514 17.1991L12.9065 23.4452L12.6464 22.1759L11.7711 17.9662C11.62 17.3866 11.1819 17.2134 10.6396 17.1934H6.61262L6.58105 17.3837C7.56053 17.6209 8.43575 17.9634 9.20384 18.3881L11.4239 26.3434L14.0658 26.3406L17.9962 17.1981H15.3514V17.1991Z" fill="#1A1876"/>
</svg>
