<svg width="10" height="10" viewBox="0 0 10 10" fill="none" xmlns="http://www.w3.org/2000/svg">
<path d="M3.99198 0.74767C4.2943 -0.24921 5.7057 -0.249208 6.00802 0.747671L6.42871 2.13491C6.56336 2.57894 6.97272 2.88256 7.43672 2.88256H8.94459C9.94733 2.88256 10.3829 4.15117 9.59163 4.76711L8.24952 5.81186C7.90555 6.07962 7.76204 6.53159 7.88854 6.94874L8.37125 8.54048C8.66947 9.52388 7.52709 10.3086 6.7162 9.67737L5.64703 8.84509C5.26653 8.54889 4.73347 8.54889 4.35296 8.84509L3.2838 9.67737C2.47291 10.3086 1.33053 9.52387 1.62875 8.54048L2.11146 6.94874C2.23796 6.53159 2.09445 6.07962 1.75048 5.81186L0.40837 4.76711C-0.382886 4.15117 0.0526727 2.88256 1.05541 2.88256H2.56328C3.02728 2.88256 3.43664 2.57894 3.57129 2.13491L3.99198 0.74767Z" fill="#FBC02D"/>
</svg>
