<svg width="18" height="17" viewBox="0 0 18 17" fill="none" xmlns="http://www.w3.org/2000/svg">
<path d="M8.85629 1.01796L9.7339 1.06501L10.6005 1.20555L11.4451 1.43783L12.2572 1.75892L13.0265 2.16478L13.7434 2.65031L14.3988 3.2094L14.9845 3.83503L15.4932 4.51932L15.9184 5.25367L16.2548 6.02884L16.4981 6.83509L16.6453 7.66228L16.6946 8.5L16.6453 9.33772L16.4981 10.1649L16.2548 10.9712L15.9184 11.7463L15.4932 12.4807L14.9845 13.165L14.3988 13.7906L13.7434 14.3497L13.0265 14.8352L12.2572 15.2411L11.4451 15.5622L10.6005 15.7944L9.7339 15.935L8.85629 15.982L7.97867 15.935L7.1121 15.7944L6.26745 15.5622L5.45537 15.2411L4.68605 14.8352L3.96917 14.3497L3.31376 13.7906L2.72804 13.165L2.21939 12.4807L1.7942 11.7463L1.45782 10.9712L1.21449 10.1649L1.06725 9.33772L1.01796 8.5L1.06725 7.66228L1.21449 6.83509L1.45782 6.02884L1.7942 5.25367L2.21939 4.51932L2.72804 3.83503L3.31376 3.2094L3.96917 2.65031L4.68605 2.16478L5.45537 1.75892L6.26745 1.43783L7.1121 1.20555L7.97867 1.06501L8.85629 1.01796Z" fill="#C2CCDE" fill-opacity="0.25"/>
<path d="M8.85629 1.01796L8.91078 0.00145949C8.87448 -0.000486495 8.8381 -0.000486495 8.8018 0.00145949L8.85629 1.01796ZM9.7339 1.06501L9.89687 0.0601749C9.86095 0.0543485 9.82474 0.0504529 9.78839 0.0485048L9.7339 1.06501ZM10.6005 1.20555L10.8704 0.224028C10.8352 0.214346 10.7995 0.206566 10.7634 0.20072L10.6005 1.20555ZM11.4451 1.43783L11.8194 0.491176C11.7853 0.477679 11.7504 0.466038 11.715 0.456304L11.4451 1.43783ZM12.2572 1.75892L12.7322 0.858565C12.6995 0.841314 12.6659 0.825857 12.6315 0.812264L12.2572 1.75892ZM13.0265 2.16478L13.5974 1.32194C13.5665 1.30102 13.5345 1.28183 13.5015 1.26443L13.0265 2.16478ZM13.7434 2.65031L14.404 1.87584C14.3754 1.85141 14.3454 1.82858 14.3142 1.80747L13.7434 2.65031ZM14.3988 3.2094L15.1419 2.51368C15.1159 2.48591 15.0884 2.45962 15.0595 2.43494L14.3988 3.2094ZM14.9845 3.83503L15.8015 3.22774C15.7786 3.1969 15.7539 3.16737 15.7277 3.13931L14.9845 3.83503ZM15.4932 4.51932L16.3741 4.00925C16.3547 3.97565 16.3333 3.94319 16.3102 3.91203L15.4932 4.51932ZM15.9184 5.25367L16.8522 4.84844C16.8366 4.8125 16.819 4.7775 16.7993 4.7436L15.9184 5.25367ZM16.2548 6.02884L17.2293 5.73471C17.2179 5.69692 17.2043 5.65983 17.1886 5.62361L16.2548 6.02884ZM16.4981 6.83509L17.5003 6.6567C17.4933 6.61761 17.4841 6.57897 17.4726 6.54096L16.4981 6.83509ZM16.6453 7.66228L17.6615 7.60249C17.6592 7.56272 17.6545 7.52311 17.6475 7.48389L16.6453 7.66228ZM16.6946 8.5L17.7108 8.55979C17.7132 8.51996 17.7132 8.48004 17.7108 8.44021L16.6946 8.5ZM16.6453 9.33772L17.6475 9.51611C17.6545 9.47689 17.6592 9.43728 17.6615 9.39751L16.6453 9.33772ZM16.4981 10.1649L17.4726 10.459C17.4841 10.421 17.4933 10.3824 17.5003 10.3433L16.4981 10.1649ZM16.2548 10.9712L17.1886 11.3764C17.2043 11.3402 17.2179 11.3031 17.2293 11.2653L16.2548 10.9712ZM15.9184 11.7463L16.7993 12.2564C16.819 12.2225 16.8366 12.1875 16.8522 12.1516L15.9184 11.7463ZM15.4932 12.4807L16.3102 13.088C16.3333 13.0568 16.3547 13.0244 16.3741 12.9908L15.4932 12.4807ZM14.9845 13.165L15.7277 13.8607C15.7539 13.8326 15.7786 13.8031 15.8015 13.7723L14.9845 13.165ZM14.3988 13.7906L15.0595 14.5651C15.0884 14.5404 15.1159 14.5141 15.1419 14.4863L14.3988 13.7906ZM13.7434 14.3497L14.3142 15.1925C14.3454 15.1714 14.3754 15.1486 14.404 15.1242L13.7434 14.3497ZM13.0265 14.8352L13.5015 15.7356C13.5345 15.7182 13.5665 15.699 13.5974 15.6781L13.0265 14.8352ZM12.2572 15.2411L12.6315 16.1877C12.6659 16.1741 12.6995 16.1587 12.7322 16.1414L12.2572 15.2411ZM11.4451 15.5622L11.715 16.5437C11.7504 16.534 11.7853 16.5223 11.8194 16.5088L11.4451 15.5622ZM10.6005 15.7944L10.7634 16.7993C10.7995 16.7934 10.8352 16.7857 10.8704 16.776L10.6005 15.7944ZM9.7339 15.935L9.78839 16.9515C9.82474 16.9495 9.86095 16.9457 9.89687 16.9398L9.7339 15.935ZM8.85629 15.982L8.8018 16.9985C8.8381 17.0005 8.87448 17.0005 8.91078 16.9985L8.85629 15.982ZM7.97867 15.935L7.81571 16.9398C7.85163 16.9457 7.88784 16.9495 7.92418 16.9515L7.97867 15.935ZM7.1121 15.7944L6.84218 16.776C6.87738 16.7857 6.91309 16.7934 6.94913 16.7993L7.1121 15.7944ZM6.26745 15.5622L5.89316 16.5088C5.9273 16.5223 5.96214 16.534 5.99753 16.5437L6.26745 15.5622ZM5.45537 15.2411L4.98038 16.1414C5.01308 16.1587 5.04669 16.1741 5.08107 16.1877L5.45537 15.2411ZM4.68605 14.8352L4.1152 15.6781C4.14608 15.699 4.17808 15.7182 4.21106 15.7356L4.68605 14.8352ZM3.96917 14.3497L3.30853 15.1242C3.33717 15.1486 3.36715 15.1714 3.39833 15.1925L3.96917 14.3497ZM3.31376 13.7906L2.57064 14.4863C2.59663 14.5141 2.62417 14.5404 2.65311 14.5651L3.31376 13.7906ZM2.72804 13.165L1.91106 13.7723C1.93399 13.8031 1.95865 13.8326 1.98492 13.8607L2.72804 13.165ZM2.21939 12.4807L1.33844 12.9908C1.35789 13.0244 1.37925 13.0568 1.40241 13.088L2.21939 12.4807ZM1.7942 11.7463L0.86037 12.1516C0.875964 12.1875 0.89362 12.2225 0.913249 12.2564L1.7942 11.7463ZM1.45782 10.9712L0.48328 11.2653C0.494685 11.3031 0.508279 11.3402 0.523992 11.3764L1.45782 10.9712ZM1.21449 10.1649L0.212276 10.3433C0.219233 10.3824 0.228471 10.421 0.239942 10.459L1.21449 10.1649ZM1.06725 9.33772L0.0510431 9.39751C0.0533832 9.43728 0.0580564 9.47689 0.0650387 9.51611L1.06725 9.33772ZM1.01796 8.5L0.00175722 8.44021C-0.00058576 8.48004 -0.00058576 8.51996 0.00175722 8.55979L1.01796 8.5ZM1.06725 7.66228L0.0650387 7.48389C0.0580564 7.52311 0.0533832 7.56272 0.0510431 7.60249L1.06725 7.66228ZM1.21449 6.83509L0.239942 6.54096C0.228471 6.57897 0.219233 6.61761 0.212276 6.6567L1.21449 6.83509ZM1.45782 6.02884L0.523992 5.62361C0.508279 5.65983 0.494685 5.69692 0.48328 5.73471L1.45782 6.02884ZM1.7942 5.25367L0.913249 4.7436C0.89362 4.7775 0.875964 4.8125 0.86037 4.84844L1.7942 5.25367ZM2.21939 4.51932L1.40241 3.91203C1.37925 3.94319 1.35789 3.97565 1.33844 4.00925L2.21939 4.51932ZM2.72804 3.83503L1.98492 3.13931C1.95865 3.16737 1.93399 3.1969 1.91106 3.22774L2.72804 3.83503ZM3.31376 3.2094L2.65311 2.43494C2.62417 2.45962 2.59663 2.48591 2.57064 2.51368L3.31376 3.2094ZM3.96917 2.65031L3.39833 1.80747C3.36715 1.82858 3.33717 1.85141 3.30853 1.87584L3.96917 2.65031ZM4.68605 2.16478L4.21106 1.26443C4.17808 1.28183 4.14608 1.30102 4.1152 1.32194L4.68605 2.16478ZM5.45537 1.75892L5.08107 0.812264C5.04669 0.825857 5.01308 0.841314 4.98038 0.858565L5.45537 1.75892ZM6.26745 1.43783L5.99753 0.456304C5.96214 0.466038 5.9273 0.477679 5.89316 0.491176L6.26745 1.43783ZM7.1121 1.20555L6.94913 0.20072C6.91309 0.206566 6.87738 0.214346 6.84218 0.224028L7.1121 1.20555ZM7.97867 1.06501L7.92418 0.0485048C7.88784 0.0504529 7.85163 0.0543485 7.81571 0.0601749L7.97867 1.06501ZM8.8018 2.03447L9.67941 2.08151L9.78839 0.0485048L8.91078 0.00145949L8.8018 2.03447ZM9.57093 2.06984L10.4375 2.21039L10.7634 0.20072L9.89687 0.0601749L9.57093 2.06984ZM10.3306 2.18708L11.1752 2.41936L11.715 0.456304L10.8704 0.224028L10.3306 2.18708ZM11.0708 2.38449L11.8829 2.70557L12.6315 0.812264L11.8194 0.491176L11.0708 2.38449ZM11.7822 2.65927L12.5515 3.06513L13.5015 1.26443L12.7322 0.858565L11.7822 2.65927ZM12.4557 3.00762L13.1726 3.49315L14.3142 1.80747L13.5974 1.32194L12.4557 3.00762ZM13.0828 3.42478L13.7382 3.98387L15.0595 2.43494L14.404 1.87584L13.0828 3.42478ZM13.6557 3.90512L14.2414 4.53074L15.7277 3.13931L15.1419 2.51368L13.6557 3.90512ZM14.1676 4.44231L14.6762 5.1266L16.3102 3.91203L15.8015 3.22774L14.1676 4.44231ZM14.6122 5.02939L15.0374 5.76374L16.7993 4.7436L16.3741 4.00925L14.6122 5.02939ZM14.9845 5.65889L15.3209 6.43407L17.1886 5.62361L16.8522 4.84844L14.9845 5.65889ZM15.2802 6.32297L15.5235 7.12922L17.4726 6.54096L17.2293 5.73471L15.2802 6.32297ZM15.4959 7.01348L15.6431 7.84067L17.6475 7.48389L17.5003 6.6567L15.4959 7.01348ZM15.6291 7.72207L15.6784 8.55979L17.7108 8.44021L17.6615 7.60249L15.6291 7.72207ZM15.6784 8.44021L15.6291 9.27794L17.6615 9.39751L17.7108 8.55979L15.6784 8.44021ZM15.6431 9.15933L15.4959 9.98652L17.5003 10.3433L17.6475 9.51611L15.6431 9.15933ZM15.5235 9.87078L15.2802 10.677L17.2293 11.2653L17.4726 10.459L15.5235 9.87078ZM15.3209 10.5659L14.9845 11.3411L16.8522 12.1516L17.1886 11.3764L15.3209 10.5659ZM15.0374 11.2363L14.6122 11.9706L16.3741 12.9908L16.7993 12.2564L15.0374 11.2363ZM14.6762 11.8734L14.1676 12.5577L15.8015 13.7723L16.3102 13.088L14.6762 11.8734ZM14.2414 12.4693L13.6557 13.0949L15.1419 14.4863L15.7277 13.8607L14.2414 12.4693ZM13.7382 13.0161L13.0828 13.5752L14.404 15.1242L15.0595 14.5651L13.7382 13.0161ZM13.1726 13.5068L12.4557 13.9924L13.5974 15.6781L14.3142 15.1925L13.1726 13.5068ZM12.5515 13.9349L11.7822 14.3407L12.7322 16.1414L13.5015 15.7356L12.5515 13.9349ZM11.8829 14.2944L11.0708 14.6155L11.8194 16.5088L12.6315 16.1877L11.8829 14.2944ZM11.1752 14.5806L10.3306 14.8129L10.8704 16.776L11.715 16.5437L11.1752 14.5806ZM10.4375 14.7896L9.57093 14.9302L9.89687 16.9398L10.7634 16.7993L10.4375 14.7896ZM9.67941 14.9185L8.8018 14.9655L8.91078 16.9985L9.78839 16.9515L9.67941 14.9185ZM8.91078 14.9655L8.03317 14.9185L7.92418 16.9515L8.8018 16.9985L8.91078 14.9655ZM8.14164 14.9302L7.27507 14.7896L6.94913 16.7993L7.81571 16.9398L8.14164 14.9302ZM7.38202 14.8129L6.53737 14.5806L5.99753 16.5437L6.84218 16.776L7.38202 14.8129ZM6.64175 14.6155L5.82966 14.2944L5.08107 16.1877L5.89316 16.5088L6.64175 14.6155ZM5.93036 14.3407L5.16104 13.9349L4.21106 15.7356L4.98038 16.1414L5.93036 14.3407ZM5.25689 13.9924L4.54002 13.5068L3.39833 15.1925L4.1152 15.6781L5.25689 13.9924ZM4.62982 13.5752L3.9744 13.0161L2.65311 14.5651L3.30853 15.1242L4.62982 13.5752ZM4.05688 13.0949L3.47116 12.4693L1.98492 13.8607L2.57064 14.4863L4.05688 13.0949ZM3.54502 12.5577L3.03637 11.8734L1.40241 13.088L1.91106 13.7723L3.54502 12.5577ZM3.10034 11.9706L2.67516 11.2363L0.913249 12.2564L1.33844 12.9908L3.10034 11.9706ZM2.72804 11.3411L2.39166 10.5659L0.523992 11.3764L0.86037 12.1516L2.72804 11.3411ZM2.43237 10.677L2.18903 9.87078L0.239942 10.459L0.48328 11.2653L2.43237 10.677ZM2.2167 9.98652L2.06946 9.15933L0.0650387 9.51611L0.212276 10.3433L2.2167 9.98652ZM2.08346 9.27794L2.03417 8.44021L0.00175722 8.55979L0.0510431 9.39751L2.08346 9.27794ZM2.03417 8.55979L2.08346 7.72207L0.0510431 7.60249L0.00175722 8.44021L2.03417 8.55979ZM2.06946 7.84067L2.2167 7.01348L0.212276 6.6567L0.0650387 7.48389L2.06946 7.84067ZM2.18903 7.12922L2.43237 6.32297L0.48328 5.73471L0.239942 6.54096L2.18903 7.12922ZM2.39166 6.43407L2.72804 5.65889L0.86037 4.84844L0.523992 5.62361L2.39166 6.43407ZM2.67516 5.76374L3.10034 5.02939L1.33844 4.00925L0.913249 4.7436L2.67516 5.76374ZM3.03637 5.1266L3.54502 4.44231L1.91106 3.22774L1.40241 3.91203L3.03637 5.1266ZM3.47116 4.53074L4.05688 3.90512L2.57064 2.51368L1.98492 3.13931L3.47116 4.53074ZM3.9744 3.98387L4.62982 3.42478L3.30853 1.87584L2.65311 2.43494L3.9744 3.98387ZM4.54002 3.49315L5.2569 3.00762L4.1152 1.32194L3.39833 1.80747L4.54002 3.49315ZM5.16104 3.06513L5.93036 2.65927L4.98038 0.858565L4.21106 1.26443L5.16104 3.06513ZM5.82966 2.70557L6.64175 2.38449L5.89316 0.491176L5.08107 0.812264L5.82966 2.70557ZM6.53737 2.41936L7.38202 2.18708L6.84218 0.224028L5.99753 0.456304L6.53737 2.41936ZM7.27507 2.21039L8.14164 2.06984L7.81571 0.0601749L6.94913 0.20072L7.27507 2.21039ZM8.03317 2.08151L8.91078 2.03447L8.8018 0.00145949L7.92418 0.0485048L8.03317 2.08151Z" fill="#21C6EA"/>
</svg>
