<svg width="133" height="271" viewBox="0 0 133 271" fill="none" xmlns="http://www.w3.org/2000/svg">
<path d="M58.1703 267.492L57.173 267.391L57.0645 268.458L58.1364 268.494L58.1703 267.492ZM67.1923 178.776L68.1896 178.877L68.2179 178.599L68.098 178.346L67.1923 178.776ZM34.6128 110.108L35.5185 109.678L35.4936 109.626L35.4629 109.577L34.6128 110.108ZM24.9858 1.78723L25.4301 0.888647L23.633 -5.81968e-05L23.1886 0.898522L24.9858 1.78723ZM132.385 268.996L58.2041 266.49L58.1364 268.494L132.317 271L132.385 268.996ZM59.1676 267.593L68.1896 178.877L66.195 178.674L57.173 267.391L59.1676 267.593ZM68.098 178.346L35.5185 109.678L33.7071 110.538L66.2866 179.205L68.098 178.346ZM35.4629 109.577C30.0358 100.893 21.8456 87.5687 14.9136 75.8164C11.447 69.9393 8.29965 64.4631 5.97086 60.1603C4.80593 58.0079 3.85129 56.1591 3.16528 54.7056C2.45819 53.2074 2.09336 52.2433 2.01973 51.8015L0.0421196 52.1311C0.168974 52.8923 0.664583 54.1044 1.35217 55.5613C2.06083 57.0628 3.03512 58.9482 4.20765 61.1146C6.55381 65.4495 9.71561 70.9502 13.1867 76.835C20.1302 88.6068 28.33 101.947 33.7627 110.639L35.4629 109.577ZM2.01973 51.8015C1.99555 51.6564 1.99444 51.3784 2.06536 50.9277C2.13403 50.4914 2.26034 49.9521 2.44581 49.3123C2.81667 48.033 3.40405 46.4195 4.16665 44.5417C5.69051 40.7893 7.88117 36.0608 10.3409 30.989C15.2707 20.8243 21.2049 9.43292 24.9858 1.78723L23.1886 0.898522C19.4511 8.45657 13.4562 19.9711 8.53698 30.1142C6.07221 35.1963 3.85836 39.9723 2.30909 43.7873C1.53513 45.6932 0.918798 47.3791 0.520201 48.7541C0.320939 49.4415 0.17109 50.068 0.084843 50.616C0.000840508 51.1498 -0.0339439 51.6747 0.0421196 52.1311L2.01973 51.8015Z" fill="#21C6EA"/>
</svg>
