<svg width="22" height="22" viewBox="0 0 22 22" fill="none" xmlns="http://www.w3.org/2000/svg">
<path fill-rule="evenodd" clip-rule="evenodd" d="M10.9999 3.23605C14.0375 3.23605 16.4999 5.69848 16.4999 8.73604V9.06732C16.4999 10.2827 16.1202 11.4677 15.4138 12.4567L11.0108 18.6208C11.0055 18.6283 10.9944 18.6283 10.9891 18.6208L6.58611 12.4567C5.87969 11.4677 5.49994 10.2827 5.49994 9.06732V8.73604C5.49994 5.69848 7.96237 3.23605 10.9999 3.23605ZM13.4155 8.2175C13.2477 7.48239 12.7543 6.86369 12.0749 6.53654C11.3956 6.20938 10.6043 6.20938 9.92491 6.53654C9.24557 6.86369 8.75217 7.48239 8.58439 8.2175C8.41661 8.95261 8.5927 9.72412 9.06282 10.3136C9.53294 10.9031 10.2459 11.2465 10.9999 11.2465C11.7539 11.2465 12.4669 10.9031 12.937 10.3136C13.4072 9.72412 13.5833 8.95261 13.4155 8.2175Z" fill="white"/>
<path d="M15.4138 12.4567L14.1786 11.5744L15.4138 12.4567ZM11.0108 18.6208L9.77563 17.7386L9.7756 17.7386L11.0108 18.6208ZM10.9891 18.6208L9.7539 19.5031L9.75391 19.5031L10.9891 18.6208ZM6.58611 12.4567L5.35094 13.3389H5.35094L6.58611 12.4567ZM12.0749 6.53654L11.4164 7.90412L12.0749 6.53654ZM13.4155 8.2175L14.8953 7.87974V7.87973L13.4155 8.2175ZM9.92491 6.53654L10.5835 7.90412L9.92491 6.53654ZM9.06282 10.3136L10.2496 9.36723L9.06282 10.3136ZM12.937 10.3136L14.1238 11.26L14.1238 11.26L12.937 10.3136ZM18.0178 8.73604C18.0178 4.86017 14.8758 1.71814 10.9999 1.71814V4.75396C13.1992 4.75396 14.982 6.5368 14.982 8.73604H18.0178ZM18.0178 9.06732V8.73604H14.982L14.982 9.06732H18.0178ZM16.6489 13.3389C17.5392 12.0925 18.0178 10.5991 18.0178 9.06732H14.982C14.982 9.96633 14.7011 10.8429 14.1786 11.5744L16.6489 13.3389ZM12.246 19.5031L16.6489 13.3389L14.1786 11.5744L9.77563 17.7386L12.246 19.5031ZM9.75391 19.5031C10.3646 20.358 11.6353 20.3581 12.246 19.5031L9.7756 17.7386C10.3757 16.8984 11.6242 16.8985 12.2242 17.7385L9.75391 19.5031ZM5.35094 13.3389L9.7539 19.5031L12.2242 17.7386L7.82128 11.5744L5.35094 13.3389ZM3.98203 9.06732C3.98203 10.5991 4.46063 12.0925 5.35094 13.3389L7.82128 11.5744C7.29874 10.8429 7.01784 9.96633 7.01784 9.06732H3.98203ZM3.98203 8.73604V9.06732H7.01784V8.73604H3.98203ZM10.9999 1.71814C7.12405 1.71814 3.98203 4.86017 3.98203 8.73604H7.01784C7.01784 6.5368 8.80069 4.75396 10.9999 4.75396V1.71814ZM11.4164 7.90412C11.6795 8.03085 11.8706 8.27051 11.9356 8.55527L14.8953 7.87973C14.6247 6.69427 13.8291 5.69653 12.7335 5.16895L11.4164 7.90412ZM10.5835 7.90412C10.8467 7.77739 11.1532 7.77739 11.4164 7.90412L12.7335 5.16895C11.638 4.64137 10.3619 4.64137 9.26632 5.16895L10.5835 7.90412ZM10.0642 8.55527C10.1292 8.27051 10.3204 8.03085 10.5835 7.90412L9.26632 5.16895C8.17079 5.69653 7.37512 6.69427 7.10454 7.87973L10.0642 8.55527ZM10.2496 9.36723C10.0675 9.13887 9.99924 8.84002 10.0642 8.55527L7.10454 7.87973C6.83397 9.0652 7.11794 10.3094 7.87607 11.26L10.2496 9.36723ZM10.9999 9.72859C10.7079 9.72859 10.4317 9.59559 10.2496 9.36723L7.87607 11.26C8.6342 12.2107 9.78398 12.7644 10.9999 12.7644V9.72859ZM11.7503 9.36723C11.5682 9.59558 11.292 9.72859 10.9999 9.72859V12.7644C12.2159 12.7644 13.3657 12.2107 14.1238 11.26L11.7503 9.36723ZM11.9356 8.55527C12.0006 8.84002 11.9324 9.13887 11.7503 9.36723L14.1238 11.26C14.8819 10.3094 15.1659 9.0652 14.8953 7.87974L11.9356 8.55527Z" fill="white"/>
</svg>
