<svg width="360" height="123" viewBox="0 0 360 123" fill="none" xmlns="http://www.w3.org/2000/svg">
<path d="M0 86.8705C0 66.7695 16.4048 50.4744 36.6412 50.4744H323.359C343.595 50.4744 360 66.7695 360 86.8705V123H0V86.8705Z" fill="white"/>
<path d="M176.528 0.97523C178.796 -0.325076 181.589 -0.325077 183.856 0.975229L215.17 18.9332C217.437 20.2335 218.834 22.6365 218.834 25.2372V61.153C218.834 63.7537 217.437 66.1567 215.17 67.457L183.856 85.415C181.589 86.7153 178.796 86.7153 176.528 85.415L145.215 67.457C142.947 66.1567 141.55 63.7537 141.55 61.153V25.2372C141.55 22.6365 142.947 20.2335 145.215 18.9332L176.528 0.97523Z" fill="#21C6EA"/>
</svg>
