<svg width="68" height="21" viewBox="0 0 68 21" fill="none" xmlns="http://www.w3.org/2000/svg">
<rect width="68" height="21" rx="10.5" fill="#2BA9D1" fill-opacity="0.7"/>
<path d="M9.29962 16V14.4639H11.8659V7.43374L9.38998 8.96988V7.36145L11.9743 5.68072H13.9261V14.4639H16.2936V16H9.29962ZM24.6286 12.5663C24.6286 13.6627 24.2852 14.5361 23.5984 15.1867C22.9117 15.8253 21.978 16.1446 20.7972 16.1446C19.7611 16.1446 18.9298 15.9157 18.3033 15.4578C17.6888 14.988 17.3093 14.3072 17.1647 13.4157L19.2069 13.253C19.3153 13.6867 19.5081 14.006 19.7852 14.2108C20.0623 14.4157 20.4057 14.5181 20.8153 14.5181C21.3334 14.5181 21.743 14.3554 22.0442 14.0301C22.3454 13.6928 22.496 13.2169 22.496 12.6024C22.496 12.0602 22.3515 11.6265 22.0623 11.3012C21.7852 10.9759 21.3876 10.8133 20.8695 10.8133C20.3033 10.8133 19.8334 11.0361 19.4599 11.4819H17.4539L17.8153 5.68072H24.0141V7.21687H19.6768L19.5141 9.81928C20.0081 9.38554 20.6286 9.16265 21.3755 9.1506C22.3515 9.1506 23.1346 9.45783 23.7249 10.0723C24.3274 10.6867 24.6286 11.5181 24.6286 12.5663ZM38.4152 13.0181C38.4152 14.0301 38.0417 14.8072 37.2947 15.3494C36.5477 15.8795 35.4453 16.1446 33.9875 16.1446C32.6622 16.1446 31.626 15.9096 30.879 15.4398C30.132 14.9699 29.6501 14.259 29.4332 13.3072L31.5116 12.9639C31.6561 13.506 31.9332 13.9036 32.3429 14.1566C32.7525 14.4096 33.3248 14.5361 34.0598 14.5361C35.5658 14.5361 36.3188 14.0723 36.3188 13.1446C36.3188 12.8554 36.2284 12.6145 36.0477 12.4217C35.879 12.2289 35.6381 12.0723 35.3248 11.9518C35.0116 11.8193 34.4092 11.6627 33.5176 11.4819C32.7465 11.3012 32.2043 11.1566 31.8911 11.0482C31.5899 10.9398 31.3188 10.8133 31.0778 10.6687C30.8369 10.512 30.626 10.3313 30.4453 10.1265C30.2766 9.92169 30.1441 9.68072 30.0477 9.40361C29.9634 9.11446 29.9212 8.78313 29.9212 8.40964C29.9212 7.48193 30.2706 6.77108 30.9694 6.27711C31.6682 5.77108 32.6863 5.51807 34.0236 5.51807C35.3007 5.51807 36.2585 5.72289 36.8971 6.13253C37.5477 6.53012 37.9634 7.19277 38.1441 8.12048L36.0477 8.39157C35.9393 7.94578 35.7224 7.61446 35.3971 7.39759C35.0718 7.16867 34.6019 7.05422 33.9875 7.05422C32.6742 7.05422 32.0176 7.46386 32.0176 8.28313C32.0176 8.54819 32.0838 8.77108 32.2164 8.95181C32.361 9.12048 32.5658 9.26506 32.8308 9.38554C33.1079 9.50602 33.6682 9.65663 34.5116 9.83735C35.4995 10.0422 36.2043 10.2349 36.626 10.4157C37.0598 10.5964 37.3971 10.8072 37.6381 11.0482C37.8911 11.2771 38.0838 11.5542 38.2164 11.8795C38.3489 12.2048 38.4152 12.5843 38.4152 13.0181ZM47.2849 16L46.3813 13.3614H42.4416L41.5199 16H39.3693L43.1283 5.68072H45.6765L49.4355 16H47.2849ZM44.3934 7.27108L44.3572 7.43374C44.309 7.61446 44.2488 7.81928 44.1765 8.04819C44.1163 8.26506 43.7006 9.49398 42.9295 11.7349H45.8934L44.8632 8.77108L44.556 7.77711L44.3934 7.27108ZM57.9113 16L55.5077 12.0783H52.9776V16H50.827V5.68072H55.9776C57.2065 5.68072 58.1523 5.94578 58.8149 6.4759C59.4896 7.00602 59.827 7.76506 59.827 8.75301C59.827 9.4759 59.6222 10.1024 59.2125 10.6325C58.8029 11.1506 58.2487 11.494 57.5499 11.6627L60.333 16H57.9113ZM57.6583 8.84337C57.6583 7.85542 57.0198 7.36145 55.7427 7.36145H52.9776V10.3976H55.8149C56.4174 10.3976 56.8752 10.2651 57.1884 10C57.5017 9.72289 57.6583 9.33735 57.6583 8.84337Z" fill="white"/>
</svg>
