<svg width="360" height="800" viewBox="0 0 360 800" fill="none" xmlns="http://www.w3.org/2000/svg">
<path d="M0 62.9734V153.684L28.9496 81.153L0 62.9734Z" fill="#E0DBD5"/>
<path d="M0 0.0944214V40.9518L36.0244 63.5358L61.3146 0.0944214H0Z" fill="#E0DBD5"/>
<path d="M70.585 0.0944214L0 176.831V184.327L72.5367 0.0944214H70.585Z" fill="#E0DBD5"/>
<path d="M135.234 0.0941162C135.396 1.49976 135.478 2.81169 135.478 4.02992C135.478 7.02862 135.152 9.46507 134.339 11.6204C132.794 15.0876 132.713 15.931 123.28 36.4534C121.653 40.0144 121.084 43.2005 121.084 46.2929C121.003 54.5394 125.882 62.0361 129.297 66.1593L143.61 33.8296L172.153 0.0941162H135.234Z" fill="#E0DBD5"/>
<path d="M94.3305 0.0937095L62.3721 81.621L109.7 110.296L126.289 72.906C122.386 68.7828 114.904 59.3181 114.742 46.2925C114.742 42.0756 115.636 37.5775 117.669 33.0795C127.102 12.4634 127.021 12.1822 128.647 8.34015C128.728 8.24644 129.216 6.18483 129.135 3.9358C129.135 2.71758 129.054 1.31193 128.81 0H94.3305V0.0937095Z" fill="#E0DBD5"/>
<path d="M291.853 259.856L250.218 212.345L223.708 305.492L323.324 302.587L291.853 259.856Z" fill="#E0DBD5"/>
<path d="M14.8809 202.974L50.4987 220.685L94.8989 117.698L57.1668 94.8332L14.8809 202.974Z" fill="#E0DBD5"/>
<path d="M141.17 403.42C144.098 375.776 147.432 345.976 150.278 319.644L135.722 320.019L129.216 399.578L141.17 403.42Z" fill="#E0DBD5"/>
<path d="M132.144 280.849L135.64 230.527L127.346 215.721L118.645 220.781L0 303.245V311.867L130.273 308.118L131.656 288.345L106.284 277.756L108.398 270.915L132.144 280.849Z" fill="#E0DBD5"/>
<path d="M12.2792 209.535L0 241.021V276.724L42.6112 251.798L47.897 227.246L12.2792 209.535Z" fill="#E0DBD5"/>
<path d="M296.49 254.889L300.312 260.137L319.341 212.064C317.389 210.752 315.356 209.252 313.161 207.659C303.077 199.975 291.611 189.854 286.081 178.141C282.747 171.019 275.835 157.244 268.191 142.156L251.033 153.589L248.024 147.217L265.182 135.878C263.556 132.692 261.93 129.412 260.303 126.226L212.569 159.305L243.307 194.353L263.719 170.831L268.191 175.985L247.861 199.413L258.514 211.501L273.314 195.477L277.624 200.725L262.987 216.562L296.49 254.889Z" fill="#E0DBD5"/>
<path d="M333.002 90.8031L324.952 81.2447L265.67 122.29C267.296 125.569 269.004 128.849 270.63 132.129L333.002 90.8031Z" fill="#E0DBD5"/>
<path d="M242.412 76.9356C245.096 82.1833 252.252 96.0523 260.303 111.983L317.389 72.4375L281.852 30.6431L242.412 76.9356Z" fill="#E0DBD5"/>
<path d="M158.653 244.301L158.735 244.02C158.735 244.02 158.735 244.02 158.816 243.739C158.816 243.458 158.897 242.989 158.979 242.427C159.06 241.303 159.223 239.522 159.223 237.461C159.223 232.213 158.409 224.81 155.238 218.344C153.937 215.626 151.253 210.379 147.838 203.631L133.038 212.346L142.146 228.558L136.697 307.93L151.66 307.462C155.645 271.29 158.653 244.489 158.653 244.489V244.301Z" fill="#E0DBD5"/>
<path d="M273.883 21.2725L261.116 32.9862L226.962 0.0941162H180.936L148.814 38.2339L134.096 71.3134L204.762 150.498L254.936 115.732C247.617 101.394 241.112 88.7433 237.94 82.4648L204.111 122.01L199.639 116.95L277.461 25.4894L273.883 21.2725Z" fill="#E0DBD5"/>
<path d="M331.945 211.879L345.85 175.707L341.053 174.676L327.472 209.068C328.204 209.536 328.855 209.911 329.505 210.286C330.4 210.942 331.213 211.41 331.945 211.879Z" fill="#E0DBD5"/>
<path d="M359.836 122.571L337.474 96.2384L273.719 138.501C281.363 153.589 288.194 167.364 291.61 174.673C296.895 186.106 311.208 197.913 321.942 205.41L335.034 172.424L311.939 156.587L315.192 150.309L337.718 165.771L351.135 131.942L356.828 134.94L343.817 167.832L348.533 168.863L359.836 139.438V122.571Z" fill="#E0DBD5"/>
<path d="M359.838 157.339L350.161 182.36L359.838 187.326V157.339Z" fill="#E0DBD5"/>
<path d="M329.424 218.532C328.205 217.782 326.659 216.845 324.87 215.721L304.866 266.324L308.932 271.853L329.424 218.532Z" fill="#E0DBD5"/>
<path d="M246.803 423.379L254.122 382.053L237.777 379.898L229.482 411.947V412.04L223.464 409.979V409.791L233.06 371.933H233.223L241.599 339.697L241.111 317.206L240.623 317.113L236.394 317.206L234.28 338.478L226.311 369.59L220.293 367.528L228.1 336.979L230.051 317.3L182.886 318.612L176.218 410.822C193.132 414.102 214.438 418.038 234.768 421.224C238.671 421.88 242.737 422.629 246.803 423.379Z" fill="#E0DBD5"/>
<path d="M176.544 318.894L162.964 319.269C162.232 326.204 161.419 333.513 160.606 340.916C158.247 362.282 155.808 384.959 153.531 406.325C157.841 407.262 163.452 408.387 170.039 409.699L176.544 318.894Z" fill="#E0DBD5"/>
<path d="M113.602 210.19L141.25 190.98C137.103 182.921 132.549 174.112 128.158 165.585C118.806 147.405 110.024 130.537 107.178 125.196L100.51 121.166L56.272 223.497L74.8941 232.774L113.602 210.19Z" fill="#E0DBD5"/>
<path d="M205.9 501.719L200.94 536.017L242.006 541.171L246.153 516.619L206.388 501.813L205.9 501.719Z" fill="#E0DBD5"/>
<path d="M244.608 550.639L240.623 576.971L255.423 585.218L272.175 543.611L275.997 545.672L259.245 587.279L272.907 594.963L288.927 554.106L292.749 556.074L276.647 597.025L301.612 610.988L304.052 532.647L251.601 509.875L244.608 550.639Z" fill="#E0DBD5"/>
<path d="M199.151 154.341L131.087 78.0613L115.311 113.671L116.206 114.233L117.1 116.014C117.1 116.107 138.569 157.246 153.369 186.108L199.151 154.341Z" fill="#E0DBD5"/>
<path d="M323.407 383.177L342.679 389.924L323.488 382.708L323.407 383.177Z" fill="#E0DBD5"/>
<path d="M292.911 4.40394C307.955 22.771 324.219 39.4513 340.483 56.5064L340.564 56.4127L293.806 2.15491C293.724 2.52975 293.643 2.81087 293.562 3.092C293.399 3.56055 293.155 4.0291 292.911 4.40394Z" fill="#E0DBD5"/>
<path d="M153.694 554.575L151.661 605.553L162.313 571.911L195.329 590.653L200.371 561.228L154.832 547.265L153.694 554.575Z" fill="#E0DBD5"/>
<path d="M340.891 329.296L359.838 336.512V313.646L342.517 314.209L326.009 373.808L340.891 329.296Z" fill="#E0DBD5"/>
<path d="M359.837 456.085V434.344L355.771 432.845L359.837 418.413V403.607L321.454 390.113L311.371 426.566L305.353 424.317L305.678 423.099L317.307 381.023H317.388L335.848 314.302L312.347 314.958L287.788 416.726L281.689 414.759L305.76 315.239L272.744 316.176L265.751 364.437L259.57 363.218L266.32 316.364L247.454 316.926L247.942 340.728L239.647 372.87L261.685 375.869L253.065 424.598C293.074 432.751 340.158 447.463 359.837 456.085Z" fill="#E0DBD5"/>
<path d="M136.861 688.86L150.278 696.263V696.169L150.441 695.888C152.474 691.671 154.751 688.391 157.191 685.767L138.975 678.739L136.861 688.86Z" fill="#E0DBD5"/>
<path d="M359.838 284.221L356.829 283.565L355.528 287.688L355.203 301.745L359.838 301.557V284.221Z" fill="#E0DBD5"/>
<path d="M217.042 305.681L245.178 206.723L206.877 163.149L158.655 196.509C162.07 203.163 164.753 208.504 166.136 211.315C170.771 220.874 171.666 230.713 171.666 237.46C171.666 242.239 171.178 245.519 171.015 246.55C170.934 247.393 170.446 251.329 169.795 257.608L186.71 265.198L183.701 306.524L217.042 305.681Z" fill="#E0DBD5"/>
<path d="M359.838 195.196L347.64 189.011L313.404 277.941L331.457 302.399L348.86 301.837L349.266 286.281L355.772 265.853L359.838 267.539V195.196Z" fill="#E0DBD5"/>
<path d="M50.0928 247.392L67.6577 237.084L53.7521 230.243L50.0928 247.392Z" fill="#E0DBD5"/>
<path d="M164.347 307.181L177.439 306.806L180.123 270.072L169.063 265.105C167.843 275.788 166.217 290.407 164.347 307.181Z" fill="#E0DBD5"/>
<path d="M359.838 556.917L308.2 534.521L303.484 686.611L311.29 689.985L331.295 624.013L337.231 626.45L317.227 692.421L325.603 695.982L359.838 576.69V556.917Z" fill="#E0DBD5"/>
<path d="M359.837 57.2549L357.398 58.9416L359.837 61.7529V57.2549Z" fill="#E0DBD5"/>
<path d="M289.658 721.562L342.109 742.741L351.786 717.345L300.311 695.605L289.658 721.562Z" fill="#E0DBD5"/>
<path d="M359.837 720.814L357.723 719.877L348.127 745.179L359.837 749.958V720.814Z" fill="#E0DBD5"/>
<path d="M359.837 799.905V782.944L355.283 781.257C354.063 787.067 352.437 793.346 350.485 799.812H359.837V799.905Z" fill="#E0DBD5"/>
<path d="M278.761 748.365L332.595 767.951L340.483 747.241L287.869 725.969L278.761 748.365Z" fill="#E0DBD5"/>
<path d="M285.755 799.905L266.401 789.691L269.084 783.131L265.913 781.257L258.675 799.905H285.755Z" fill="#E0DBD5"/>
<path d="M343.899 799.906C346.176 792.503 348.046 785.475 349.347 779.196L336.987 774.698L327.391 800H343.899V799.906Z" fill="#E0DBD5"/>
<path d="M5.20443 799.904L0 795.968V799.904H5.20443Z" fill="#E0DBD5"/>
<path d="M226.066 714.068L222.813 724.845L274.695 746.773L283.884 724.376L275.102 720.721L270.548 731.685L226.066 714.068Z" fill="#E0DBD5"/>
<path d="M46.1898 799.905L42.6931 797.562C42.3678 798.312 42.1239 799.155 41.7986 799.905H46.1898Z" fill="#E0DBD5"/>
<path d="M142.227 664.401L149.464 637.975L148.082 637.506L142.227 664.401Z" fill="#E0DBD5"/>
<path d="M271.281 777.602L309.339 799.905H320.398L330.888 772.448L276.973 752.769L267.622 776.853L270.793 778.727L271.281 777.602Z" fill="#E0DBD5"/>
<path d="M223.871 799.904L203.379 788.377L199.882 799.904H223.871Z" fill="#E0DBD5"/>
<path d="M254.122 799.905L272.988 751.176L221.432 729.435L204.843 783.88L233.549 799.998H254.122V799.905ZM230.702 740.586L251.683 750.238L244.689 769.636L222.977 757.548L230.702 740.586Z" fill="#E0DBD5"/>
<path d="M133.039 799.906L127.021 796.345L126.858 799.906H133.039Z" fill="#E0DBD5"/>
<path d="M195.41 799.903L199.557 786.315L131.086 747.894L127.264 791.001L142.146 799.903H195.41Z" fill="#E0DBD5"/>
<path d="M244.202 623.45L233.793 618.015L219.806 652.968L235.338 659.434L244.202 623.45Z" fill="#E0DBD5"/>
<path d="M163.37 629.542L176.381 585.311L164.671 578.658L152.148 618.016L151.172 617.547L150.928 624.763L149.627 630.479L151.416 631.041L153.042 625.231L163.37 629.542Z" fill="#E0DBD5"/>
<path d="M359.837 755.111L346.419 749.676L338.612 770.199L359.837 777.883V755.111Z" fill="#E0DBD5"/>
<path d="M149.058 703.664L135.803 696.355L131.574 742.835L156.539 756.797L164.427 737.868L168.249 739.93L160.361 758.859L201.021 781.63L217.529 727.654L197.849 719.313L199.313 714.815L218.992 723.156L222.245 712.473L202.728 704.695L189.473 741.991L182.48 770.104L178.414 768.792L184.757 743.209C169.225 740.117 159.873 736.087 154.181 731.683C148.245 727.091 146.374 721.844 146.456 717.908C146.456 715.097 147.269 713.129 147.675 712.285L149.058 703.664Z" fill="#E0DBD5"/>
<path d="M100.998 422.819C74.7323 417.384 50.3366 405.951 24.3957 399.485C16.2638 397.424 8.13191 395.643 0 393.863V444.372C13.5803 449.62 24.965 458.803 24.965 458.803C37.4068 498.911 21.143 517.372 0 523.275V598.243L98.8028 612.393L98.6401 613.893C104.902 597.587 108.724 587.748 108.724 587.748C108.724 587.748 109.862 584.749 111.733 579.033C113.603 573.41 116.205 565.164 118.97 555.137C124.5 535.083 130.68 507.72 133.363 478.576C134.502 466.581 136.21 449.995 138.161 431.065C125.801 428.254 113.44 425.349 100.998 422.819Z" fill="#E0DBD5"/>
<path d="M51.5571 612.861L49.6054 674.803H48.7109L72.944 681.175C82.0518 657.279 90.265 635.726 96.5266 619.42L51.5571 612.861Z" fill="#E0DBD5"/>
<path d="M162.719 494.788L155.481 542.486L207.607 558.416L236.719 574.722L240.541 549.795L241.192 545.953L196.06 540.33L201.752 501.066L186.952 498.723L180.284 534.614L176.136 533.583L182.805 497.974L162.719 494.788Z" fill="#E0DBD5"/>
<path d="M0 323.954V359.095L123.036 397.704L129.379 320.3L0 323.954Z" fill="#E0DBD5"/>
<path d="M81.8071 0.0944214L0 207.755V217.501L85.0598 0.0944214H81.8071Z" fill="#E0DBD5"/>
<path d="M0 366.592V382.991C13.7429 386.083 27.5672 388.801 41.1475 392.643C65.7872 399.577 89.1258 409.979 114.172 415.04C122.548 416.726 130.924 418.601 139.3 420.381C139.625 417.195 139.95 413.915 140.357 410.635L0 366.592Z" fill="#E0DBD5"/>
<path d="M122.711 799.905L122.873 793.814L72.2929 763.64L74.2446 759.329L123.28 788.566L131.737 694.482L86.1985 682.487C82.0512 693.451 77.66 704.884 73.1874 716.691C63.917 741.056 54.3214 766.638 45.2136 790.909L58.55 799.999H122.711V799.905Z" fill="#E0DBD5"/>
<path d="M285.675 719.97L297.954 689.983L289.09 686.797L276.893 716.316L285.675 719.97Z" fill="#E0DBD5"/>
<path d="M235.094 613.328L245.503 618.857L253.879 589.713L239.892 581.841L235.094 613.328Z" fill="#E0DBD5"/>
<path d="M204.437 562.444L199.232 592.899L231.191 611.173L235.988 579.686L206.144 563.006L204.437 562.444Z" fill="#E0DBD5"/>
<path d="M151.498 714.067L151.254 714.442C151.254 714.442 151.254 714.442 151.172 714.536C151.091 714.723 151.01 714.911 150.928 715.192C150.684 715.848 150.522 716.691 150.522 717.816C150.603 720.159 151.335 723.532 156.458 727.655C161.418 731.497 170.364 735.621 186.058 738.619L190.287 726.812L189.474 728.405L155.889 713.88L158.816 690.734C157.271 692.608 155.726 694.951 154.344 697.762L151.498 714.067Z" fill="#E0DBD5"/>
<path d="M230.052 615.859L198.338 597.867L191.019 641.067L215.822 651.375L230.052 615.859Z" fill="#E0DBD5"/>
<path d="M194.515 595.618L180.122 587.466L167.273 631.228L187.034 639.381L194.515 595.618Z" fill="#E0DBD5"/>
<path d="M300.312 653.249L248.105 625.511L239.241 661.027L250.707 665.806L299.418 682.862L300.312 653.249Z" fill="#E0DBD5"/>
<path d="M301.45 615.297L301.124 616.141L275.102 601.616L266.32 629.916L300.474 648.002L301.45 615.297Z" fill="#E0DBD5"/>
<path d="M249.325 620.826L262.499 627.854L271.363 599.46L257.701 591.87L249.325 620.826Z" fill="#E0DBD5"/>
<path d="M52.9388 733.838C58.8751 718.189 64.73 702.633 70.3411 687.921L0 669.366V727.56L28.787 740.866L26.4287 747.614L0 735.338V744.427L41.1475 765.044C44.2376 756.891 47.3277 748.644 50.4179 740.492L17.7276 721.375L20.5737 714.909L52.9388 733.838Z" fill="#E0DBD5"/>
<path d="M174.104 438.185C166.297 436.873 158.491 435.28 150.684 433.686C148.732 452.147 147.106 468.359 145.967 480.073C140.194 541.078 120.433 593.086 120.271 593.461C120.271 593.461 116.855 602.27 111.244 616.982L145.642 628.977L146.699 624.011L149.464 553.916L165.565 446.525L169.713 447.368L163.37 489.912L183.699 493.192L183.781 492.536L188.66 449.055L192.807 449.711L187.928 493.286L187.847 493.942L202.403 496.284L208.339 455.521L212.486 456.27L206.632 496.94L207.363 497.034L246.966 511.746L255.179 463.392L259.326 464.329L252.414 504.906L304.296 527.49L309.419 472.576C291.854 467.422 274.696 460.862 257.131 455.24C229.807 446.618 201.996 442.964 174.104 438.185Z" fill="#E0DBD5"/>
<path d="M359.838 484.385C350.404 482.324 340.971 480.262 331.538 478.294C325.44 477.076 319.422 475.483 313.486 473.796L308.363 528.991V529.272L359.838 551.669V484.385Z" fill="#E0DBD5"/>
<path d="M359.838 599.834L331.539 698.51L354.796 708.35L359.838 692.231V599.834Z" fill="#E0DBD5"/>
<path d="M359.838 463.861C359.431 463.674 359.024 463.486 358.618 463.299C337.556 453.834 276.567 434.999 233.956 428.439C202.648 423.566 168.982 416.819 152.799 413.539C152.474 416.819 152.149 420.005 151.742 423.191C166.542 426.377 181.342 429.47 196.224 431.813C221.107 435.655 246.153 439.59 270.305 447.65C296.49 456.364 321.943 465.829 348.86 471.452C352.519 472.201 356.178 473.045 359.838 473.794V463.861Z" fill="#E0DBD5"/>
<path d="M312.834 0.0941162H312.265L310.313 4.21734L349.753 50.0413L359.837 43.2005V31.6742L347.151 39.6395L312.834 0.0941162Z" fill="#E0DBD5"/>
<path d="M0 605.552V661.872L43.3431 673.304L45.2948 612.018L0 605.552Z" fill="#E0DBD5"/>
<path d="M106.121 630.383C101.242 643.222 95.3053 658.684 88.7998 675.739L132.875 687.359L144.097 636.193L108.642 623.824C107.828 625.885 107.015 628.041 106.121 630.383Z" fill="#E0DBD5"/>
<path d="M28.1364 799.903C31.5518 790.719 35.1299 781.255 38.7079 771.696L19.9232 762.232L11.0594 787.252L5.20443 784.534L13.9869 759.42L0 752.298V787.252L16.5891 799.903H28.1364Z" fill="#E0DBD5"/>
<path d="M226.963 0.0941162L261.117 32.9862L273.884 21.2725L255.831 0.0941162H226.963Z" fill="#DCD8BA"/>
<path d="M312.834 0.0941162L347.151 39.6395L359.836 31.6742V2.62427L358.21 0.0941162H312.834Z" fill="#CCC2B8"/>
<path d="M239.078 661.775L250.707 665.805L239.241 661.026L239.078 661.775Z" fill="#CCC2B8"/>
<path d="M139.056 678.737L157.271 685.765C163.126 679.581 169.957 677.519 175.893 677.613C185.001 677.613 192.401 681.923 193.702 682.673L226.962 696.167L233.467 667.398L149.464 637.974L142.146 664.306L139.056 678.737Z" fill="#CCC2B8"/>
<path d="M226.068 714.066L270.55 731.683L275.104 720.719L229.646 702.352L226.068 714.066Z" fill="#CCC2B8"/>
<path d="M215.82 651.374L191.018 641.066L190.367 644.721L215.007 653.342L215.82 651.374Z" fill="#CCC2B8"/>
<path d="M276.892 716.315L289.09 686.797L237.534 668.805L230.947 697.761L276.892 716.315Z" fill="#CCC2B8"/>
<path d="M235.338 659.433L219.806 652.967L219.074 654.748L235.094 660.37L235.338 659.433Z" fill="#CCC2B8"/>
<path d="M163.37 629.54L153.042 625.229L151.416 631.039L161.825 634.694L163.37 629.54Z" fill="#CCC2B8"/>
<path d="M225.742 700.761L206.632 692.983L206.714 693.076L202.566 704.79L222.083 712.474L225.742 700.761Z" fill="#CCC2B8"/>
<path d="M189.393 728.498L190.206 726.905L202.81 691.483L192.076 687.172L191.914 686.985C191.914 686.985 190.125 685.86 187.197 684.736C184.27 683.517 180.204 682.393 175.894 682.393C170.201 682.487 164.102 684.267 158.817 690.827L155.889 713.973L189.393 728.498Z" fill="#CCC2B8"/>
<path d="M187.034 639.379L167.274 631.226L165.891 636.099L186.384 643.315L187.034 639.379Z" fill="#CCC2B8"/>
<path d="M251.682 750.238L230.702 740.586L222.977 757.454L244.689 769.542L251.682 750.238Z" fill="#CCC2B8"/>
<path d="M309.338 799.906L271.281 777.603L270.793 778.727L307.387 799.906H309.338Z" fill="#CCC2B8"/>
<path d="M298.034 799.904L269.085 783.13L266.401 789.689L285.755 799.904H298.034Z" fill="#CCC2B8"/>
<path d="M359.838 336.511L340.891 329.296L326.009 373.808L323.488 382.71L342.68 389.926L359.838 396.017V336.511Z" fill="#B4CD9B"/>
<path d="M24.965 458.707C24.965 458.707 13.499 449.524 0 444.276V523.18C21.143 517.37 37.4068 498.909 24.965 458.707Z" fill="#B4CD9B"/>
<path d="M114.253 415.133C89.1253 410.073 65.868 399.578 41.2283 392.737C27.5667 388.895 13.8238 386.177 0.0808105 383.085V393.861C8.21273 395.642 16.3446 397.422 24.4766 399.484C50.4174 406.043 74.8131 417.382 101.079 422.817C113.521 425.441 125.882 428.253 138.323 431.064C138.649 427.597 139.055 424.129 139.462 420.475C130.923 418.601 122.629 416.82 114.253 415.133Z" fill="#8BBBB9"/>
<path d="M359.838 79.0914L348.046 65.2224L334.141 74.8745L359.838 105.236V79.0914Z" fill="#8095B2"/>
<path d="M292.911 4.40475C293.236 4.02992 293.48 3.56137 293.562 3.18653C293.643 2.81169 293.724 2.53056 293.806 2.24944L292.017 0.0941162H270.548L326.577 66.0656L340.401 56.5073C324.138 39.5458 307.874 22.7718 292.911 4.40475Z" fill="#8BBBB9"/>
<path d="M359.837 473.888C356.178 473.139 352.518 472.295 348.859 471.546C321.942 465.923 296.571 456.458 270.305 447.743C246.153 439.684 221.106 435.748 196.223 431.906C181.26 429.564 166.46 426.565 151.741 423.285C151.335 426.846 151.009 430.407 150.603 433.781C158.409 435.467 166.216 436.967 174.023 438.279C201.915 442.964 229.808 446.712 257.05 455.427C274.614 461.05 291.773 467.516 309.338 472.764L309.419 472.295L313.566 472.764L313.485 473.982C319.421 475.669 325.439 477.168 331.538 478.48C340.971 480.448 350.404 482.51 359.837 484.571V473.888Z" fill="#8BBBB9"/>
<path d="M72.5367 0.0944214L0 184.327V207.755L81.8071 0.0944214H72.5367Z" fill="white"/>
<path d="M28.787 740.775L0 727.562V735.34L26.4287 747.523L28.787 740.775Z" fill="white"/>
<path d="M16.5891 799.905L0 787.255V795.97L5.20443 799.905H16.5891Z" fill="white"/>
<path d="M310.314 4.21764L312.266 0.0944214H292.017L293.806 2.15603L340.483 56.4139L340.402 56.5076L326.578 66.0659L270.549 0.0944214H255.83L273.883 21.2728L277.461 25.4897L199.639 116.95L204.111 122.011L237.94 82.4651C241.111 88.6499 247.617 101.394 254.936 115.732L204.762 150.498L134.095 71.3137L148.814 38.2342L180.935 0.0944214H172.153L143.61 33.9236L129.297 66.2534C125.882 62.1301 120.922 54.6334 121.084 46.3869C121.084 43.2945 121.653 40.1084 123.28 36.5474C132.713 16.025 132.794 15.1817 134.339 11.7144C135.234 9.55908 135.478 7.12264 135.478 4.12393C135.478 2.812 135.396 1.50006 135.234 0.188131H128.891C129.135 1.50006 129.216 2.90571 129.216 4.12393C129.216 6.27925 128.81 8.34086 128.728 8.52828C127.102 12.2767 127.183 12.6515 117.75 33.2676C115.636 37.7657 114.823 42.2637 114.823 46.4806C114.985 59.5063 122.467 68.9709 126.37 73.0942L109.781 110.484L62.3718 81.6217L94.3302 0.0944214H85.1412L0 217.501V241.022L12.2792 209.535L47.897 227.246L42.6112 251.705L0 276.725V303.151L118.645 220.687L127.264 215.626L135.559 230.432L132.144 280.754L108.398 270.915L106.284 277.756L131.656 288.345L130.273 308.118L0 311.866V323.955L129.379 320.206L123.036 397.61L0 359.096V366.592L140.357 410.636C140.032 413.916 139.625 417.196 139.3 420.382C138.893 423.943 138.568 427.504 138.161 430.971C136.21 449.806 134.502 466.487 133.363 478.482C130.599 507.625 124.418 535.082 118.97 555.042C116.205 565.069 113.603 573.222 111.733 578.938C109.862 584.561 108.724 587.653 108.724 587.653C108.724 587.653 104.902 597.586 98.6402 613.798L98.8028 612.299L0 598.242V605.552L45.2948 612.018L43.4244 673.304L0 661.871V669.274L70.4224 687.922C64.8114 702.635 58.9564 718.191 53.0201 733.84L20.6551 715.005L17.8089 721.47L50.4179 740.493C47.3278 748.646 44.2376 756.893 41.1475 765.045L0 744.429V752.301L14.0682 759.329L5.28575 784.537L11.1407 787.255L19.9232 762.328L38.7079 771.792C35.1299 781.351 31.5518 790.815 28.1364 799.999H41.8794C42.2046 799.249 42.4486 798.406 42.7739 797.656L46.2706 799.999H58.5498L45.2135 790.909C54.3212 766.638 63.9982 741.056 73.1872 716.691C77.6598 704.884 82.051 693.451 86.1983 682.487L131.737 694.482L123.28 788.66L74.2444 759.423L72.2927 763.733L122.873 793.908L122.711 799.999H126.939L127.021 796.438L133.038 799.999H142.146L127.183 791.097L131.086 747.99L199.557 786.317L195.41 799.905H199.883L203.379 788.379L223.872 799.905H233.467L204.762 783.787L221.351 729.342L272.907 751.083L254.041 799.812H258.676L265.914 781.163L269.004 782.944L297.953 799.718H307.386L270.793 778.727L267.621 776.853L276.973 752.769L330.888 772.448L320.398 799.905H327.31L336.905 774.604L349.266 779.102C347.965 785.474 346.094 792.502 343.817 799.812H350.486C352.437 793.346 354.064 787.067 355.283 781.257L359.837 782.944V777.884L338.613 770.106L346.42 749.583L359.837 755.018V749.864L348.127 745.085L357.723 719.784L359.837 720.721V692.139L354.796 708.257L331.457 698.418L359.837 599.835V576.689L325.602 695.981L317.226 692.42L337.231 626.449L331.294 624.106L311.371 689.984L303.564 686.704L308.281 534.52L359.919 557.01V551.856L308.444 529.46V529.178L313.567 473.984L313.648 472.765L309.501 472.297L309.419 472.765L304.296 527.679L252.415 505.095L259.327 464.519L255.18 463.582L246.966 511.936L207.364 497.13L206.632 497.036L212.487 456.366L208.34 455.616L202.403 496.38L187.847 493.944L187.929 493.381L192.808 449.806L188.66 449.151L183.781 492.632L183.7 493.288L163.37 490.008L169.713 447.464L165.566 446.62L149.465 554.011L146.7 624.106L145.643 629.073L111.245 617.078C116.856 602.459 120.271 593.557 120.271 593.557C120.434 593.182 140.194 541.08 145.968 480.168C147.106 468.455 148.733 452.243 150.684 433.782C151.01 430.315 151.416 426.848 151.823 423.287C152.148 420.101 152.473 416.914 152.88 413.635C169.063 417.008 202.81 423.755 234.037 428.534C276.648 435.094 337.637 453.93 358.699 463.394C359.105 463.582 359.512 463.769 359.919 463.957V456.179C340.239 447.557 293.156 432.845 253.147 424.692L261.848 375.87L239.81 372.871L248.105 340.729L247.617 316.926L266.483 316.364L259.733 363.219L265.914 364.437L272.907 316.177L305.923 315.24L281.852 414.853L287.951 416.821L312.51 315.052L336.011 314.396L317.551 381.117H317.47L305.841 423.193L305.516 424.411L311.534 426.66L321.617 390.207L360 403.701V396.111L342.842 390.114L323.569 383.366L323.732 382.898L326.171 373.995L342.679 314.303L360 313.834V301.745L355.365 301.839L355.771 287.876L357.072 283.753L360 284.409V277.006L359.187 276.819L360 274.382V267.729L355.934 266.042L349.428 286.565L348.859 301.839L331.457 302.308L313.485 277.849L347.721 188.919L359.919 195.104V187.139L350.323 182.266L359.919 157.245V139.347L348.615 168.772L343.899 167.741L356.91 134.849L351.217 131.85L337.8 165.679L315.274 150.217L312.022 156.496L335.116 172.333L322.024 205.412C311.29 197.915 296.978 186.014 291.692 174.675C288.276 167.46 281.364 153.591 273.802 138.503L337.556 96.2404L359.837 122.573V105.237L334.14 74.8746L348.046 65.2225L359.756 78.9979V61.7553L357.316 58.8503L359.756 57.1635V43.2008L349.672 50.0416L310.314 4.21764ZM72.9433 681.082L48.7102 674.709H49.6047L51.5564 612.861L96.5258 619.327C90.2643 635.726 82.051 657.186 72.9433 681.082ZM218.83 723.157L199.151 714.817L197.687 719.315L217.366 727.655L200.858 781.632L160.199 758.861L168.087 739.931L164.265 737.87L156.377 756.799L131.412 742.836L135.64 696.356L148.895 703.666L147.432 712.287C147.025 713.13 146.212 715.192 146.212 717.909C146.131 721.845 148.001 727.187 153.937 731.685C159.63 736.089 168.9 740.212 184.513 743.211L178.17 768.794L182.236 770.106L189.23 741.993L202.485 704.696L206.632 692.983L206.469 692.889L225.579 700.667L222.001 712.381L218.83 723.157ZM150.522 717.909C150.522 716.785 150.766 715.942 150.928 715.286C151.01 715.004 151.091 714.723 151.172 714.63C151.254 714.536 151.254 714.536 151.254 714.536L151.498 714.161L154.344 697.949C155.726 695.138 157.271 692.795 158.816 690.921C164.102 684.361 170.201 682.581 175.893 682.487C180.203 682.487 184.269 683.612 187.197 684.83C190.124 685.955 191.913 687.173 191.913 687.079L192.076 687.173L202.81 691.483L190.206 726.906L185.977 738.713C170.364 735.714 161.337 731.591 156.377 727.749C151.335 723.719 150.522 720.252 150.522 717.909ZM274.696 746.772L222.815 724.844L226.067 714.067L229.645 702.354L275.021 720.721L283.885 724.282L274.696 746.772ZM191.019 641.068L198.337 597.868L229.971 615.954L215.821 651.376L215.008 653.344L190.368 644.722L191.019 641.068ZM187.034 639.381L186.384 643.317L165.891 636.101L167.355 631.134L180.203 587.372L194.515 595.525L187.034 639.381ZM266.32 629.916L275.103 601.616L301.125 616.141L301.45 615.298L300.474 647.908L266.32 629.916ZM300.312 653.25L299.417 682.862L250.788 665.807L239.16 661.777L239.322 661.122L248.105 625.606L300.312 653.25ZM262.498 627.855L249.325 620.826L257.7 591.776L271.281 599.367L262.498 627.855ZM245.503 618.858L235.175 613.33L239.973 581.843L253.96 589.715L245.503 618.858ZM231.19 611.174L199.232 592.901L204.436 562.445L206.225 563.008L236.07 579.688L231.19 611.174ZM219.806 652.969L233.793 617.921L244.201 623.45L235.256 659.341L235.012 660.278L218.993 654.656L219.806 652.969ZM237.533 668.806L289.09 686.892L297.953 689.984L285.674 719.971L276.892 716.41L230.946 697.762L237.533 668.806ZM332.595 767.95L278.762 748.271L287.951 725.875L340.483 747.147L332.595 767.95ZM351.787 717.347L342.11 742.743L289.659 721.47L300.23 695.513L351.787 717.347ZM251.601 509.874L304.052 532.646L301.613 610.987L276.648 597.024L292.749 556.073L288.927 554.105L272.907 594.963L259.245 587.278L275.997 545.578L272.175 543.516L255.423 585.123L240.623 576.877L244.608 550.638L251.601 509.874ZM205.9 501.722L206.469 501.815L246.234 516.621L242.006 541.267L200.94 536.113L205.9 501.722ZM162.72 494.787L182.887 498.067L176.219 533.677L180.285 534.707L187.034 498.723L201.753 501.159L196.061 540.424L241.193 546.14L240.542 549.982L236.72 574.909L207.608 558.603L155.482 542.579L162.72 494.787ZM153.693 554.574L154.832 547.264L200.37 561.227L195.329 590.652L162.394 571.816L151.742 605.458L153.693 554.574ZM150.928 624.762L151.254 617.547L152.229 617.921L164.753 578.563L176.381 585.217L163.37 629.448L161.825 634.602L151.416 630.947L149.627 630.291L150.928 624.762ZM148.082 637.507L149.465 637.975L233.467 667.4L226.962 696.169L193.702 682.675C192.401 681.925 185.001 677.614 175.893 677.614C169.876 677.521 163.126 679.582 157.271 685.767C154.832 688.391 152.473 691.671 150.522 695.888L150.359 696.169V696.263L136.941 688.86L139.137 678.739L142.309 664.401L148.082 637.507ZM144.098 636.101L132.876 687.266L88.8005 675.74C95.3061 658.685 101.242 643.223 106.122 630.385C107.016 628.042 107.829 625.887 108.642 623.731L144.098 636.101ZM242.412 76.9362L281.852 30.6437L317.389 72.4382L260.303 111.984C252.171 96.053 245.096 82.184 242.412 76.9362ZM206.876 163.055L245.177 206.63L217.041 305.588L183.781 306.525L186.79 265.199L169.876 257.608C170.608 251.33 171.014 247.394 171.096 246.55C171.258 245.52 171.746 242.146 171.746 237.461C171.746 230.62 170.852 220.874 166.216 211.316C164.834 208.504 162.15 203.163 158.735 196.51L206.876 163.055ZM180.122 270.072L177.438 306.806L164.346 307.181C166.216 290.407 167.843 275.788 169.063 265.105L180.122 270.072ZM131.086 78.0608L199.151 154.34L153.368 186.108C138.568 157.245 117.1 116.013 117.1 116.013L116.205 114.233L115.311 113.67L131.086 78.0608ZM14.8814 202.976L57.1674 94.9285L94.8995 117.794L50.4992 220.687L14.8814 202.976ZM50.0926 247.394L53.8333 230.151L67.6575 237.086L50.0926 247.394ZM113.603 210.191L74.8949 232.869L56.2729 223.592L100.51 121.167L107.179 125.197C109.944 130.538 118.726 147.406 128.159 165.585C132.55 174.113 137.104 182.922 141.251 190.981L113.603 210.191ZM141.17 403.42L129.216 399.672L135.722 320.112L150.278 319.738C147.35 345.976 144.098 375.776 141.17 403.42ZM151.579 307.555L136.616 308.024L142.065 228.652L132.957 212.44L147.757 203.725C151.172 210.379 153.856 215.72 155.157 218.438C158.328 224.997 159.142 232.307 159.142 237.554C159.142 239.616 159.06 241.396 158.898 242.521C158.816 243.083 158.816 243.552 158.735 243.833C158.735 244.114 158.654 244.114 158.654 244.114L158.572 244.395V244.676C158.654 244.583 155.564 271.384 151.579 307.555ZM153.531 406.325C155.808 384.96 158.247 362.282 160.605 340.916C161.419 333.513 162.232 326.297 162.964 319.269L176.544 318.894L169.957 409.699C163.452 408.387 157.841 407.262 153.531 406.325ZM233.305 371.934H233.142L223.546 409.793V409.98L229.564 412.042V411.948L237.859 379.899L254.204 382.055L246.885 423.38C242.738 422.631 238.672 421.881 234.85 421.319C214.601 418.226 193.214 414.197 176.3 410.917L182.968 318.707L230.133 317.395L228.182 337.074L220.375 367.623L226.393 369.685L234.362 338.573L236.476 317.301L240.705 317.208L241.193 317.301L241.681 339.791L233.305 371.934ZM323.325 302.589L223.709 305.494L250.138 212.44L291.854 259.951L323.325 302.589ZM341.134 174.582L345.932 175.612L331.945 211.878C331.213 211.409 330.4 210.941 329.424 210.379C328.773 210.004 328.123 209.535 327.391 209.16L341.134 174.582ZM324.87 215.626C326.659 216.751 328.204 217.782 329.424 218.438L308.932 271.665L304.866 266.136L324.87 215.626ZM286.162 178.049C291.692 189.669 303.158 199.883 313.241 207.567C315.356 209.16 317.47 210.66 319.422 211.972L300.393 260.045L296.571 254.797L262.824 216.563L277.461 200.727L273.151 195.479L258.351 211.503L247.698 199.415L268.028 175.987L263.555 170.833L243.144 194.354L212.406 159.307L260.14 126.227C261.766 129.414 263.393 132.693 265.019 135.88L248.023 147.218L251.195 153.497L268.353 142.064C275.916 157.152 282.828 170.927 286.162 178.049ZM270.63 132.225C269.004 128.945 267.296 125.665 265.67 122.385L324.951 81.3406L333.002 90.899L270.63 132.225Z" fill="white"/>
<path d="M61.3147 0.0944214L36.0244 63.5358L0 40.9518V62.9735L28.9496 81.1532L0 153.684V176.831L70.585 0.0944214H61.3147Z" fill="white"/>
<path d="M359.837 434.345V418.414L355.69 432.845L359.837 434.345Z" fill="white"/>
</svg>
