<svg width="34" height="34" viewBox="0 0 34 34" fill="none" xmlns="http://www.w3.org/2000/svg">
<path d="M16.2918 29.7499C18.9536 29.7499 21.5557 28.9606 23.7689 27.4817C25.9821 26.0029 27.707 23.901 28.7257 21.4419C29.7443 18.9827 30.0108 16.2767 29.4915 13.666C28.9722 11.0554 27.6905 8.65732 25.8083 6.77515C23.9261 4.89297 21.5281 3.6112 18.9174 3.0919C16.3068 2.57261 13.6008 2.83913 11.1416 3.85776C8.68239 4.87638 6.58049 6.60137 5.10168 8.81457C3.62286 11.0278 2.83355 13.6298 2.83355 16.2916C2.83737 19.8598 4.25651 23.2807 6.77961 25.8038C9.3027 28.3269 12.7236 29.7461 16.2918 29.7499ZM15.3305 4.80495V6.67853C15.3305 6.93349 15.4318 7.178 15.6121 7.35828C15.7924 7.53856 16.0369 7.63984 16.2918 7.63984C16.5468 7.63984 16.7913 7.53856 16.9716 7.35828C17.1519 7.178 17.2531 6.93349 17.2531 6.67853V4.80495C19.9675 5.03504 22.5131 6.21786 24.4393 8.14411C26.3656 10.0704 27.5484 12.6159 27.7785 15.3303H25.9049C25.6499 15.3303 25.4054 15.4316 25.2251 15.6118C25.0449 15.7921 24.9436 16.0366 24.9436 16.2916C24.9436 16.5465 25.0449 16.7911 25.2251 16.9713C25.4054 17.1516 25.6499 17.2529 25.9049 17.2529H27.7785C27.5484 19.9673 26.3656 22.5128 24.4393 24.4391C22.5131 26.3653 19.9675 27.5481 17.2531 27.7782V25.9047C17.2531 25.6497 17.1519 25.4052 16.9716 25.2249C16.7913 25.0446 16.5468 24.9433 16.2918 24.9433C16.0369 24.9433 15.7924 25.0446 15.6121 25.2249C15.4318 25.4052 15.3305 25.6497 15.3305 25.9047V27.7782C12.6161 27.5481 10.0706 26.3653 8.14435 24.4391C6.2181 22.5128 5.03528 19.9673 4.80519 17.2529H6.67877C6.93373 17.2529 7.17824 17.1516 7.35852 16.9713C7.5388 16.7911 7.64008 16.5465 7.64008 16.2916C7.64008 16.0366 7.5388 15.7921 7.35852 15.6118C7.17824 15.4316 6.93373 15.3303 6.67877 15.3303H4.80519C5.03528 12.6159 6.2181 10.0704 8.14435 8.14411C10.0706 6.21786 12.6161 5.03504 15.3305 4.80495Z" fill="#5A5A5A"/>
<path d="M15.6121 19.8551C15.7924 20.0353 16.0368 20.1365 16.2917 20.1365C16.5467 20.1365 16.7911 20.0353 16.9714 19.8551L19.8553 16.9711C20.0355 16.7909 20.1368 16.5464 20.1368 16.2915C20.1368 16.0366 20.0355 15.7921 19.8553 15.6119L16.9714 12.7279C16.7911 12.5477 16.5467 12.4465 16.2917 12.4465C16.0368 12.4465 15.7924 12.5477 15.6121 12.7279L12.7282 15.6119C12.548 15.7921 12.4467 16.0366 12.4467 16.2915C12.4467 16.5464 12.548 16.7909 12.7282 16.9711L15.6121 19.8551ZM16.2917 14.7669L17.8164 16.2915L16.2917 17.8161L14.7671 16.2915L16.2917 14.7669Z" fill="#5A5A5A"/>
</svg>
