<svg width="23" height="23" viewBox="0 0 23 23" fill="none" xmlns="http://www.w3.org/2000/svg">
<path d="M17.0016 9.13322C17.0016 5.95757 14.4643 3.38319 11.3344 3.38319C8.20444 3.38319 5.66715 5.95757 5.66715 9.13322V9.47956C5.66715 10.7502 6.05845 11.989 6.78634 13.023L11.3232 19.4674C11.3286 19.4752 11.3401 19.4752 11.3455 19.4674L15.8824 13.023C16.6103 11.989 17.0016 10.7502 17.0016 9.47956V9.13322Z" fill="#C2CCDE" fill-opacity="0.25"/>
<path d="M10.2267 6.83372C10.9266 6.49169 11.7421 6.49169 12.4421 6.83372C13.142 7.17575 13.6504 7.82257 13.8233 8.5911C13.9962 9.35963 13.8148 10.1662 13.3304 10.7825C12.8459 11.3988 12.1113 11.7578 11.3344 11.7578C10.5574 11.7578 9.82276 11.3988 9.33835 10.7825C8.85393 10.1662 8.67249 9.35963 8.84537 8.5911C9.01826 7.82257 9.52666 7.17575 10.2267 6.83372Z" fill="#C2CCDE" fill-opacity="0.25"/>
<path d="M17.0016 9.13322C17.0016 5.95757 14.4643 3.38319 11.3344 3.38319C8.20444 3.38319 5.66715 5.95757 5.66715 9.13322V9.47956C5.66715 10.7502 6.05845 11.989 6.78634 13.023L11.3232 19.4674C11.3286 19.4752 11.3401 19.4752 11.3455 19.4674L15.8824 13.023C16.6103 11.989 17.0016 10.7502 17.0016 9.47956V9.13322Z" stroke="#5A5A5A" stroke-linecap="round" stroke-linejoin="round"/>
<path d="M10.2267 6.83372C10.9266 6.49169 11.7421 6.49169 12.4421 6.83372C13.142 7.17575 13.6504 7.82257 13.8233 8.5911C13.9962 9.35963 13.8148 10.1662 13.3304 10.7825C12.8459 11.3988 12.1113 11.7578 11.3344 11.7578C10.5574 11.7578 9.82276 11.3988 9.33835 10.7825C8.85393 10.1662 8.67249 9.35963 8.84537 8.5911C9.01826 7.82257 9.52666 7.17575 10.2267 6.83372Z" stroke="#5A5A5A" stroke-linecap="round" stroke-linejoin="round"/>
</svg>
