<svg width="23" height="23" viewBox="0 0 23 23" fill="none" xmlns="http://www.w3.org/2000/svg">
<g clip-path="url(#clip0_183_1650)">
<path d="M16.5476 14.4505L11.9712 11.2503V5.75012C11.9712 5.4909 11.7591 5.27881 11.4999 5.27881C11.2407 5.27881 11.0286 5.4909 11.0286 5.75012V11.5001C11.0286 11.6557 11.104 11.797 11.2312 11.8866L16.0103 15.2282C16.0904 15.2848 16.1847 15.313 16.279 15.313C16.4251 15.313 16.5712 15.2423 16.6654 15.1057C16.8116 14.8936 16.7597 14.6014 16.5476 14.4505Z" fill="black"/>
<path d="M19.6254 3.37459C17.448 1.19713 14.5635 0 11.5 0C8.43648 0 5.55205 1.19713 3.37459 3.37459C1.19713 5.55205 0 8.43648 0 11.5C0 14.5635 1.19713 17.448 3.37459 19.6254C5.55205 21.8029 8.43648 23 11.5 23C14.5635 23 17.448 21.8029 19.6254 19.6254C21.8029 17.448 23 14.5635 23 11.5C23 8.43648 21.8029 5.55205 19.6254 3.37459ZM11.9713 22.048V20.125C11.9713 19.8658 11.7592 19.6537 11.5 19.6537C11.2408 19.6537 11.0287 19.8658 11.0287 20.125V22.048C5.58033 21.8076 1.19242 17.4197 0.952049 11.9713H2.875C3.13422 11.9713 3.34631 11.7592 3.34631 11.5C3.34631 11.2408 3.13422 11.0287 2.875 11.0287H0.952049C1.19242 5.58033 5.58033 1.19242 11.0287 0.95205V2.875C11.0287 3.13422 11.2408 3.34631 11.5 3.34631C11.7592 3.34631 11.9713 3.13422 11.9713 2.875V0.95205C17.4197 1.19242 21.8076 5.58033 22.048 11.0287H20.125C19.8658 11.0287 19.6537 11.2408 19.6537 11.5C19.6537 11.7592 19.8658 11.9713 20.125 11.9713H22.048C21.8076 17.4197 17.4197 21.8076 11.9713 22.048Z" fill="black"/>
</g>
<defs>
<clipPath id="clip0_183_1650">
<rect width="23" height="23" fill="white"/>
</clipPath>
</defs>
</svg>
