<svg width="68" height="16" viewBox="0 0 68 16" fill="none" xmlns="http://www.w3.org/2000/svg">
<circle cx="60.2933" cy="7.70667" r="7.70667" fill="#78DEFF"/>
<mask id="path-2-inside-1_232_3127" fill="white">
<path d="M63.4613 11.1461L63.4017 11.1599C63.3323 11.1759 63.2627 11.1913 63.1929 11.2062C63.3565 11.0447 63.482 10.8502 63.5606 10.6363C63.6393 10.4224 63.6692 10.1942 63.6482 9.96777L63.1914 5.29657C63.1553 4.91349 62.974 4.55751 62.6831 4.29877C62.3921 4.04003 62.0128 3.89729 61.6197 3.89867H61.361V3.41669H61.6158C61.7508 3.41669 61.8841 3.38726 62.0059 3.33052C62.1278 3.27378 62.2352 3.19117 62.3204 3.08869C62.4055 2.98622 62.4662 2.86646 62.4981 2.73813C62.53 2.60979 62.5323 2.47611 62.5047 2.34682L62.4205 1.95146C62.3567 1.65661 62.1916 1.39207 61.9526 1.20192C61.7137 1.01178 61.4154 0.907517 61.1074 0.906516H59.4793C59.1713 0.907516 58.873 1.01177 58.634 1.20191C58.3951 1.39205 58.2299 1.65659 58.1661 1.95144L58.0819 2.34682C58.0544 2.47611 58.0566 2.60979 58.0885 2.73813C58.1204 2.86646 58.1811 2.98622 58.2663 3.08869C58.3514 3.19117 58.4588 3.27378 58.5807 3.33052C58.7026 3.38726 58.8358 3.41669 58.9708 3.41669H59.2256V3.89864H58.9671C58.574 3.89726 58.1946 4.04001 57.9037 4.29875C57.6128 4.55749 57.4315 4.91347 57.3954 5.29654L56.9385 9.96777C56.9172 10.1944 56.9471 10.4228 57.026 10.6368C57.1048 10.8509 57.2308 11.0453 57.3951 11.2064C57.3249 11.1914 57.2548 11.1759 57.1849 11.1598L57.1254 11.1461C56.7917 11.0691 56.4411 11.2238 56.2923 11.5139C56.24 11.6153 56.213 11.7274 56.2133 11.8409V12.3104C56.2137 12.6522 56.3526 12.98 56.5997 13.2217C56.8467 13.4635 57.1816 13.5995 57.531 13.5998H63.0557C63.405 13.5995 63.7399 13.4635 63.987 13.2218C64.234 12.98 64.3729 12.6523 64.3733 12.3104V11.8409C64.3736 11.7274 64.3466 11.6153 64.2944 11.5139C64.1456 11.2238 63.7952 11.0691 63.4613 11.1461ZM59.417 1.16756H61.1697V1.93001C61.1695 2.07236 61.1117 2.20882 61.0088 2.30948C60.906 2.41013 60.7665 2.46675 60.6211 2.46691H59.9656C59.8201 2.46675 59.6807 2.41013 59.5778 2.30948C59.475 2.20882 59.4171 2.07236 59.417 1.93001V1.16756ZM58.9708 3.15764C58.8752 3.15765 58.7808 3.1368 58.6944 3.09661C58.6081 3.05641 58.532 2.99789 58.4717 2.9253C58.4114 2.85271 58.3683 2.76787 58.3457 2.67695C58.3231 2.58604 58.3215 2.49134 58.341 2.39974L58.4252 2.00426C58.4647 1.82184 58.5528 1.65287 58.6804 1.51444C58.8081 1.37601 58.9709 1.27303 59.1523 1.21592V1.93001C59.1525 2.14104 59.2383 2.34335 59.3907 2.49257C59.5432 2.64179 59.7499 2.72572 59.9656 2.72596H60.6211C60.8367 2.72572 61.0434 2.64179 61.1959 2.49257C61.3484 2.34335 61.4341 2.14104 61.4344 1.93001V1.21595C61.6158 1.27306 61.7785 1.37603 61.9062 1.51446C62.0339 1.65289 62.1219 1.82186 62.1614 2.00428L62.2456 2.39974C62.2651 2.49134 62.2635 2.58604 62.2409 2.67695C62.2183 2.76787 62.1753 2.85271 62.115 2.9253C62.0546 2.99789 61.9785 3.05641 61.8922 3.09661C61.8059 3.1368 61.7115 3.15765 61.6158 3.15764H58.9708ZM61.0964 3.41669V3.89864H59.4904V3.41669H61.0964ZM57.202 9.99243L57.6588 5.32123C57.6888 5.00236 57.8398 4.70605 58.0819 4.49069C58.3241 4.27532 58.6399 4.15653 58.9671 4.15772H61.6198C61.947 4.15656 62.2628 4.27537 62.5049 4.49073C62.747 4.70609 62.898 5.00238 62.9279 5.32123L63.3847 9.99243C63.4112 10.2807 63.3385 10.5693 63.1784 10.8126C63.0182 11.0559 62.7797 11.2399 62.5006 11.3356C62.4807 11.3388 62.4609 11.3414 62.441 11.3445C62.1331 10.2517 62.0043 8.97258 62.0786 7.72594L62.1786 6.04902C62.1826 5.9876 62.1798 5.92593 62.1702 5.8651C62.0708 5.26072 61.4532 4.80153 60.712 4.80153H59.8747C59.1335 4.80153 58.5159 5.26072 58.4164 5.86513C58.4136 5.9266 58.4109 5.9876 58.4081 6.04905L58.508 7.7268C58.5773 8.94408 58.4462 10.1644 58.1199 11.341C58.1146 11.3401 58.1095 11.3395 58.1043 11.3386C57.8206 11.2471 57.5769 11.0642 57.413 10.8197C57.2491 10.5752 57.1748 10.2836 57.202 9.99243ZM61.1555 10.0176C61.0944 9.84123 60.9783 9.68801 60.8236 9.57952C60.6689 9.47102 60.4833 9.41271 60.293 9.41278C60.1026 9.41285 59.9171 9.4713 59.7625 9.57991C59.6079 9.68853 59.4919 9.84184 59.431 10.0183L58.9449 11.4459C58.7573 11.4277 58.5702 11.4057 58.3835 11.38C58.7112 10.1852 58.8425 8.94691 58.7723 7.7117L58.6761 6.09783C58.662 5.89261 58.7224 5.6891 58.8466 5.52318C59.0597 5.24455 59.4413 5.06047 59.8747 5.06047H60.712C61.1454 5.06047 61.5269 5.24455 61.74 5.52316C61.8642 5.68908 61.9246 5.89261 61.9105 6.09786L61.8143 7.71084C61.739 8.97354 61.868 10.2702 62.1772 11.3832C61.9991 11.4075 61.8206 11.4283 61.6417 11.4457L61.1555 10.0176ZM61.3708 11.4694C60.6536 11.5249 59.933 11.5249 59.2158 11.4695L59.6818 10.1008C59.7251 9.97579 59.8074 9.86719 59.917 9.79024C60.0266 9.7133 60.1581 9.67188 60.293 9.67181C60.4278 9.67174 60.5594 9.71302 60.6691 9.78984C60.7788 9.86667 60.8611 9.97519 60.9045 10.1002L61.3708 11.4694ZM64.1086 12.3104C64.1083 12.5836 63.9972 12.8455 63.7999 13.0387C63.6025 13.2318 63.3348 13.3405 63.0557 13.3408H57.531C57.2518 13.3405 56.9842 13.2318 56.7868 13.0387C56.5894 12.8455 56.4784 12.5836 56.478 12.3104V11.8409C56.4778 11.7677 56.4952 11.6955 56.5288 11.6301C56.5693 11.5552 56.6302 11.4928 56.7047 11.4496C56.7791 11.4064 56.8644 11.3841 56.9509 11.3853C57.0096 11.3869 57.0679 11.3959 57.1242 11.412C58.1629 11.6507 59.2264 11.771 60.2933 11.7705C61.3603 11.771 62.4237 11.6507 63.4624 11.412L63.522 11.3983C63.738 11.3485 63.9634 11.446 64.0578 11.6302C64.0914 11.6956 64.1088 11.7678 64.1086 11.841V12.3104Z"/>
</mask>
<path d="M63.4613 11.1461L63.4017 11.1599C63.3323 11.1759 63.2627 11.1913 63.1929 11.2062C63.3565 11.0447 63.482 10.8502 63.5606 10.6363C63.6393 10.4224 63.6692 10.1942 63.6482 9.96777L63.1914 5.29657C63.1553 4.91349 62.974 4.55751 62.6831 4.29877C62.3921 4.04003 62.0128 3.89729 61.6197 3.89867H61.361V3.41669H61.6158C61.7508 3.41669 61.8841 3.38726 62.0059 3.33052C62.1278 3.27378 62.2352 3.19117 62.3204 3.08869C62.4055 2.98622 62.4662 2.86646 62.4981 2.73813C62.53 2.60979 62.5323 2.47611 62.5047 2.34682L62.4205 1.95146C62.3567 1.65661 62.1916 1.39207 61.9526 1.20192C61.7137 1.01178 61.4154 0.907517 61.1074 0.906516H59.4793C59.1713 0.907516 58.873 1.01177 58.634 1.20191C58.3951 1.39205 58.2299 1.65659 58.1661 1.95144L58.0819 2.34682C58.0544 2.47611 58.0566 2.60979 58.0885 2.73813C58.1204 2.86646 58.1811 2.98622 58.2663 3.08869C58.3514 3.19117 58.4588 3.27378 58.5807 3.33052C58.7026 3.38726 58.8358 3.41669 58.9708 3.41669H59.2256V3.89864H58.9671C58.574 3.89726 58.1946 4.04001 57.9037 4.29875C57.6128 4.55749 57.4315 4.91347 57.3954 5.29654L56.9385 9.96777C56.9172 10.1944 56.9471 10.4228 57.026 10.6368C57.1048 10.8509 57.2308 11.0453 57.3951 11.2064C57.3249 11.1914 57.2548 11.1759 57.1849 11.1598L57.1254 11.1461C56.7917 11.0691 56.4411 11.2238 56.2923 11.5139C56.24 11.6153 56.213 11.7274 56.2133 11.8409V12.3104C56.2137 12.6522 56.3526 12.98 56.5997 13.2217C56.8467 13.4635 57.1816 13.5995 57.531 13.5998H63.0557C63.405 13.5995 63.7399 13.4635 63.987 13.2218C64.234 12.98 64.3729 12.6523 64.3733 12.3104V11.8409C64.3736 11.7274 64.3466 11.6153 64.2944 11.5139C64.1456 11.2238 63.7952 11.0691 63.4613 11.1461ZM59.417 1.16756H61.1697V1.93001C61.1695 2.07236 61.1117 2.20882 61.0088 2.30948C60.906 2.41013 60.7665 2.46675 60.6211 2.46691H59.9656C59.8201 2.46675 59.6807 2.41013 59.5778 2.30948C59.475 2.20882 59.4171 2.07236 59.417 1.93001V1.16756ZM58.9708 3.15764C58.8752 3.15765 58.7808 3.1368 58.6944 3.09661C58.6081 3.05641 58.532 2.99789 58.4717 2.9253C58.4114 2.85271 58.3683 2.76787 58.3457 2.67695C58.3231 2.58604 58.3215 2.49134 58.341 2.39974L58.4252 2.00426C58.4647 1.82184 58.5528 1.65287 58.6804 1.51444C58.8081 1.37601 58.9709 1.27303 59.1523 1.21592V1.93001C59.1525 2.14104 59.2383 2.34335 59.3907 2.49257C59.5432 2.64179 59.7499 2.72572 59.9656 2.72596H60.6211C60.8367 2.72572 61.0434 2.64179 61.1959 2.49257C61.3484 2.34335 61.4341 2.14104 61.4344 1.93001V1.21595C61.6158 1.27306 61.7785 1.37603 61.9062 1.51446C62.0339 1.65289 62.1219 1.82186 62.1614 2.00428L62.2456 2.39974C62.2651 2.49134 62.2635 2.58604 62.2409 2.67695C62.2183 2.76787 62.1753 2.85271 62.115 2.9253C62.0546 2.99789 61.9785 3.05641 61.8922 3.09661C61.8059 3.1368 61.7115 3.15765 61.6158 3.15764H58.9708ZM61.0964 3.41669V3.89864H59.4904V3.41669H61.0964ZM57.202 9.99243L57.6588 5.32123C57.6888 5.00236 57.8398 4.70605 58.0819 4.49069C58.3241 4.27532 58.6399 4.15653 58.9671 4.15772H61.6198C61.947 4.15656 62.2628 4.27537 62.5049 4.49073C62.747 4.70609 62.898 5.00238 62.9279 5.32123L63.3847 9.99243C63.4112 10.2807 63.3385 10.5693 63.1784 10.8126C63.0182 11.0559 62.7797 11.2399 62.5006 11.3356C62.4807 11.3388 62.4609 11.3414 62.441 11.3445C62.1331 10.2517 62.0043 8.97258 62.0786 7.72594L62.1786 6.04902C62.1826 5.9876 62.1798 5.92593 62.1702 5.8651C62.0708 5.26072 61.4532 4.80153 60.712 4.80153H59.8747C59.1335 4.80153 58.5159 5.26072 58.4164 5.86513C58.4136 5.9266 58.4109 5.9876 58.4081 6.04905L58.508 7.7268C58.5773 8.94408 58.4462 10.1644 58.1199 11.341C58.1146 11.3401 58.1095 11.3395 58.1043 11.3386C57.8206 11.2471 57.5769 11.0642 57.413 10.8197C57.2491 10.5752 57.1748 10.2836 57.202 9.99243ZM61.1555 10.0176C61.0944 9.84123 60.9783 9.68801 60.8236 9.57952C60.6689 9.47102 60.4833 9.41271 60.293 9.41278C60.1026 9.41285 59.9171 9.4713 59.7625 9.57991C59.6079 9.68853 59.4919 9.84184 59.431 10.0183L58.9449 11.4459C58.7573 11.4277 58.5702 11.4057 58.3835 11.38C58.7112 10.1852 58.8425 8.94691 58.7723 7.7117L58.6761 6.09783C58.662 5.89261 58.7224 5.6891 58.8466 5.52318C59.0597 5.24455 59.4413 5.06047 59.8747 5.06047H60.712C61.1454 5.06047 61.5269 5.24455 61.74 5.52316C61.8642 5.68908 61.9246 5.89261 61.9105 6.09786L61.8143 7.71084C61.739 8.97354 61.868 10.2702 62.1772 11.3832C61.9991 11.4075 61.8206 11.4283 61.6417 11.4457L61.1555 10.0176ZM61.3708 11.4694C60.6536 11.5249 59.933 11.5249 59.2158 11.4695L59.6818 10.1008C59.7251 9.97579 59.8074 9.86719 59.917 9.79024C60.0266 9.7133 60.1581 9.67188 60.293 9.67181C60.4278 9.67174 60.5594 9.71302 60.6691 9.78984C60.7788 9.86667 60.8611 9.97519 60.9045 10.1002L61.3708 11.4694ZM64.1086 12.3104C64.1083 12.5836 63.9972 12.8455 63.7999 13.0387C63.6025 13.2318 63.3348 13.3405 63.0557 13.3408H57.531C57.2518 13.3405 56.9842 13.2318 56.7868 13.0387C56.5894 12.8455 56.4784 12.5836 56.478 12.3104V11.8409C56.4778 11.7677 56.4952 11.6955 56.5288 11.6301C56.5693 11.5552 56.6302 11.4928 56.7047 11.4496C56.7791 11.4064 56.8644 11.3841 56.9509 11.3853C57.0096 11.3869 57.0679 11.3959 57.1242 11.412C58.1629 11.6507 59.2264 11.771 60.2933 11.7705C61.3603 11.771 62.4237 11.6507 63.4624 11.412L63.522 11.3983C63.738 11.3485 63.9634 11.446 64.0578 11.6302C64.0914 11.6956 64.1088 11.7678 64.1086 11.841V12.3104Z" fill="white" stroke="black" stroke-width="30" mask="url(#path-2-inside-1_232_3127)"/>
<circle cx="42.16" cy="7.70667" r="7.70667" fill="#78DEFF"/>
<mask id="path-4-inside-2_232_3127" fill="white">
<path d="M45.3279 11.1461L45.2684 11.1599C45.1989 11.1759 45.1293 11.1913 45.0596 11.2062C45.2231 11.0447 45.3487 10.8502 45.4273 10.6363C45.506 10.4224 45.5358 10.1942 45.5149 9.96777L45.058 5.29657C45.022 4.91349 44.8407 4.55751 44.5497 4.29877C44.2588 4.04003 43.8795 3.89729 43.4863 3.89867H43.2277V3.41669H43.4825C43.6175 3.41669 43.7508 3.38726 43.8726 3.33052C43.9945 3.27378 44.1019 3.19117 44.1871 3.08869C44.2722 2.98622 44.3329 2.86646 44.3648 2.73813C44.3967 2.60979 44.399 2.47611 44.3714 2.34682L44.2872 1.95146C44.2234 1.65661 44.0583 1.39207 43.8193 1.20192C43.5804 1.01178 43.2821 0.907517 42.9741 0.906516H41.3459C41.038 0.907516 40.7396 1.01177 40.5007 1.20191C40.2617 1.39205 40.0966 1.65659 40.0328 1.95144L39.9486 2.34682C39.921 2.47611 39.9233 2.60979 39.9552 2.73813C39.9871 2.86646 40.0478 2.98622 40.133 3.08869C40.2181 3.19117 40.3255 3.27378 40.4474 3.33052C40.5693 3.38726 40.7025 3.41669 40.8375 3.41669H41.0923V3.89864H40.8338C40.4407 3.89726 40.0613 4.04001 39.7704 4.29875C39.4795 4.55749 39.2982 4.91347 39.2621 5.29654L38.8052 9.96777C38.7839 10.1944 38.8137 10.4228 38.8926 10.6368C38.9715 10.8509 39.0975 11.0453 39.2617 11.2064C39.1916 11.1914 39.1215 11.1759 39.0516 11.1598L38.9921 11.1461C38.6584 11.0691 38.3078 11.2238 38.159 11.5139C38.1067 11.6153 38.0797 11.7274 38.08 11.8409V12.3104C38.0804 12.6522 38.2193 12.98 38.4664 13.2217C38.7134 13.4635 39.0483 13.5995 39.3976 13.5998H44.9224C45.2717 13.5995 45.6066 13.4635 45.8536 13.2218C46.1007 12.98 46.2396 12.6523 46.24 12.3104V11.8409C46.2403 11.7274 46.2133 11.6153 46.1611 11.5139C46.0122 11.2238 45.6619 11.0691 45.3279 11.1461ZM41.2837 1.16756H43.0364V1.93001C43.0362 2.07236 42.9784 2.20882 42.8755 2.30948C42.7727 2.41013 42.6332 2.46675 42.4877 2.46691H41.8323C41.6868 2.46675 41.5474 2.41013 41.4445 2.30948C41.3417 2.20882 41.2838 2.07236 41.2837 1.93001V1.16756ZM40.8375 3.15764C40.7419 3.15765 40.6475 3.1368 40.5611 3.09661C40.4748 3.05641 40.3987 2.99789 40.3384 2.9253C40.278 2.85271 40.235 2.76787 40.2124 2.67695C40.1898 2.58604 40.1882 2.49134 40.2077 2.39974L40.2919 2.00426C40.3314 1.82184 40.4195 1.65287 40.5471 1.51444C40.6748 1.37601 40.8376 1.27303 41.0189 1.21592V1.93001C41.0192 2.14104 41.1049 2.34335 41.2574 2.49257C41.4099 2.64179 41.6166 2.72572 41.8323 2.72596H42.4877C42.7034 2.72572 42.9101 2.64179 43.0626 2.49257C43.2151 2.34335 43.3008 2.14104 43.3011 1.93001V1.21595C43.4825 1.27306 43.6452 1.37603 43.7729 1.51446C43.9006 1.65289 43.9886 1.82186 44.0281 2.00428L44.1123 2.39974C44.1318 2.49134 44.1302 2.58604 44.1076 2.67695C44.085 2.76787 44.042 2.85271 43.9817 2.9253C43.9213 2.99789 43.8452 3.05641 43.7589 3.09661C43.6726 3.1368 43.5781 3.15765 43.4825 3.15764H40.8375ZM42.9631 3.41669V3.89864H41.3571V3.41669H42.9631ZM39.0687 9.99243L39.5255 5.32123C39.5555 5.00236 39.7065 4.70605 39.9486 4.49069C40.1908 4.27532 40.5066 4.15653 40.8338 4.15772H43.4865C43.8137 4.15656 44.1294 4.27537 44.3716 4.49073C44.6137 4.70609 44.7646 5.00238 44.7946 5.32123L45.2514 9.99243C45.2778 10.2807 45.2052 10.5693 45.0451 10.8126C44.8849 11.0559 44.6464 11.2399 44.3673 11.3356C44.3474 11.3388 44.3276 11.3414 44.3076 11.3445C43.9998 10.2517 43.8709 8.97258 43.9453 7.72594L44.0453 6.04902C44.0493 5.9876 44.0465 5.92593 44.0369 5.8651C43.9374 5.26072 43.3199 4.80153 42.5787 4.80153H41.7414C41.0002 4.80153 40.3826 5.26072 40.2831 5.86513C40.2803 5.9266 40.2776 5.9876 40.2748 6.04905L40.3747 7.7268C40.444 8.94408 40.3129 10.1644 39.9866 11.341C39.9813 11.3401 39.9762 11.3395 39.971 11.3386C39.6873 11.2471 39.4436 11.0642 39.2797 10.8197C39.1158 10.5752 39.0415 10.2836 39.0687 9.99243ZM43.0221 10.0176C42.961 9.84123 42.845 9.68801 42.6903 9.57952C42.5356 9.47102 42.35 9.41271 42.1597 9.41278C41.9693 9.41285 41.7838 9.4713 41.6292 9.57991C41.4746 9.68853 41.3586 9.84184 41.2977 10.0183L40.8115 11.4459C40.624 11.4277 40.4368 11.4057 40.2502 11.38C40.5779 10.1852 40.7091 8.94691 40.639 7.7117L40.5428 6.09783C40.5287 5.89261 40.5891 5.6891 40.7133 5.52318C40.9264 5.24455 41.308 5.06047 41.7414 5.06047H42.5787C43.0121 5.06047 43.3936 5.24455 43.6067 5.52316C43.7309 5.68908 43.7913 5.89261 43.7772 6.09786L43.681 7.71084C43.6057 8.97354 43.7347 10.2702 44.0439 11.3832C43.8658 11.4075 43.6873 11.4283 43.5084 11.4457L43.0221 10.0176ZM43.2375 11.4694C42.5203 11.5249 41.7997 11.5249 41.0825 11.4695L41.5485 10.1008C41.5918 9.97579 41.6741 9.86719 41.7837 9.79024C41.8933 9.7133 42.0247 9.67188 42.1596 9.67181C42.2945 9.67174 42.4261 9.71302 42.5358 9.78984C42.6454 9.86667 42.7278 9.97519 42.7712 10.1002L43.2375 11.4694ZM45.9753 12.3104C45.975 12.5836 45.8639 12.8455 45.6665 13.0387C45.4692 13.2318 45.2015 13.3405 44.9224 13.3408H39.3976C39.1185 13.3405 38.8509 13.2318 38.6535 13.0387C38.4561 12.8455 38.345 12.5836 38.3447 12.3104V11.8409C38.3445 11.7677 38.3619 11.6955 38.3955 11.6301C38.436 11.5552 38.4969 11.4928 38.5714 11.4496C38.6458 11.4064 38.7311 11.3841 38.8176 11.3853C38.8763 11.3869 38.9345 11.3959 38.9909 11.412C40.0296 11.6507 41.093 11.771 42.16 11.7705C43.227 11.771 44.2904 11.6507 45.3291 11.412L45.3886 11.3983C45.6046 11.3485 45.83 11.446 45.9245 11.6302C45.9581 11.6956 45.9755 11.7678 45.9753 11.841V12.3104Z"/>
</mask>
<path d="M45.3279 11.1461L45.2684 11.1599C45.1989 11.1759 45.1293 11.1913 45.0596 11.2062C45.2231 11.0447 45.3487 10.8502 45.4273 10.6363C45.506 10.4224 45.5358 10.1942 45.5149 9.96777L45.058 5.29657C45.022 4.91349 44.8407 4.55751 44.5497 4.29877C44.2588 4.04003 43.8795 3.89729 43.4863 3.89867H43.2277V3.41669H43.4825C43.6175 3.41669 43.7508 3.38726 43.8726 3.33052C43.9945 3.27378 44.1019 3.19117 44.1871 3.08869C44.2722 2.98622 44.3329 2.86646 44.3648 2.73813C44.3967 2.60979 44.399 2.47611 44.3714 2.34682L44.2872 1.95146C44.2234 1.65661 44.0583 1.39207 43.8193 1.20192C43.5804 1.01178 43.2821 0.907517 42.9741 0.906516H41.3459C41.038 0.907516 40.7396 1.01177 40.5007 1.20191C40.2617 1.39205 40.0966 1.65659 40.0328 1.95144L39.9486 2.34682C39.921 2.47611 39.9233 2.60979 39.9552 2.73813C39.9871 2.86646 40.0478 2.98622 40.133 3.08869C40.2181 3.19117 40.3255 3.27378 40.4474 3.33052C40.5693 3.38726 40.7025 3.41669 40.8375 3.41669H41.0923V3.89864H40.8338C40.4407 3.89726 40.0613 4.04001 39.7704 4.29875C39.4795 4.55749 39.2982 4.91347 39.2621 5.29654L38.8052 9.96777C38.7839 10.1944 38.8137 10.4228 38.8926 10.6368C38.9715 10.8509 39.0975 11.0453 39.2617 11.2064C39.1916 11.1914 39.1215 11.1759 39.0516 11.1598L38.9921 11.1461C38.6584 11.0691 38.3078 11.2238 38.159 11.5139C38.1067 11.6153 38.0797 11.7274 38.08 11.8409V12.3104C38.0804 12.6522 38.2193 12.98 38.4664 13.2217C38.7134 13.4635 39.0483 13.5995 39.3976 13.5998H44.9224C45.2717 13.5995 45.6066 13.4635 45.8536 13.2218C46.1007 12.98 46.2396 12.6523 46.24 12.3104V11.8409C46.2403 11.7274 46.2133 11.6153 46.1611 11.5139C46.0122 11.2238 45.6619 11.0691 45.3279 11.1461ZM41.2837 1.16756H43.0364V1.93001C43.0362 2.07236 42.9784 2.20882 42.8755 2.30948C42.7727 2.41013 42.6332 2.46675 42.4877 2.46691H41.8323C41.6868 2.46675 41.5474 2.41013 41.4445 2.30948C41.3417 2.20882 41.2838 2.07236 41.2837 1.93001V1.16756ZM40.8375 3.15764C40.7419 3.15765 40.6475 3.1368 40.5611 3.09661C40.4748 3.05641 40.3987 2.99789 40.3384 2.9253C40.278 2.85271 40.235 2.76787 40.2124 2.67695C40.1898 2.58604 40.1882 2.49134 40.2077 2.39974L40.2919 2.00426C40.3314 1.82184 40.4195 1.65287 40.5471 1.51444C40.6748 1.37601 40.8376 1.27303 41.0189 1.21592V1.93001C41.0192 2.14104 41.1049 2.34335 41.2574 2.49257C41.4099 2.64179 41.6166 2.72572 41.8323 2.72596H42.4877C42.7034 2.72572 42.9101 2.64179 43.0626 2.49257C43.2151 2.34335 43.3008 2.14104 43.3011 1.93001V1.21595C43.4825 1.27306 43.6452 1.37603 43.7729 1.51446C43.9006 1.65289 43.9886 1.82186 44.0281 2.00428L44.1123 2.39974C44.1318 2.49134 44.1302 2.58604 44.1076 2.67695C44.085 2.76787 44.042 2.85271 43.9817 2.9253C43.9213 2.99789 43.8452 3.05641 43.7589 3.09661C43.6726 3.1368 43.5781 3.15765 43.4825 3.15764H40.8375ZM42.9631 3.41669V3.89864H41.3571V3.41669H42.9631ZM39.0687 9.99243L39.5255 5.32123C39.5555 5.00236 39.7065 4.70605 39.9486 4.49069C40.1908 4.27532 40.5066 4.15653 40.8338 4.15772H43.4865C43.8137 4.15656 44.1294 4.27537 44.3716 4.49073C44.6137 4.70609 44.7646 5.00238 44.7946 5.32123L45.2514 9.99243C45.2778 10.2807 45.2052 10.5693 45.0451 10.8126C44.8849 11.0559 44.6464 11.2399 44.3673 11.3356C44.3474 11.3388 44.3276 11.3414 44.3076 11.3445C43.9998 10.2517 43.8709 8.97258 43.9453 7.72594L44.0453 6.04902C44.0493 5.9876 44.0465 5.92593 44.0369 5.8651C43.9374 5.26072 43.3199 4.80153 42.5787 4.80153H41.7414C41.0002 4.80153 40.3826 5.26072 40.2831 5.86513C40.2803 5.9266 40.2776 5.9876 40.2748 6.04905L40.3747 7.7268C40.444 8.94408 40.3129 10.1644 39.9866 11.341C39.9813 11.3401 39.9762 11.3395 39.971 11.3386C39.6873 11.2471 39.4436 11.0642 39.2797 10.8197C39.1158 10.5752 39.0415 10.2836 39.0687 9.99243ZM43.0221 10.0176C42.961 9.84123 42.845 9.68801 42.6903 9.57952C42.5356 9.47102 42.35 9.41271 42.1597 9.41278C41.9693 9.41285 41.7838 9.4713 41.6292 9.57991C41.4746 9.68853 41.3586 9.84184 41.2977 10.0183L40.8115 11.4459C40.624 11.4277 40.4368 11.4057 40.2502 11.38C40.5779 10.1852 40.7091 8.94691 40.639 7.7117L40.5428 6.09783C40.5287 5.89261 40.5891 5.6891 40.7133 5.52318C40.9264 5.24455 41.308 5.06047 41.7414 5.06047H42.5787C43.0121 5.06047 43.3936 5.24455 43.6067 5.52316C43.7309 5.68908 43.7913 5.89261 43.7772 6.09786L43.681 7.71084C43.6057 8.97354 43.7347 10.2702 44.0439 11.3832C43.8658 11.4075 43.6873 11.4283 43.5084 11.4457L43.0221 10.0176ZM43.2375 11.4694C42.5203 11.5249 41.7997 11.5249 41.0825 11.4695L41.5485 10.1008C41.5918 9.97579 41.6741 9.86719 41.7837 9.79024C41.8933 9.7133 42.0247 9.67188 42.1596 9.67181C42.2945 9.67174 42.4261 9.71302 42.5358 9.78984C42.6454 9.86667 42.7278 9.97519 42.7712 10.1002L43.2375 11.4694ZM45.9753 12.3104C45.975 12.5836 45.8639 12.8455 45.6665 13.0387C45.4692 13.2318 45.2015 13.3405 44.9224 13.3408H39.3976C39.1185 13.3405 38.8509 13.2318 38.6535 13.0387C38.4561 12.8455 38.345 12.5836 38.3447 12.3104V11.8409C38.3445 11.7677 38.3619 11.6955 38.3955 11.6301C38.436 11.5552 38.4969 11.4928 38.5714 11.4496C38.6458 11.4064 38.7311 11.3841 38.8176 11.3853C38.8763 11.3869 38.9345 11.3959 38.9909 11.412C40.0296 11.6507 41.093 11.771 42.16 11.7705C43.227 11.771 44.2904 11.6507 45.3291 11.412L45.3886 11.3983C45.6046 11.3485 45.83 11.446 45.9245 11.6302C45.9581 11.6956 45.9755 11.7678 45.9753 11.841V12.3104Z" fill="white" stroke="black" stroke-width="30" mask="url(#path-4-inside-2_232_3127)"/>
<circle cx="24.9333" cy="7.70667" r="7.70667" fill="#78DEFF"/>
<mask id="path-6-inside-3_232_3127" fill="white">
<path d="M28.1013 11.1464L28.0417 11.1601C27.9723 11.1761 27.9027 11.1916 27.8329 11.2064C27.9965 11.045 28.122 10.8505 28.2006 10.6365C28.2793 10.4226 28.3092 10.1944 28.2882 9.96801L27.8314 5.29681C27.7953 4.91374 27.614 4.55776 27.3231 4.29902C27.0322 4.04028 26.6528 3.89754 26.2597 3.89892H26.0011V3.41693H26.2559C26.3908 3.41694 26.5241 3.3875 26.646 3.33077C26.7678 3.27403 26.8753 3.19142 26.9604 3.08894C27.0455 2.98647 27.1063 2.8667 27.1382 2.73837C27.1701 2.61004 27.1723 2.47636 27.1448 2.34707L27.0606 1.95171C26.9968 1.65686 26.8316 1.39232 26.5927 1.20217C26.3537 1.01202 26.0554 0.907763 25.7474 0.906762H24.1193C23.8113 0.907762 23.513 1.01202 23.274 1.20216C23.0351 1.3923 22.8699 1.65684 22.8061 1.95168L22.7219 2.34707C22.6944 2.47636 22.6966 2.61004 22.7285 2.73837C22.7604 2.8667 22.8211 2.98647 22.9063 3.08894C22.9914 3.19142 23.0988 3.27403 23.2207 3.33077C23.3426 3.3875 23.4759 3.41694 23.6108 3.41693H23.8656V3.89889H23.6071C23.214 3.89751 22.8347 4.04025 22.5437 4.29899C22.2528 4.55773 22.0715 4.91371 22.0354 5.29679L21.5786 9.96801C21.5572 10.1946 21.5871 10.423 21.666 10.6371C21.7449 10.8511 21.8709 11.0456 22.0351 11.2067C21.9649 11.1917 21.8948 11.1761 21.8249 11.16L21.7654 11.1463C21.4317 11.0694 21.0811 11.224 20.9323 11.5142C20.8801 11.6156 20.853 11.7276 20.8533 11.8412V12.3106C20.8537 12.6525 20.9927 12.9802 21.2397 13.222C21.4867 13.4637 21.8216 13.5997 22.171 13.6001H27.6957C28.0451 13.5997 28.38 13.4637 28.627 13.222C28.874 12.9803 29.0129 12.6525 29.0133 12.3107V11.8412C29.0137 11.7276 28.9866 11.6156 28.9344 11.5142C28.7856 11.2241 28.4353 11.0694 28.1013 11.1464ZM24.057 1.1678H25.8097V1.93026C25.8095 2.0726 25.7517 2.20907 25.6488 2.30972C25.546 2.41038 25.4065 2.467 25.2611 2.46716H24.6056C24.4602 2.467 24.3207 2.41038 24.2179 2.30972C24.115 2.20907 24.0572 2.0726 24.057 1.93026V1.1678ZM23.6108 3.15789C23.5152 3.15789 23.4208 3.13704 23.3345 3.09685C23.2481 3.05666 23.172 2.99814 23.1117 2.92555C23.0514 2.85295 23.0083 2.76811 22.9857 2.6772C22.9631 2.58629 22.9615 2.49159 22.981 2.39999L23.0652 2.0045C23.1048 1.82208 23.1928 1.65311 23.3205 1.51468C23.4481 1.37625 23.6109 1.27328 23.7923 1.21617V1.93026C23.7925 2.14128 23.8783 2.3436 24.0308 2.49281C24.1832 2.64203 24.39 2.72597 24.6056 2.72621H25.2611C25.4767 2.72597 25.6835 2.64203 25.8359 2.49281C25.9884 2.3436 26.0742 2.14128 26.0744 1.93026V1.21619C26.2558 1.2733 26.4186 1.37628 26.5462 1.51471C26.6739 1.65314 26.7619 1.82211 26.8014 2.00453L26.8856 2.39999C26.9051 2.49159 26.9035 2.58629 26.8809 2.6772C26.8583 2.76811 26.8153 2.85295 26.755 2.92555C26.6947 2.99814 26.6186 3.05666 26.5322 3.09685C26.4459 3.13704 26.3515 3.15789 26.2559 3.15789H23.6108ZM25.7365 3.41693V3.89889H24.1304V3.41693H25.7365ZM21.8421 9.99267L22.2989 5.32148C22.3289 5.00261 22.4798 4.7063 22.722 4.49093C22.9641 4.27557 23.2799 4.15678 23.6071 4.15796H26.2598C26.587 4.15681 26.9028 4.27562 27.1449 4.49098C27.387 4.70634 27.538 5.00263 27.568 5.32148L28.0247 9.99267C28.0512 10.2809 27.9786 10.5696 27.8184 10.8128C27.6583 11.0561 27.4197 11.2402 27.1406 11.3358C27.1208 11.339 27.1009 11.3417 27.081 11.3448C26.7731 10.2519 26.6443 8.97283 26.7186 7.72619L26.8186 6.04927C26.8226 5.98785 26.8198 5.92618 26.8103 5.86535C26.7108 5.26096 26.0932 4.80178 25.352 4.80178H24.5147C23.7735 4.80178 23.1559 5.26096 23.0564 5.86537C23.0536 5.92684 23.0509 5.98785 23.0481 6.0493L23.1481 7.72704C23.2173 8.94433 23.0863 10.1646 22.7599 11.3412C22.7546 11.3404 22.7495 11.3397 22.7444 11.3389C22.4606 11.2474 22.2169 11.0644 22.053 10.8199C21.8892 10.5755 21.8148 10.2838 21.8421 9.99267ZM25.7955 10.0179C25.7344 9.84148 25.6183 9.68826 25.4636 9.57976C25.3089 9.47127 25.1233 9.41295 24.933 9.41303C24.7427 9.4131 24.5571 9.47155 24.4025 9.58016C24.2479 9.68877 24.132 9.84208 24.071 10.0185L23.5849 11.4462C23.3973 11.428 23.2102 11.406 23.0235 11.3803C23.3512 10.1854 23.4825 8.94716 23.4123 7.71194L23.3162 6.09807C23.3021 5.89285 23.3624 5.68935 23.4867 5.52343C23.6997 5.2448 24.0813 5.06072 24.5147 5.06072H25.352C25.7854 5.06072 26.1669 5.2448 26.38 5.5234C26.5042 5.68933 26.5646 5.89286 26.5505 6.0981L26.4544 7.71109C26.379 8.97379 26.5081 10.2705 26.8172 11.3834C26.6391 11.4077 26.4607 11.4285 26.2817 11.446L25.7955 10.0179ZM26.0108 11.4696C25.2936 11.5251 24.573 11.5252 23.8558 11.4698L24.3219 10.1011C24.3652 9.97604 24.4474 9.86743 24.557 9.79049C24.6666 9.71355 24.7981 9.67213 24.933 9.67206C25.0679 9.67199 25.1994 9.71326 25.3091 9.79009C25.4188 9.86692 25.5011 9.97544 25.5446 10.1004L26.0108 11.4696ZM28.7486 12.3107C28.7483 12.5838 28.6373 12.8457 28.4399 13.0389C28.2425 13.2321 27.9749 13.3407 27.6957 13.341H22.171C21.8918 13.3407 21.6242 13.2321 21.4268 13.0389C21.2294 12.8457 21.1184 12.5838 21.1181 12.3107V11.8412C21.1178 11.768 21.1352 11.6958 21.1689 11.6304C21.2094 11.5555 21.2702 11.493 21.3447 11.4498C21.4192 11.4066 21.5044 11.3844 21.591 11.3855C21.6496 11.3872 21.7079 11.3962 21.7642 11.4122C22.8029 11.6509 23.8664 11.7713 24.9333 11.7708C26.0003 11.7712 27.0637 11.6509 28.1024 11.4123L28.162 11.3985C28.378 11.3487 28.6034 11.4462 28.6978 11.6304C28.7315 11.6958 28.7489 11.768 28.7486 11.8412V12.3107Z"/>
</mask>
<path d="M28.1013 11.1464L28.0417 11.1601C27.9723 11.1761 27.9027 11.1916 27.8329 11.2064C27.9965 11.045 28.122 10.8505 28.2006 10.6365C28.2793 10.4226 28.3092 10.1944 28.2882 9.96801L27.8314 5.29681C27.7953 4.91374 27.614 4.55776 27.3231 4.29902C27.0322 4.04028 26.6528 3.89754 26.2597 3.89892H26.0011V3.41693H26.2559C26.3908 3.41694 26.5241 3.3875 26.646 3.33077C26.7678 3.27403 26.8753 3.19142 26.9604 3.08894C27.0455 2.98647 27.1063 2.8667 27.1382 2.73837C27.1701 2.61004 27.1723 2.47636 27.1448 2.34707L27.0606 1.95171C26.9968 1.65686 26.8316 1.39232 26.5927 1.20217C26.3537 1.01202 26.0554 0.907763 25.7474 0.906762H24.1193C23.8113 0.907762 23.513 1.01202 23.274 1.20216C23.0351 1.3923 22.8699 1.65684 22.8061 1.95168L22.7219 2.34707C22.6944 2.47636 22.6966 2.61004 22.7285 2.73837C22.7604 2.8667 22.8211 2.98647 22.9063 3.08894C22.9914 3.19142 23.0988 3.27403 23.2207 3.33077C23.3426 3.3875 23.4759 3.41694 23.6108 3.41693H23.8656V3.89889H23.6071C23.214 3.89751 22.8347 4.04025 22.5437 4.29899C22.2528 4.55773 22.0715 4.91371 22.0354 5.29679L21.5786 9.96801C21.5572 10.1946 21.5871 10.423 21.666 10.6371C21.7449 10.8511 21.8709 11.0456 22.0351 11.2067C21.9649 11.1917 21.8948 11.1761 21.8249 11.16L21.7654 11.1463C21.4317 11.0694 21.0811 11.224 20.9323 11.5142C20.8801 11.6156 20.853 11.7276 20.8533 11.8412V12.3106C20.8537 12.6525 20.9927 12.9802 21.2397 13.222C21.4867 13.4637 21.8216 13.5997 22.171 13.6001H27.6957C28.0451 13.5997 28.38 13.4637 28.627 13.222C28.874 12.9803 29.0129 12.6525 29.0133 12.3107V11.8412C29.0137 11.7276 28.9866 11.6156 28.9344 11.5142C28.7856 11.2241 28.4353 11.0694 28.1013 11.1464ZM24.057 1.1678H25.8097V1.93026C25.8095 2.0726 25.7517 2.20907 25.6488 2.30972C25.546 2.41038 25.4065 2.467 25.2611 2.46716H24.6056C24.4602 2.467 24.3207 2.41038 24.2179 2.30972C24.115 2.20907 24.0572 2.0726 24.057 1.93026V1.1678ZM23.6108 3.15789C23.5152 3.15789 23.4208 3.13704 23.3345 3.09685C23.2481 3.05666 23.172 2.99814 23.1117 2.92555C23.0514 2.85295 23.0083 2.76811 22.9857 2.6772C22.9631 2.58629 22.9615 2.49159 22.981 2.39999L23.0652 2.0045C23.1048 1.82208 23.1928 1.65311 23.3205 1.51468C23.4481 1.37625 23.6109 1.27328 23.7923 1.21617V1.93026C23.7925 2.14128 23.8783 2.3436 24.0308 2.49281C24.1832 2.64203 24.39 2.72597 24.6056 2.72621H25.2611C25.4767 2.72597 25.6835 2.64203 25.8359 2.49281C25.9884 2.3436 26.0742 2.14128 26.0744 1.93026V1.21619C26.2558 1.2733 26.4186 1.37628 26.5462 1.51471C26.6739 1.65314 26.7619 1.82211 26.8014 2.00453L26.8856 2.39999C26.9051 2.49159 26.9035 2.58629 26.8809 2.6772C26.8583 2.76811 26.8153 2.85295 26.755 2.92555C26.6947 2.99814 26.6186 3.05666 26.5322 3.09685C26.4459 3.13704 26.3515 3.15789 26.2559 3.15789H23.6108ZM25.7365 3.41693V3.89889H24.1304V3.41693H25.7365ZM21.8421 9.99267L22.2989 5.32148C22.3289 5.00261 22.4798 4.7063 22.722 4.49093C22.9641 4.27557 23.2799 4.15678 23.6071 4.15796H26.2598C26.587 4.15681 26.9028 4.27562 27.1449 4.49098C27.387 4.70634 27.538 5.00263 27.568 5.32148L28.0247 9.99267C28.0512 10.2809 27.9786 10.5696 27.8184 10.8128C27.6583 11.0561 27.4197 11.2402 27.1406 11.3358C27.1208 11.339 27.1009 11.3417 27.081 11.3448C26.7731 10.2519 26.6443 8.97283 26.7186 7.72619L26.8186 6.04927C26.8226 5.98785 26.8198 5.92618 26.8103 5.86535C26.7108 5.26096 26.0932 4.80178 25.352 4.80178H24.5147C23.7735 4.80178 23.1559 5.26096 23.0564 5.86537C23.0536 5.92684 23.0509 5.98785 23.0481 6.0493L23.1481 7.72704C23.2173 8.94433 23.0863 10.1646 22.7599 11.3412C22.7546 11.3404 22.7495 11.3397 22.7444 11.3389C22.4606 11.2474 22.2169 11.0644 22.053 10.8199C21.8892 10.5755 21.8148 10.2838 21.8421 9.99267ZM25.7955 10.0179C25.7344 9.84148 25.6183 9.68826 25.4636 9.57976C25.3089 9.47127 25.1233 9.41295 24.933 9.41303C24.7427 9.4131 24.5571 9.47155 24.4025 9.58016C24.2479 9.68877 24.132 9.84208 24.071 10.0185L23.5849 11.4462C23.3973 11.428 23.2102 11.406 23.0235 11.3803C23.3512 10.1854 23.4825 8.94716 23.4123 7.71194L23.3162 6.09807C23.3021 5.89285 23.3624 5.68935 23.4867 5.52343C23.6997 5.2448 24.0813 5.06072 24.5147 5.06072H25.352C25.7854 5.06072 26.1669 5.2448 26.38 5.5234C26.5042 5.68933 26.5646 5.89286 26.5505 6.0981L26.4544 7.71109C26.379 8.97379 26.5081 10.2705 26.8172 11.3834C26.6391 11.4077 26.4607 11.4285 26.2817 11.446L25.7955 10.0179ZM26.0108 11.4696C25.2936 11.5251 24.573 11.5252 23.8558 11.4698L24.3219 10.1011C24.3652 9.97604 24.4474 9.86743 24.557 9.79049C24.6666 9.71355 24.7981 9.67213 24.933 9.67206C25.0679 9.67199 25.1994 9.71326 25.3091 9.79009C25.4188 9.86692 25.5011 9.97544 25.5446 10.1004L26.0108 11.4696ZM28.7486 12.3107C28.7483 12.5838 28.6373 12.8457 28.4399 13.0389C28.2425 13.2321 27.9749 13.3407 27.6957 13.341H22.171C21.8918 13.3407 21.6242 13.2321 21.4268 13.0389C21.2294 12.8457 21.1184 12.5838 21.1181 12.3107V11.8412C21.1178 11.768 21.1352 11.6958 21.1689 11.6304C21.2094 11.5555 21.2702 11.493 21.3447 11.4498C21.4192 11.4066 21.5044 11.3844 21.591 11.3855C21.6496 11.3872 21.7079 11.3962 21.7642 11.4122C22.8029 11.6509 23.8664 11.7713 24.9333 11.7708C26.0003 11.7712 27.0637 11.6509 28.1024 11.4123L28.162 11.3985C28.378 11.3487 28.6034 11.4462 28.6978 11.6304C28.7315 11.6958 28.7489 11.768 28.7486 11.8412V12.3107Z" fill="white" stroke="#303030" stroke-width="30" mask="url(#path-6-inside-3_232_3127)"/>
<circle cx="7.70667" cy="7.70667" r="7.45667" fill="white" stroke="#49C7E6" stroke-width="0.5"/>
<mask id="path-8-inside-4_232_3127" fill="white">
<path d="M10.8746 11.1464L10.815 11.1601C10.7456 11.1761 10.676 11.1916 10.6062 11.2064C10.7698 11.045 10.8953 10.8505 10.9739 10.6365C11.0526 10.4226 11.0825 10.1944 11.0615 9.96801L10.6047 5.29681C10.5686 4.91374 10.3873 4.55776 10.0964 4.29902C9.80547 4.04028 9.42609 3.89754 9.03299 3.89892H8.77436V3.41693H9.02917C9.16413 3.41694 9.2974 3.3875 9.41927 3.33077C9.54115 3.27403 9.64856 3.19142 9.7337 3.08894C9.81885 2.98647 9.87957 2.8667 9.91147 2.73837C9.94336 2.61004 9.94562 2.47636 9.91807 2.34707L9.83387 1.95171C9.77006 1.65686 9.60492 1.39232 9.36597 1.20217C9.12702 1.01202 8.82869 0.907763 8.52071 0.906762H6.89258C6.58461 0.907762 6.28629 1.01202 6.04734 1.20216C5.80839 1.3923 5.64324 1.65684 5.57943 1.95168L5.49522 2.34707C5.46768 2.47636 5.46994 2.61004 5.50183 2.73837C5.53372 2.8667 5.59445 2.98647 5.67959 3.08894C5.76473 3.19142 5.87215 3.27403 5.99402 3.33077C6.1159 3.3875 6.24916 3.41694 6.38412 3.41693H6.63893V3.89889H6.38044C5.98734 3.89751 5.60795 4.04025 5.31704 4.29899C5.02613 4.55773 4.84479 4.91371 4.80875 5.29679L4.35185 9.96801C4.33054 10.1946 4.36039 10.423 4.43928 10.6371C4.51817 10.8511 4.64417 11.0456 4.80838 11.2067C4.73819 11.1917 4.66815 11.1761 4.59825 11.16L4.53871 11.1463C4.20499 11.0694 3.85444 11.224 3.70559 11.5142C3.65337 11.6156 3.62633 11.7276 3.62665 11.8412V12.3106C3.62703 12.6525 3.76597 12.9802 4.01299 13.222C4.26001 13.4637 4.59493 13.5997 4.94428 13.6001H10.469C10.8184 13.5997 11.1533 13.4637 11.4003 13.222C11.6473 12.9803 11.7863 12.6525 11.7866 12.3107V11.8412C11.787 11.7276 11.7599 11.6156 11.7077 11.5142C11.5589 11.2241 11.2086 11.0694 10.8746 11.1464ZM6.83029 1.1678H8.583V1.93026C8.58284 2.0726 8.52499 2.20907 8.42214 2.30972C8.31929 2.41038 8.17984 2.467 8.03439 2.46716H7.37891C7.23345 2.467 7.09401 2.41038 6.99116 2.30972C6.88831 2.20907 6.83046 2.0726 6.83029 1.93026V1.1678ZM6.38412 3.15789C6.28851 3.15789 6.1941 3.13704 6.10776 3.09685C6.02142 3.05666 5.94532 2.99814 5.885 2.92555C5.82468 2.85295 5.78165 2.76811 5.75905 2.6772C5.73645 2.58629 5.73484 2.49159 5.75435 2.39999L5.83855 2.0045C5.87806 1.82208 5.9661 1.65311 6.09377 1.51468C6.22143 1.37625 6.38419 1.27328 6.56558 1.21617V1.93026C6.56582 2.14128 6.65159 2.3436 6.80406 2.49281C6.95654 2.64203 7.16327 2.72597 7.37891 2.72621H8.03439C8.25002 2.72597 8.45676 2.64203 8.60923 2.49281C8.76171 2.3436 8.84748 2.14128 8.84771 1.93026V1.21619C9.0291 1.2733 9.19187 1.37628 9.31953 1.51471C9.44719 1.65314 9.53524 1.82211 9.57474 2.00453L9.65895 2.39999C9.67845 2.49159 9.67684 2.58629 9.65424 2.6772C9.63164 2.76811 9.58862 2.85295 9.52829 2.92555C9.46797 2.99814 9.39187 3.05666 9.30553 3.09685C9.21919 3.13704 9.12478 3.15789 9.02917 3.15789H6.38412ZM8.50976 3.41693V3.89889H6.90375V3.41693H8.50976ZM4.61537 9.99267L5.07216 5.32148C5.10216 5.00261 5.25311 4.7063 5.49526 4.49093C5.73742 4.27557 6.05323 4.15678 6.38044 4.15796H9.03312C9.36031 4.15681 9.67608 4.27562 9.91821 4.49098C10.1603 4.70634 10.3113 5.00263 10.3413 5.32148L10.7981 9.99267C10.8245 10.2809 10.7519 10.5696 10.5917 10.8128C10.4316 11.0561 10.193 11.2402 9.91392 11.3358C9.89406 11.339 9.87421 11.3417 9.85428 11.3448C9.54639 10.2519 9.41758 8.97283 9.49189 7.72619L9.5919 6.04927C9.59594 5.98785 9.59314 5.92618 9.58356 5.86535C9.48408 5.26096 8.86653 4.80178 8.12529 4.80178H7.28801C6.54682 4.80178 5.92919 5.26096 5.82974 5.86537C5.82693 5.92684 5.82421 5.98785 5.8214 6.0493L5.92136 7.72704C5.99061 8.94433 5.85955 10.1646 5.53321 11.3412C5.52791 11.3404 5.52283 11.3397 5.51767 11.3389C5.23391 11.2474 4.99021 11.0644 4.82634 10.8199C4.66247 10.5755 4.58811 10.2838 4.61537 9.99267ZM8.56879 10.0179C8.50768 9.84148 8.39162 9.68826 8.23691 9.57976C8.0822 9.47127 7.89664 9.41295 7.70631 9.41303C7.51597 9.4131 7.33045 9.47155 7.17583 9.58016C7.02121 9.68877 6.90526 9.84208 6.8443 10.0185L6.35818 11.4462C6.17061 11.428 5.98348 11.406 5.79681 11.3803C6.12455 10.1854 6.25578 8.94716 6.18559 7.71194L6.08947 6.09807C6.07537 5.89285 6.13575 5.68935 6.25997 5.52343C6.47304 5.2448 6.8546 5.06072 7.28801 5.06072H8.12529C8.5587 5.06072 8.94023 5.2448 9.1533 5.5234C9.27755 5.68933 9.33795 5.89286 9.32382 6.0981L9.22765 7.71109C9.15234 8.97379 9.28136 10.2705 9.59049 11.3834C9.41245 11.4077 9.23396 11.4285 9.05504 11.446L8.56879 10.0179ZM8.7841 11.4696C8.0669 11.5251 7.34635 11.5252 6.62914 11.4698L7.09516 10.1011C7.13847 9.97604 7.22069 9.86743 7.3303 9.79049C7.43991 9.71355 7.57139 9.67213 7.70628 9.67206C7.84117 9.67199 7.9727 9.71326 8.08239 9.79009C8.19208 9.86692 8.27443 9.97544 8.31787 10.1004L8.7841 11.4696ZM11.5219 12.3107C11.5216 12.5838 11.4106 12.8457 11.2132 13.0389C11.0158 13.2321 10.7482 13.3407 10.469 13.341H4.94428C4.66513 13.3407 4.3975 13.2321 4.20011 13.0389C4.00272 12.8457 3.89169 12.5838 3.89136 12.3107V11.8412C3.89114 11.768 3.90854 11.6958 3.94216 11.6304C3.98267 11.5555 4.04351 11.493 4.11799 11.4498C4.19248 11.4066 4.2777 11.3844 4.36427 11.3855C4.42295 11.3872 4.48118 11.3962 4.53755 11.4122C5.57625 11.6509 6.63969 11.7713 7.70665 11.7708C8.7736 11.7712 9.83703 11.6509 10.8757 11.4123L10.9353 11.3985C11.1513 11.3487 11.3767 11.4462 11.4711 11.6304C11.5048 11.6958 11.5222 11.768 11.5219 11.8412V12.3107Z"/>
</mask>
<path d="M10.8746 11.1464L10.815 11.1601C10.7456 11.1761 10.676 11.1916 10.6062 11.2064C10.7698 11.045 10.8953 10.8505 10.9739 10.6365C11.0526 10.4226 11.0825 10.1944 11.0615 9.96801L10.6047 5.29681C10.5686 4.91374 10.3873 4.55776 10.0964 4.29902C9.80547 4.04028 9.42609 3.89754 9.03299 3.89892H8.77436V3.41693H9.02917C9.16413 3.41694 9.2974 3.3875 9.41927 3.33077C9.54115 3.27403 9.64856 3.19142 9.7337 3.08894C9.81885 2.98647 9.87957 2.8667 9.91147 2.73837C9.94336 2.61004 9.94562 2.47636 9.91807 2.34707L9.83387 1.95171C9.77006 1.65686 9.60492 1.39232 9.36597 1.20217C9.12702 1.01202 8.82869 0.907763 8.52071 0.906762H6.89258C6.58461 0.907762 6.28629 1.01202 6.04734 1.20216C5.80839 1.3923 5.64324 1.65684 5.57943 1.95168L5.49522 2.34707C5.46768 2.47636 5.46994 2.61004 5.50183 2.73837C5.53372 2.8667 5.59445 2.98647 5.67959 3.08894C5.76473 3.19142 5.87215 3.27403 5.99402 3.33077C6.1159 3.3875 6.24916 3.41694 6.38412 3.41693H6.63893V3.89889H6.38044C5.98734 3.89751 5.60795 4.04025 5.31704 4.29899C5.02613 4.55773 4.84479 4.91371 4.80875 5.29679L4.35185 9.96801C4.33054 10.1946 4.36039 10.423 4.43928 10.6371C4.51817 10.8511 4.64417 11.0456 4.80838 11.2067C4.73819 11.1917 4.66815 11.1761 4.59825 11.16L4.53871 11.1463C4.20499 11.0694 3.85444 11.224 3.70559 11.5142C3.65337 11.6156 3.62633 11.7276 3.62665 11.8412V12.3106C3.62703 12.6525 3.76597 12.9802 4.01299 13.222C4.26001 13.4637 4.59493 13.5997 4.94428 13.6001H10.469C10.8184 13.5997 11.1533 13.4637 11.4003 13.222C11.6473 12.9803 11.7863 12.6525 11.7866 12.3107V11.8412C11.787 11.7276 11.7599 11.6156 11.7077 11.5142C11.5589 11.2241 11.2086 11.0694 10.8746 11.1464ZM6.83029 1.1678H8.583V1.93026C8.58284 2.0726 8.52499 2.20907 8.42214 2.30972C8.31929 2.41038 8.17984 2.467 8.03439 2.46716H7.37891C7.23345 2.467 7.09401 2.41038 6.99116 2.30972C6.88831 2.20907 6.83046 2.0726 6.83029 1.93026V1.1678ZM6.38412 3.15789C6.28851 3.15789 6.1941 3.13704 6.10776 3.09685C6.02142 3.05666 5.94532 2.99814 5.885 2.92555C5.82468 2.85295 5.78165 2.76811 5.75905 2.6772C5.73645 2.58629 5.73484 2.49159 5.75435 2.39999L5.83855 2.0045C5.87806 1.82208 5.9661 1.65311 6.09377 1.51468C6.22143 1.37625 6.38419 1.27328 6.56558 1.21617V1.93026C6.56582 2.14128 6.65159 2.3436 6.80406 2.49281C6.95654 2.64203 7.16327 2.72597 7.37891 2.72621H8.03439C8.25002 2.72597 8.45676 2.64203 8.60923 2.49281C8.76171 2.3436 8.84748 2.14128 8.84771 1.93026V1.21619C9.0291 1.2733 9.19187 1.37628 9.31953 1.51471C9.44719 1.65314 9.53524 1.82211 9.57474 2.00453L9.65895 2.39999C9.67845 2.49159 9.67684 2.58629 9.65424 2.6772C9.63164 2.76811 9.58862 2.85295 9.52829 2.92555C9.46797 2.99814 9.39187 3.05666 9.30553 3.09685C9.21919 3.13704 9.12478 3.15789 9.02917 3.15789H6.38412ZM8.50976 3.41693V3.89889H6.90375V3.41693H8.50976ZM4.61537 9.99267L5.07216 5.32148C5.10216 5.00261 5.25311 4.7063 5.49526 4.49093C5.73742 4.27557 6.05323 4.15678 6.38044 4.15796H9.03312C9.36031 4.15681 9.67608 4.27562 9.91821 4.49098C10.1603 4.70634 10.3113 5.00263 10.3413 5.32148L10.7981 9.99267C10.8245 10.2809 10.7519 10.5696 10.5917 10.8128C10.4316 11.0561 10.193 11.2402 9.91392 11.3358C9.89406 11.339 9.87421 11.3417 9.85428 11.3448C9.54639 10.2519 9.41758 8.97283 9.49189 7.72619L9.5919 6.04927C9.59594 5.98785 9.59314 5.92618 9.58356 5.86535C9.48408 5.26096 8.86653 4.80178 8.12529 4.80178H7.28801C6.54682 4.80178 5.92919 5.26096 5.82974 5.86537C5.82693 5.92684 5.82421 5.98785 5.8214 6.0493L5.92136 7.72704C5.99061 8.94433 5.85955 10.1646 5.53321 11.3412C5.52791 11.3404 5.52283 11.3397 5.51767 11.3389C5.23391 11.2474 4.99021 11.0644 4.82634 10.8199C4.66247 10.5755 4.58811 10.2838 4.61537 9.99267ZM8.56879 10.0179C8.50768 9.84148 8.39162 9.68826 8.23691 9.57976C8.0822 9.47127 7.89664 9.41295 7.70631 9.41303C7.51597 9.4131 7.33045 9.47155 7.17583 9.58016C7.02121 9.68877 6.90526 9.84208 6.8443 10.0185L6.35818 11.4462C6.17061 11.428 5.98348 11.406 5.79681 11.3803C6.12455 10.1854 6.25578 8.94716 6.18559 7.71194L6.08947 6.09807C6.07537 5.89285 6.13575 5.68935 6.25997 5.52343C6.47304 5.2448 6.8546 5.06072 7.28801 5.06072H8.12529C8.5587 5.06072 8.94023 5.2448 9.1533 5.5234C9.27755 5.68933 9.33795 5.89286 9.32382 6.0981L9.22765 7.71109C9.15234 8.97379 9.28136 10.2705 9.59049 11.3834C9.41245 11.4077 9.23396 11.4285 9.05504 11.446L8.56879 10.0179ZM8.7841 11.4696C8.0669 11.5251 7.34635 11.5252 6.62914 11.4698L7.09516 10.1011C7.13847 9.97604 7.22069 9.86743 7.3303 9.79049C7.43991 9.71355 7.57139 9.67213 7.70628 9.67206C7.84117 9.67199 7.9727 9.71326 8.08239 9.79009C8.19208 9.86692 8.27443 9.97544 8.31787 10.1004L8.7841 11.4696ZM11.5219 12.3107C11.5216 12.5838 11.4106 12.8457 11.2132 13.0389C11.0158 13.2321 10.7482 13.3407 10.469 13.341H4.94428C4.66513 13.3407 4.3975 13.2321 4.20011 13.0389C4.00272 12.8457 3.89169 12.5838 3.89136 12.3107V11.8412C3.89114 11.768 3.90854 11.6958 3.94216 11.6304C3.98267 11.5555 4.04351 11.493 4.11799 11.4498C4.19248 11.4066 4.2777 11.3844 4.36427 11.3855C4.42295 11.3872 4.48118 11.3962 4.53755 11.4122C5.57625 11.6509 6.63969 11.7713 7.70665 11.7708C8.7736 11.7712 9.83703 11.6509 10.8757 11.4123L10.9353 11.3985C11.1513 11.3487 11.3767 11.4462 11.4711 11.6304C11.5048 11.6958 11.5222 11.768 11.5219 11.8412V12.3107Z" fill="#5A5A5A" stroke="#414141" stroke-width="30" mask="url(#path-8-inside-4_232_3127)"/>
</svg>
