<svg width="44" height="44" viewBox="0 0 44 44" fill="none" xmlns="http://www.w3.org/2000/svg">
<path d="M3.66667 5.5H40.3333C42.3584 5.5 44 7.14162 44 9.16667V34.3551C44 36.3801 42.3584 38.0217 40.3333 38.0217H3.66667C1.64162 38.0217 0 36.3801 0 34.3551V9.16667C0 7.14162 1.64162 5.5 3.66667 5.5Z" fill="#243747"/>
<path d="M17.2176 29.413C21.4438 29.413 24.8698 25.987 24.8698 21.7608C24.8698 17.5346 21.4438 14.1086 17.2176 14.1086C12.9914 14.1086 9.56543 17.5346 9.56543 21.7608C9.56543 25.987 12.9914 29.413 17.2176 29.413Z" fill="#E61C24"/>
<path d="M26.7196 29.413C30.9457 29.413 34.3717 25.987 34.3717 21.7608C34.3717 17.5346 30.9457 14.1086 26.7196 14.1086C22.4934 14.1086 19.0674 17.5346 19.0674 21.7608C19.0674 25.987 22.4934 29.413 26.7196 29.413Z" fill="#F99F1B"/>
<path fill-rule="evenodd" clip-rule="evenodd" d="M21.9685 15.7693C20.1362 17.2178 19.0674 19.4252 19.0674 21.7609C19.0674 24.0967 20.1362 26.304 21.9685 27.7526C23.8008 26.304 24.8696 24.0967 24.8696 21.7609C24.8696 19.4252 23.8008 17.2178 21.9685 15.7693Z" fill="#F26622"/>
</svg>
